SplineFontDB: 3.2
FontName: dn_Norse
FullName: dn_Norse
FamilyName: dn_Norse
Weight: Regular
Copyright: Copyright 2011 by Joel Carrouche. All rights reserved. Modified by dn.
Version: 1.1
ItalicAngle: 0
UnderlinePosition: -100
UnderlineWidth: 50
Ascent: 875
Descent: 125
InvalidEm: 0
sfntRevision: 0x00011999
LayerCount: 2
Layer: 0 0 "Back" 1
Layer: 1 0 "Fore" 0
XUID: [1021 29 -48413871 23849]
UniqueID: 4026185
StyleMap: 0x0040
FSType: 4
OS2Version: 4
OS2_WeightWidthSlopeOnly: 0
OS2_UseTypoMetrics: 1
CreationTime: 1277734555
ModificationTime: 1678352299
PfmFamily: 81
TTFWeight: 400
TTFWidth: 5
LineGap: 9
VLineGap: 0
Panose: 0 0 0 0 0 0 0 0 0 0
OS2TypoAscent: 875
OS2TypoAOffset: 0
OS2TypoDescent: -125
OS2TypoDOffset: 0
OS2TypoLinegap: 9
OS2WinAscent: 750
OS2WinAOffset: 0
OS2WinDescent: 250
OS2WinDOffset: 0
HheadAscent: 750
HheadAOffset: 0
HheadDescent: -250
HheadDOffset: 0
OS2SubXSize: 700
OS2SubYSize: 650
OS2SubXOff: 0
OS2SubYOff: 140
OS2SupXSize: 700
OS2SupYSize: 650
OS2SupXOff: 0
OS2SupYOff: 477
OS2StrikeYSize: 50
OS2StrikeYPos: 250
OS2CapHeight: 735
OS2XHeight: 500
OS2Vendor: 'PYRS'
OS2CodePages: 20000001.00000000
OS2UnicodeRanges: 8000002f.4000004a.00000000.00000000
Lookup: 4 0 1 "'liga' Standard Ligatures lookup 0" { "'liga' Standard Ligatures lookup 0 subtable"  } ['liga' ('DFLT' <'dflt' > ) ]
Lookup: 258 0 0 "'kern' Horizontal Kerning lookup 0" { "'kern' Horizontal Kerning lookup 0 per glyph data 0"  "'kern' Horizontal Kerning lookup 0 kerning class 1"  } ['kern' ('DFLT' <'dflt' > ) ]
MarkAttachClasses: 1
DEI: 91125
KernClass2: 20+ 17 "'kern' Horizontal Kerning lookup 0 kerning class 1"
 101 A a Agrave Aacute Acircumflex Atilde Adieresis Aring agrave aacute acircumflex atilde adieresis aring
 3 B b
 21 C c Ccedilla ccedilla
 19 D O Q d o q Eth eth
 75 E e Egrave Eacute Ecircumflex Edieresis egrave eacute ecircumflex edieresis
 3 F f
 3 K k
 17 L l Lslash lslash
 3 P p
 3 R r
 17 S s Scaron scaron
 3 T t
 3 V v
 3 W w
 3 X x

StartChar: .notdef
Encoding: 65536 -1 0
Width: 455
GlyphClass: 1
Flags: MW
HStem: -3 38<371 371> 701 36
VStem: 45 28 383 28
LayerCount: 2
Fore
SplineSet
72 -2 m 1
 67 0 l 1
 51 -2 l 1
 40 0 l 1
 40 34 l 1
 48 58 l 1
 42 90 l 1
 47 268 l 1
 44 619 l 1
 51 644 l 1
 44 653 l 1
 42 722 l 1
 49 724 l 1
 44 738 l 1
 240 735 l 1
 249 736 l 1
 345 736 l 1
 355 734 l 1
 403 738 l 1
 417 736 l 1
 419 702 l 1
 413 679 l 1
 416 647 l 1
 410 480 l 1
 413 117 l 1
 406 92 l 1
 417 83 l 1
 416 16 l 1
 415 -1 l 1
 371 -3 l 1
 177 1 l 1
 168 0 l 1
 112 0 l 1
 100 2 l 1
 72 -2 l 1
80 94 m 1
 77 33 l 1
 355 35 l 1
 372 35 l 1
 376 108 l 1
 377 227 l 1
 383 348 l 1
 383 398 l 1
 382 411 l 1
 381 498 l 1
 381 503 l 1
 378 556 l 1
 390 561 l 1
 378 578 l 1
 379 636 l 1
 380 702 l 1
 86 701 l 1
 85 646 l 1
 84 639 l 1
 80 521 l 1
 74 400 l 1
 74 350 l 1
 75 337 l 1
 76 250 l 1
 76 245 l 1
 79 192 l 1
 67 176 l 1
 79 170 l 1
 79 91 l 1
 80 94 l 1
EndSplineSet
Validated: 1
EndChar

StartChar: exclam
Encoding: 33 33 4
Width: 212
GlyphClass: 1
Flags: MW
HStem: 224 21G 732 20G
VStem: 81 45
LayerCount: 2
Fore
SplineSet
88 446 m 1
 84 495 l 1
 78 642 l 1
 92 655 l 1
 77 671 l 1
 76 701 l 1
 74 726 l 1
 90 732 l 1
 139 728 l 1
 135 678 l 1
 129 670 l 1
 133 650 l 1
 126 526 l 1
 117 490 l 1
 123 471 l 1
 120 365 l 1
 126 238 l 1
 106 225 l 1
 82 225 l 1
 79 243 l 1
 86 290 l 2
 86 310 85 330 85 350 c 1
 89 359 l 1
 86 385 l 1
 88 446 l 1
148 44 m 1
 148 33 l 1
 126 15 l 1
 108 -11 l 1
 99 -10 l 1
 92 0 l 1
 93 6 l 1
 94 5 l 1
 92 8 l 2
 91 8 86 10 85 10 c 2
 59 32 l 1
 60 45 l 1
 83 65 l 2
 88 72 96 79 101 86 c 1
 112 85 l 1
 122 69 l 1
 127 54 l 2
 129 54 133 56 135 56 c 2
 148 44 l 1
EndSplineSet
Validated: 1
EndChar

StartChar: quotedbl
Encoding: 34 34 5
Width: 220
GlyphClass: 1
Flags: MW
HStem: 545 21G<72 72> 728 20G<78 78>
LayerCount: 2
Fore
SplineSet
46 599 m 1
 42 644 l 1
 42 683 l 1
 30 736 l 1
 34 745 l 1
 78 748 l 1
 88 739 l 1
 81 680 l 1
 77 606 l 1
 81 547 l 1
 72 545 l 1
 54 547 l 1
 43 555 l 1
 46 599 l 1
143 600 m 1
 140 686 l 1
 133 737 l 1
 138 747 l 1
 182 745 l 1
 190 739 l 1
 180 682 l 1
 176 607 l 1
 176 550 l 1
 165 546 l 1
 142 548 l 1
 143 600 l 1
EndSplineSet
Validated: 1
EndChar

StartChar: numbersign
Encoding: 35 35 6
Width: 401
GlyphClass: 1
Flags: MW
HStem: -5 21G<98 98> -1 21G<57 57> 0 21G 214 36<236 236 179 275 179 273> 216 41 492 37 497 36 716 20G<290 290>
VStem: 79 33 105 35 118 33 128 39 209 53 232 32 252 35 265 32 283 30
LayerCount: 2
Fore
SplineSet
50 259 m 1x4d82
 94 256 l 1x2d82
 100 311 l 1
 110 403 l 1x2d42
 114 423 l 1
 115 422 l 1
 122 496 l 1
 79 498 l 1
 57 489 l 1
 39 487 l 1
 29 489 l 1
 31 528 l 1
 36 539 l 1
 50 538 l 1
 73 534 l 1x3322
 126 532 l 1
 130 568 l 2
 131 583 134 600 136 614 c 0x3312
 135 631 137 650 136 666 c 2
 137 706 l 1
 142 732 l 1
 188 733 l 1
 191 723 l 1
 187 701 l 1
 172 638 l 1
 172 639 l 1
 163 535 l 1
 162 530 l 1
 200 529 l 2
 224 529 248 530 272 530 c 1
 276 568 l 1
 283 614 l 1x351080
 284 666 l 1
 285 709 l 1
 290 736 l 1
 337 732 l 1
 340 722 l 1
 331 700 l 1
 331 701 l 1
 319 639 l 1
 309 535 l 1
 308 531 l 1
 323 531 l 1
 394 537 l 1
 393 493 l 1
 379 485 l 1x334080
 303 496 l 1x3341
 292 414 l 1
 282 275 l 1
 278 250 l 1
 287 250 l 1
 302 255 l 1
 349 254 l 1
 375 260 l 1
 373 212 l 1
 359 206 l 1
 308 213 l 2
 297 213 286 214 275 214 c 2
 273 214 l 1x3342
 267 165 l 1
 261 88 l 1
 263 26 l 1
 260 0 l 1x3544
 209 -2 l 1
 209 21 l 1
 214 34 l 1
 217 55 222 74 225 95 c 2x3548
 232 121 l 1
 228 137 l 1
 236 214 l 1
 203 213 l 1
 126 215 l 1
 124 198 122 181 121 165 c 2
 116 116 l 1
 106 96 l 2
 108 94 112 90 114 89 c 2
 110 20 l 1
 113 7 l 1
 106 1 l 1
 98 -5 l 1x9584
 57 -1 l 1
 57 20 l 1
 64 33 l 1
 64 32 l 1
 68 53 74 73 78 93 c 2
 80 120 l 1
 81 137 l 1
 89 216 l 1
 63 217 l 1
 22 210 l 1
 9 210 l 1
 7 232 l 1
 10 247 l 1
 12 262 l 1
 37 261 l 1
 50 259 l 1x4d82
225 491 m 1x3541
 157 494 l 1x3522
 147 414 l 1
 133 275 l 1
 131 253 l 1
 179 250 l 1
 240 250 l 1
 247 311 l 1
 257 402 l 1
 270 422 l 1x3542
 263 445 l 1
 268 495 l 1
 225 491 l 1x3541
EndSplineSet
Validated: 33
EndChar

StartChar: dollar
Encoding: 36 36 7
Width: 363
GlyphClass: 1
Flags: MW
HStem: -84 21G<174 174> 722 20G<204 204.5> 793 20G<206 206>
LayerCount: 2
Fore
SplineSet
35 143 m 1
 59 172 l 1
 89 143 l 1
 86 128 l 1
 104 121 l 1
 146 75 l 1
 169 51 l 1
 170 81 173 118 174 150 c 0
 174 221 172 292 172 363 c 1
 164 373 155 388 148 398 c 2
 104 460 l 1
 89 474 l 1
 37 544 l 1
 42 576 l 1
 80 625 l 1
 92 627 l 1
 92 643 l 1
 120 669 l 1
 119 669 l 1
 167 744 l 1
 164 783 l 1
 160 804 l 1
 163 812 l 1
 206 813 l 1
 203 775 l 2
 203 764 204 753 204 742 c 1
 205 742 208 741 209 741 c 2
 217 731 l 1
 243 699 l 1
 274 674 l 1
 318 633 l 1
 287 602 l 1
 274 610 l 1
 229 661 l 1
 230 661 l 1
 203 685 l 1
 203 655 202 626 202 596 c 2
 204 552 l 1
 203 384 l 1
 323 223 l 1
 340 208 l 1
 345 172 l 1
 300 124 l 1
 272 94 l 1
 273 94 l 1
 232 31 l 1
 204 -7 l 1
 204 -51 l 1
 205 -81 l 1
 174 -84 l 1
 164 -79 l 1
 168 -53 l 2
 168 -41 169 -21 169 -9 c 1
 94 65 l 1
 95 65 l 1
 73 85 50 108 29 128 c 1
 35 143 l 1
206 86 m 1
 205 60 l 1
 263 121 l 1
 262 121 l 1
 293 184 l 1
 280 206 265 232 252 255 c 0
 235 278 219 301 201 323 c 1
 201 313 200 301 200 290 c 2
 204 120 l 1
 206 86 l 1
173 626 m 1
 170 684 l 1
 147 656 l 1
 131 634 l 1
 119 630 l 1
 87 561 l 1
 172 429 l 1
 172 460 171 494 171 526 c 2
 173 626 l 1
EndSplineSet
Validated: 1
EndChar

StartChar: percent
Encoding: 37 37 8
Width: 574
GlyphClass: 1
Flags: MW
HStem: -10 21G<140 158> -7 20 -7 50<416 441> 266 47<413 430 413 425> 420 47 693 46<138 157 138 157>
VStem: 23 41 220 43 312 40 509 43
LayerCount: 2
Fore
SplineSet
20 595 m 1x5fc0
 87 674 l 1
 98 694 l 1
 110 711 l 1
 126 738 l 1
 157 739 l 1
 197 685 l 1
 198 673 l 1
 215 655 l 1
 262 595 l 1
 264 562 l 1
 212 502 l 1
 200 502 l 1
 202 485 l 1
 159 421 l 1
 127 419 l 1
 113 437 l 1
 87 479 l 1
 24 561 l 1
 23 579 l 1
 20 595 l 1x5fc0
99 638 m 1
 92 626 l 1
 65 591 l 1
 65 585 l 1
 97 537 l 1
 93 525 l 1
 111 518 l 1
 149 467 l 1
 152 467 l 1
 184 510 l 1
 220 564 l 1
 220 576 l 1
 188 626 l 1
 142 693 l 1
 138 693 l 1
 99 638 l 1
309 165 m 1
 374 248 l 1
 385 269 l 1
 397 286 l 1
 413 313 l 1
 444 314 l 1
 484 260 l 1
 485 246 l 1
 509 223 l 1
 551 174 l 1
 553 141 l 1
 501 76 l 1
 489 76 l 1
 491 60 l 1
 448 -5 l 1
 416 -7 l 1
 402 12 l 1
 376 54 l 1
 313 131 l 1
 312 149 l 1
 309 165 l 1
388 212 m 1
 381 200 l 1
 353 163 l 1
 353 157 l 1
 386 111 l 1
 382 99 l 1
 400 92 l 1
 438 43 l 1
 441 43 l 1
 472 84 l 1
 509 143 l 1x3fc0
 509 155 l 1
 476 200 l 1
 430 266 l 1
 425 266 l 1
 388 212 l 1
364 481 m 1
 311 372 l 1
 210 148 l 1
 176 65 l 1
 164 34 l 1
 158 11 l 1
 150 -5 l 1
 140 -10 l 1x9fc0
 102 13 l 1
 114 38 l 1
 128 54 l 1
 154 93 l 1
 177 115 l 1
 171 133 l 1
 237 287 l 1
 272 369 l 1
 282 387 l 1
 348 520 l 1
 372 561 l 1
 404 666 l 1
 420 713 l 1
 435 737 l 1
 476 715 l 1
 476 707 l 1
 464 686 l 1
 402 574 l 1
 364 481 l 1
EndSplineSet
Validated: 1
EndChar

StartChar: ampersand
Encoding: 38 38 9
Width: 521
GlyphClass: 1
Flags: MW
HStem: -10 21G<478 478> -1 54<216 238> 0 21G 721 20G<217 217>
VStem: 26 494<40 228> 40 80<544 606.5 572 606.5>
LayerCount: 2
Fore
SplineSet
336 607 m 1x38
 307 576 l 1
 279 605 l 1
 244 642 l 1
 242 659 l 1
 229 657 l 1
 195 694 l 1
 177 671 155 647 137 625 c 1
 119 615 l 2
 119 612 120 611 120 602 c 1
 89 560 l 1
 124 510 l 1
 136 499 l 1
 282 321 l 1
 278 308 l 1
 294 305 l 1
 356 228 l 1
 359 225 l 1
 370 241 l 1
 387 264 l 1
 453 368 l 1
 464 370 l 1
 501 339 l 1
 489 317 l 1
 463 296 l 1
 428 256 l 1
 384 202 l 2
 383 200 383 199 383 198 c 2
 443 121 l 1
 520 40 l 1
 514 21 l 1
 478 -10 l 1
 441 32 l 1
 430 55 l 1
 426 79 l 1
 410 81 l 1x94
 354 160 l 1
 330 133 l 1
 290 82 l 1
 260 41 l 1
 238 -1 l 1
 203 1 l 1
 186 0 l 1
 178 17 l 1
 134 69 l 1
 127 94 l 1
 118 91 l 1
 29 186 l 1
 26 228 l 1
 119 328 l 1
 122 338 l 1
 156 378 l 1
 166 391 l 1
 159 402 l 1
 112 456 l 1
 104 483 l 1
 91 487 l 1
 40 544 l 1
 40 572 l 1
 102 632 l 1
 138 678 l 1x34
 177 737 l 1
 198 739 l 1
 217 741 l 1
 247 703 l 1
 272 677 l 1
 335 622 l 1
 336 607 l 1x38
191 359 m 2
 182 349 l 1
 96 254 l 1
 82 234 l 1
 70 213 l 1
 90 185 l 1
 145 131 l 1
 184 83 l 1
 216 53 l 1
 277 119 l 1
 288 145 l 1
 296 151 l 1x58
 327 189 l 1
 325 202 l 1
 313 211 l 1
 196 358 l 1
 194 358 l 2
 192 358 192 359 191 359 c 2
EndSplineSet
Validated: 1
EndChar

StartChar: quotesingle
Encoding: 39 39 10
Width: 124
GlyphClass: 1
Flags: MW
HStem: 548 21G<73 73> 728 20G<39 39>
LayerCount: 2
Fore
SplineSet
45 601 m 1
 44 685 l 1
 35 739 l 1
 39 748 l 1
 82 747 l 1
 91 739 l 1
 83 680 l 2
 82 656 80 630 79 607 c 2
 82 554 l 1
 73 548 l 1
 53 549 l 1
 42 557 l 1
 45 601 l 1
EndSplineSet
Validated: 1
EndChar

StartChar: parenleft
Encoding: 40 40 11
Width: 213
GlyphClass: 1
Flags: MW
HStem: -84 886<170 175>
VStem: 44 38 46 33
LayerCount: 2
Fore
SplineSet
53 278 m 1xc0
 44 322 l 1
 45 377 l 1
 47 453 l 1
 54 507 l 1
 100 657 l 1
 157 795 l 1
 175 802 l 1
 209 781 l 1
 187 734 l 1
 155 706 l 1
 153 687 l 1
 151 665 l 1
 119 611 l 1
 95 527 l 1
 82 434 l 1
 76 380 l 1
 89 250 l 1
 136 63 l 1
 136 64 l 1xa0
 193 -40 l 1
 201 -61 l 1
 170 -84 l 1
 157 -83 l 1
 142 -62 l 1
 132 -25 l 1
 135 2 l 1
 115 18 l 1
 78 127 l 1
 75 159 l 1
 75 158 l 1
 62 211 l 1
 53 278 l 1xc0
EndSplineSet
Validated: 1
EndChar

StartChar: parenright
Encoding: 41 41 12
Width: 215
GlyphClass: 1
Flags: MW
HStem: -83 883<38 44>
VStem: 133 41 137 35
LayerCount: 2
Fore
SplineSet
165 439 m 1xc0
 176 394 l 1
 174 339 l 1
 171 261 l 1
 156 210 l 1
 114 58 l 1
 56 -77 l 1
 38 -83 l 1
 2 -63 l 1
 24 -20 l 1
 57 9 l 1
 58 27 l 1
 62 50 l 1
 93 106 l 1
 93 105 l 1
 113 189 l 1
 134 281 l 1
 141 336 l 1
 134 393 l 1
 133 433 l 1
 129 465 l 1
 104 541 l 1
 76 646 l 1
 76 645 l 1xa0
 22 758 l 1
 14 778 l 1
 44 800 l 1
 57 799 l 1
 73 778 l 1
 85 736 l 1
 77 711 l 1
 98 698 l 1
 137 587 l 1
 140 558 l 1
 140 559 l 1
 158 505 l 1
 165 439 l 1xc0
EndSplineSet
Validated: 1
EndChar

StartChar: asterisk
Encoding: 42 42 13
Width: 221
GlyphClass: 1
Flags: MW
HStem: 560 21G<80 80> 732 20G<119 119>
LayerCount: 2
Fore
SplineSet
93 750 m 1
 119 752 l 1
 137 750 l 1
 136 728 l 1
 126 675 l 1
 158 684 l 1
 200 698 l 1
 206 680 l 1
 206 660 l 1
 179 657 l 1
 135 652 l 1
 139 648 147 641 150 637 c 2
 175 604 l 1
 174 604 l 1
 191 586 l 1
 161 563 l 1
 143 577 l 1
 137 597 l 1
 116 634 l 1
 96 600 l 1
 96 601 l 1
 93 578 l 1
 80 560 l 1
 44 576 l 1
 55 596 l 1
 75 621 l 2
 81 631 88 639 94 649 c 1
 63 652 l 1
 22 652 l 1
 20 675 l 1
 25 689 l 1
 42 689 l 1
 101 673 l 1
 97 725 l 1
 93 750 l 1
EndSplineSet
Validated: 1
EndChar

StartChar: plus
Encoding: 43 43 14
Width: 370
GlyphClass: 1
Flags: MW
HStem: 345 33
VStem: 168 38 170 33
LayerCount: 2
Fore
SplineSet
135 378 m 1xc0
 169 377 l 1
 170 409 l 1
 170 454 l 1
 166 460 l 1
 162 540 l 1
 170 556 l 1
 213 555 l 1
 211 511 l 1
 202 429 l 1
 205 377 l 1
 205 376 l 1
 209 376 l 1
 271 379 l 1xa0
 309 385 l 1
 350 388 l 1
 350 367 l 1
 347 342 l 1
 331 335 l 1
 278 341 l 1
 236 345 l 1
 205 345 l 1
 208 228 l 1
 213 202 l 1
 214 177 l 1
 192 171 l 1
 162 171 l 1
 159 181 l 1
 163 210 l 1
 166 232 l 1
 168 314 l 1
 168 345 l 1
 132 346 l 1
 76 344 l 1
 29 338 l 1
 19 340 l 1
 24 378 l 1
 28 389 l 1
 50 387 l 1
 72 383 l 1
 109 378 l 1
 135 378 l 1xc0
EndSplineSet
Validated: 1
EndChar

StartChar: comma
Encoding: 44 44 15
Width: 142
GlyphClass: 1
Flags: MW
HStem: -101 185<26 70>
VStem: 0 117<-82 42> 28 88
LayerCount: 2
Fore
SplineSet
27 -54 m 1xc0
 54 -18 l 1
 57 7 l 1
 55 7 54 8 54 8 c 1
 28 30 l 1
 29 43 l 1
 52 63 l 2
 57 70 65 77 70 84 c 1
 81 83 l 1
 91 67 l 1
 96 52 l 2
 98 52 102 54 104 54 c 2
 117 42 l 1
 117 31 l 1
 113 27 l 1
 97 -5 l 1
 62 -58 l 1
 38 -93 l 1
 26 -101 l 1xa0
 0 -82 l 1
 6 -70 l 1
 27 -54 l 1xc0
EndSplineSet
Validated: 1
EndChar

StartChar: hyphen
Encoding: 45 45 16
Width: 264
GlyphClass: 1
Flags: MW
HStem: 356 37<131 165>
VStem: 32 202<352 358> 33 200<394 397>
LayerCount: 2
Fore
SplineSet
85 394 m 1xa0
 131 393 l 1
 193 396 l 1
 228 401 l 1
 233 394 l 1
 234 358 l 1
 220 351 l 1
 165 356 l 1
 88 357 l 1
 67 354 l 1
 45 350 l 1
 32 352 l 1
 34 369 l 1
 33 397 l 1
 39 399 l 1
 62 397 l 1
 85 394 l 1xa0
EndSplineSet
Validated: 1
EndChar

StartChar: period
Encoding: 46 46 17
Width: 129
GlyphClass: 1
Flags: MW
HStem: -2 21G<53 53>
VStem: 20 88 20 89<30 42>
LayerCount: 2
Fore
SplineSet
109 42 m 1xc0
 109 31 l 1
 87 13 l 1
 69 -13 l 1
 60 -12 l 1
 53 -2 l 1
 54 4 l 1
 55 3 l 1
 53 6 l 2
 52 6 47 8 46 8 c 2
 20 30 l 1
 21 43 l 1
 44 63 l 2
 49 70 57 77 62 84 c 1
 73 83 l 1
 83 67 l 1
 88 52 l 2
 90 52 94 54 96 54 c 2
 109 42 l 1xc0
EndSplineSet
Validated: 1
EndChar

StartChar: slash
Encoding: 47 47 18
Width: 326
GlyphClass: 1
Flags: MW
HStem: -45 818<45 274>
VStem: 6 310
LayerCount: 2
Fore
SplineSet
230 511 m 1
 189 395 l 1
 149 263 l 1
 112 157 l 1
 86 68 l 1
 64 0 l 1
 63 -23 l 1
 57 -40 l 1
 45 -45 l 1
 6 -29 l 1
 16 -1 l 2
 19 5 22 15 25 22 c 2
 62 112 l 1
 74 121 l 1
 68 139 l 1
 122 303 l 1
 148 391 l 1
 157 410 l 1
 201 552 l 1
 217 593 l 1
 249 705 l 1
 261 745 l 1
 274 773 l 1
 315 760 l 1
 316 749 l 2
 313 743 306 734 303 728 c 2
 263 619 l 1
 250 614 l 1
 256 597 l 1
 230 511 l 1
EndSplineSet
Validated: 1
EndChar

StartChar: zero
Encoding: 48 48 19
Width: 443
GlyphClass: 1
Flags: MW
HStem: -11 21G<197 197> 719 20G<234 234>
VStem: 189 61<373 374>
LayerCount: 2
Fore
SplineSet
196 735 m 1
 234 739 l 1
 244 737 l 1
 318 572 l 1
 317 545 l 1
 338 528 l 1
 377 443 l 1
 411 382 l 1
 408 350 l 1
 375 292 l 1
 335 201 l 1
 296 135 l 1
 290 106 l 1
 246 -5 l 1
 197 -11 l 1
 192 -2 l 1
 181 27 l 1
 128 155 l 1
 86 240 l 1
 28 368 l 1
 31 385 l 1
 63 447 l 1
 94 509 l 1
 101 508 l 1
 101 507 l 1
 119 557 l 1
 169 663 l 1
 182 698 l 1
 196 735 l 1
155 194 m 1
 205 81 l 1
 222 46 l 1
 254 113 l 1
 291 174 l 1
 320 235 l 1
 363 338 l 1
 363 337 l 1
 369 360 l 1
 360 378 l 1
 317 480 l 1
 241 640 l 1
 231 655 l 1
 218 682 l 1
 218 681 l 1
 206 671 l 1
 206 672 l 1
 187 628 l 1
 165 601 l 1
 163 586 l 1
 93 438 l 1
 73 381 l 1
 135 236 l 1
 134 221 l 1
 155 194 l 1
204 392 m 1
 213 412 l 1
 220 415 l 1
 237 394 l 1
 250 374 l 1
 251 359 l 1
 237 344 l 1
 223 322 l 1
 218 320 l 1
 201 341 l 1
 190 359 l 1
 189 373 l 1
 204 392 l 1
EndSplineSet
Validated: 1
EndChar

StartChar: one
Encoding: 49 49 20
Width: 310
GlyphClass: 1
Flags: MW
HStem: 0 21G<175 235> 725 20G<202 202>
LayerCount: 2
Fore
SplineSet
189 438 m 1
 183 478 l 1
 183 648 l 1
 177 652 174 658 168 662 c 1
 168 663 l 1
 103 600 l 1
 57 535 l 1
 45 549 l 1
 25 576 l 1
 35 590 l 1
 70 618 l 1
 95 640 l 1
 121 662 l 1
 121 661 l 1
 148 690 l 1
 192 741 l 1
 202 745 l 1
 227 729 l 1
 221 647 l 1
 214 344 l 1
 227 54 l 2
 227 49 228 45 231 39 c 2
 235 21 l 1
 232 4 l 1
 217 0 l 1
 175 0 l 1
 175 30 l 1
 189 248 l 1
 184 341 l 1
 181 376 l 1
 189 438 l 1
EndSplineSet
Validated: 1
EndChar

StartChar: two
Encoding: 50 50 21
Width: 378
GlyphClass: 1
Flags: MW
HStem: -2 43
VStem: 32 314
LayerCount: 2
Fore
SplineSet
212 311 m 1
 193 262 l 1
 148 160 l 1
 129 113 l 1
 107 48 l 1
 111 43 l 1
 213 39 l 1
 332 58 l 1
 346 50 l 1
 333 5 l 1
 322 -2 l 1
 142 4 l 1
 71 -2 l 1
 58 -3 l 1
 45 26 l 1
 72 96 l 1
 199 348 l 1
 225 411 l 1
 268 493 l 1
 279 520 l 1
 294 571 l 1
 249 630 l 1
 243 655 l 1
 225 655 l 1
 176 699 l 1
 143 669 l 1
 106 630 l 1
 92 606 l 1
 74 575 l 1
 42 590 l 1
 32 608 l 1
 89 661 l 1
 155 727 l 1
 175 752 l 1
 214 743 l 1
 253 691 l 1
 289 644 l 1
 341 597 l 1
 337 564 l 1
 256 381 l 1
 238 351 l 1
 221 345 l 1
 212 311 l 1
EndSplineSet
Validated: 1
EndChar

StartChar: three
Encoding: 51 51 22
Width: 358
GlyphClass: 1
Flags: MW
HStem: -19 21G<105 105> 320 72 700 41 726 20G<47 47>
VStem: 105 42<468 468 468 482 468 482> 273 46
LayerCount: 2
Fore
SplineSet
105 444 m 1xec
 105 482 l 1
 158 544 l 1
 185 588 l 1
 258 687 l 1
 249 698 l 1
 160 702 l 1
 64 690 l 1
 43 691 l 1
 39 722 l 1xec
 47 746 l 1xdc
 78 741 l 1
 308 733 l 1
 313 693 l 1
 183 532 l 1
 173 504 l 1
 147 468 l 1
 173 434 l 1
 202 405 l 1
 200 394 l 1
 201 394 l 1
 220 391 l 1
 247 364 l 1
 289 321 l 1
 321 292 l 1
 317 246 l 1
 263 193 l 1
 175 75 l 1
 123 -11 l 1
 105 -19 l 1
 69 20 l 1
 96 51 l 1
 118 67 l 1
 150 100 l 1
 222 196 l 1
 273 269 l 1
 243 302 l 1
 244 320 l 1
 243 320 l 1
 226 321 l 1
 151 407 l 1
 105 444 l 1xec
EndSplineSet
Validated: 1
EndChar

StartChar: four
Encoding: 52 52 23
Width: 386
GlyphClass: 1
Flags: MW
HStem: -5 21G<298 298> 0 21G<324 324> 154 35<216 271 216 283 196 271> 724 20G<233 233>
VStem: 275 48 284 33
LayerCount: 2
Fore
SplineSet
273 345 m 1x74
 275 402 l 1x74
 323 409 l 1
 325 380 l 1x78
 316 257 l 1
 318 160 l 1x74
 323 54 l 1
 324 0 l 1
 298 -5 l 1xb8
 274 -1 l 1
 276 52 l 1x78
 286 128 l 1
 285 146 l 1
 283 155 l 1
 283 154 l 1
 196 154 l 1
 121 155 l 1
 62 149 l 1
 52 149 l 1
 36 180 l 1
 66 263 l 1
 179 604 l 1
 219 734 l 1
 223 743 l 1
 233 744 l 1
 271 729 l 1
 256 676 l 1
 197 543 l 1
 181 519 l 1
 163 461 l 1
 163 462 l 1
 125 331 l 1
 116 322 l 1
 117 306 l 1
 117 290 l 1
 95 209 l 1
 97 200 l 1
 101 190 l 1
 101 191 l 1
 151 187 l 1
 216 189 l 1
 271 189 l 1
 284 199 l 1
 284 217 l 1
 291 241 l 1
 285 253 l 1
 280 323 l 1
 273 345 l 1x74
EndSplineSet
Validated: 1
EndChar

StartChar: five
Encoding: 53 53 24
Width: 355
GlyphClass: 1
Flags: MW
HStem: -6 21G<95 95> 694 40 694 43 723 11
VStem: 91 31 267 46<241 268> 292 7
LayerCount: 2
Fore
SplineSet
60 451 m 1xca
 78 536 l 1
 91 555 l 1
 80 562 l 1
 91 653 l 1
 92 697 l 1
 91 723 l 1x9a
 109 734 l 1xca
 204 733 l 1
 292 737 l 1
 300 731 l 1
 298 692 l 1
 291 682 l 1
 267 685 l 1xaa
 240 694 l 1xca
 176 694 l 1
 137 692 l 1
 123 640 l 1
 122 620 l 1
 111 490 l 1
 106 463 l 1
 170 407 l 1
 172 399 l 1
 193 388 l 1
 225 359 l 1
 277 319 l 1
 314 291 l 1
 313 241 l 1
 259 182 l 1
 177 87 l 1
 118 1 l 1
 95 -6 l 1
 57 31 l 1
 83 58 l 1
 108 80 l 1
 146 110 l 1
 210 187 l 1
 267 268 l 1
 227 305 l 1
 223 322 l 1
 206 323 l 1xcc
 116 402 l 1
 74 425 l 1
 62 432 l 1
 60 451 l 1xca
EndSplineSet
Validated: 1
EndChar

StartChar: six
Encoding: 54 54 25
Width: 418
GlyphClass: 1
Flags: MW
HStem: -2 21G<207 207 244 244> 725 20G<271 271>
VStem: 30 46
LayerCount: 2
Fore
SplineSet
278 654 m 1
 178 449 l 1
 139 378 l 1
 120 332 l 1
 105 301 l 1
 76 234 l 1
 111 189 l 1
 130 155 l 1
 199 91 l 1
 235 57 l 1
 266 94 l 1
 295 137 l 1
 302 153 l 1
 314 162 l 1
 353 236 l 1
 301 283 l 1
 246 326 l 1
 246 325 l 1
 212 348 l 1
 211 374 l 1
 216 380 l 1
 245 396 l 1
 290 353 l 1
 335 315 l 1
 344 301 l 1
 365 288 l 1
 395 267 l 1
 400 219 l 1
 353 162 l 1
 325 121 l 1
 304 89 l 1
 280 52 l 1
 244 -2 l 1
 222 0 l 1
 207 -2 l 1
 195 12 l 1
 142 78 l 1
 128 114 l 1
 128 113 l 1
 110 113 l 1
 28 204 l 1
 32 244 l 1
 75 314 l 1
 104 381 l 1
 129 419 l 1
 139 454 l 1
 212 619 l 1
 226 638 l 1
 253 711 l 1
 271 745 l 1
 322 721 l 1
 313 694 l 1
 278 654 l 1
EndSplineSet
Validated: 1
EndChar

StartChar: seven
Encoding: 55 55 26
Width: 360
GlyphClass: 1
Flags: MW
HStem: -12 21G<124 124> 692 39<133 133> 716 20G<50 50>
VStem: 38 12 69 57
LayerCount: 2
Fore
SplineSet
194 434 m 1xd0
 208 484 l 1
 267 687 l 1
 256 691 l 1
 256 690 l 1
 180 694 l 1
 161 701 l 1
 133 692 l 1
 54 678 l 1
 36 684 l 1xd0
 40 729 l 1
 50 736 l 1xb0
 104 731 l 1
 241 731 l 1
 301 733 l 1xd0
 315 734 l 1
 328 705 l 1
 296 629 l 1
 206 333 l 1
 206 334 l 1
 137 50 l 1
 128 26 l 2
 128 22 127 17 127 13 c 2
 127 0 l 1
 124 -12 l 1
 72 -3 l 1
 67 7 l 1
 72 24 l 1
 99 76 l 1
 91 84 l 1
 117 174 l 1xb8
 171 323 l 1
 180 344 l 2
 179 345 178 348 178 349 c 2
 178 357 l 1
 183 376 l 2
 184 385 186 395 188 405 c 2
 194 434 l 1xd0
EndSplineSet
Validated: 1
EndChar

StartChar: eight
Encoding: 56 56 27
Width: 423
GlyphClass: 1
Flags: MW
HStem: -12 21G<237 237> 730 20G<193 193>
VStem: 40 38
LayerCount: 2
Fore
SplineSet
190 375 m 1
 144 429 l 1
 121 453 l 1
 110 478 l 1
 93 480 l 1
 40 542 l 1
 41 578 l 1
 137 674 l 1
 193 750 l 1
 231 744 l 1
 235 738 l 1
 261 702 l 1
 278 684 l 1
 357 601 l 1
 357 602 l 1
 377 584 l 1
 383 545 l 1
 347 503 l 1
 300 456 l 1
 292 442 l 1
 242 385 l 1
 292 336 l 1
 343 275 l 1
 382 240 l 1
 400 225 l 1
 404 185 l 1
 349 125 l 1
 312 96 l 1
 312 97 l 1
 268 31 l 1
 237 -12 l 1
 200 -7 l 1
 144 64 l 1
 39 168 l 1
 41 222 l 1
 86 262 l 1
 142 318 l 1
 190 375 l 1
315 247 m 1
 237 328 l 1
 216 351 l 1
 164 291 l 1
 124 243 l 1
 111 238 l 1
 111 239 l 1
 78 199 l 1
 136 144 l 1
 137 124 l 1
 167 110 l 1
 194 76 l 1
 229 47 l 1
 283 92 l 1
 327 145 l 1
 349 180 l 1
 359 197 l 1
 315 247 l 1
147 483 m 1
 218 404 l 1
 297 498 l 1
 306 503 l 1
 306 502 l 1
 318 530 l 1
 337 555 l 1
 299 598 l 1
 203 699 l 1
 167 657 l 1
 145 630 l 1
 131 627 l 1
 80 561 l 1
 134 491 l 1
 134 492 l 1
 147 483 l 1
EndSplineSet
Validated: 1
EndChar

StartChar: nine
Encoding: 57 57 28
Width: 431
GlyphClass: 1
Flags: MW
HStem: -4 21G<167 167> 689 51<201 201> 721 20G<233 233>
VStem: 35 40 313 91
LayerCount: 2
Fore
SplineSet
249 275 m 1xb8
 249 302 l 1
 297 383 l 1
 306 407 318 435 327 457 c 2
 357 520 l 1
 312 567 l 1
 314 584 l 1
 291 593 l 1
 234 655 l 1
 201 689 l 1
 126 597 l 1xd8
 107 580 l 1
 98 551 l 1
 75 514 l 1
 134 452 l 1
 197 402 l 1
 197 403 l 1
 238 382 l 1
 215 359 l 1
 197 336 l 1
 137 396 l 1
 62 458 l 2
 54 465 43 477 36 484 c 1
 34 528 l 1
 78 578 l 1
 131 655 l 1
 191 740 l 1
 214 740 l 1
 233 741 l 1
 284 671 l 1
 368 584 l 1
 403 550 l 1
 405 512 l 1
 354 424 l 1
 325 368 l 1
 288 286 l 1
 245 187 l 1
 167 -4 l 1
 112 19 l 1
 122 42 l 1
 182 136 l 1
 196 178 l 1
 215 189 l 1
 212 210 l 1
 249 275 l 1xb8
EndSplineSet
Validated: 1
EndChar

StartChar: colon
Encoding: 58 58 29
Width: 129
GlyphClass: 1
Flags: MW
HStem: -2 21G<53 53> 354 10
VStem: 20 88
LayerCount: 2
Fore
SplineSet
109 409 m 1
 109 398 l 1
 87 380 l 1
 69 354 l 1
 60 355 l 1
 53 365 l 1
 54 371 l 1
 55 370 l 1
 53 373 l 2
 52 373 47 375 46 375 c 2
 20 397 l 1
 21 410 l 1
 44 430 l 2
 49 437 57 444 62 451 c 1
 73 450 l 1
 83 434 l 1
 88 419 l 2
 90 419 94 421 96 421 c 2
 109 409 l 1
109 42 m 1
 109 31 l 1
 87 13 l 1
 69 -13 l 1
 60 -12 l 1
 53 -2 l 1
 54 4 l 1
 55 3 l 1
 53 6 l 2
 52 6 47 8 46 8 c 2
 20 30 l 1
 21 43 l 1
 44 63 l 2
 49 70 57 77 62 84 c 1
 73 83 l 1
 83 67 l 1
 88 52 l 2
 90 52 94 54 96 54 c 2
 109 42 l 1
EndSplineSet
Validated: 1
EndChar

StartChar: semicolon
Encoding: 59 59 30
Width: 142
GlyphClass: 1
Flags: MW
HStem: 354 10
VStem: 28 88
LayerCount: 2
Fore
SplineSet
117 409 m 1
 117 398 l 1
 95 380 l 1
 77 354 l 1
 68 355 l 1
 61 365 l 1
 62 371 l 1
 63 370 l 1
 61 373 l 2
 60 373 55 375 54 375 c 2
 28 397 l 1
 29 410 l 1
 52 430 l 2
 57 437 65 444 70 451 c 1
 81 450 l 1
 91 434 l 1
 96 419 l 2
 98 419 102 421 104 421 c 2
 117 409 l 1
27 -42 m 1
 54 -6 l 1
 57 19 l 1
 55 19 54 20 54 20 c 1
 28 42 l 1
 29 55 l 1
 52 75 l 2
 57 82 65 89 70 96 c 1
 81 95 l 1
 91 79 l 1
 96 64 l 2
 98 64 102 66 104 66 c 2
 117 54 l 1
 117 43 l 1
 113 39 l 1
 97 7 l 1
 62 -46 l 1
 38 -81 l 1
 26 -89 l 1
 0 -70 l 1
 6 -58 l 1
 27 -42 l 1
EndSplineSet
Validated: 1
EndChar

StartChar: less
Encoding: 60 60 31
Width: 370
GlyphClass: 1
Flags: MW
HStem: 168 389<315 321>
VStem: 22 325<218 378>
LayerCount: 2
Fore
SplineSet
99 424 m 1
 146 449 l 1
 171 458 l 1
 210 489 l 1
 256 518 l 1
 288 543 l 1
 315 557 l 1
 337 539 l 1
 342 507 l 1
 293 488 l 1
 254 473 l 1
 203 442 l 1
 174 433 l 1
 89 372 l 1
 83 362 l 1
 181 292 l 1
 209 281 l 1
 294 234 l 1
 316 228 l 1
 347 218 l 1
 336 192 l 1
 321 168 l 1
 307 170 l 1
 285 187 l 1
 271 201 l 1
 271 200 l 1
 159 264 l 1
 110 296 l 1
 94 296 l 1
 77 312 l 1
 77 311 l 1
 26 338 l 1
 24 344 l 1
 22 378 l 1
 35 380 l 1
 53 394 l 1
 99 424 l 1
EndSplineSet
Validated: 1
EndChar

StartChar: equal
Encoding: 61 61 32
Width: 370
GlyphClass: 1
Flags: MW
HStem: 265 38 421 37
VStem: 18 334<260 465 418 465 445 465>
LayerCount: 2
Fore
SplineSet
51 463 m 1
 173 454 l 1
 199 449 l 1
 262 455 l 1
 300 457 l 1
 329 465 l 1
 352 465 l 1
 347 422 l 1
 331 414 l 1
 270 421 l 1
 254 424 l 1
 206 418 l 1
 85 424 l 1
 57 418 l 1
 28 416 l 1
 18 418 l 1
 19 435 l 1
 18 445 l 1
 24 467 l 1
 51 463 l 1
70 303 m 1
 158 303 l 1
 177 300 l 1
 344 311 l 1
 347 264 l 1
 331 256 l 1
 228 267 l 2
 223 267 216 265 211 265 c 2
 80 266 l 1
 51 259 l 1
 28 258 l 1
 18 260 l 1
 21 282 l 2
 21 287 19 296 19 300 c 2
 24 308 l 1
 44 310 l 1
 70 303 l 1
EndSplineSet
Validated: 1
EndChar

StartChar: greater
Encoding: 62 62 33
Width: 370
GlyphClass: 1
Flags: MW
HStem: 167 388<53 59>
VStem: 28 313<379 508>
LayerCount: 2
Fore
SplineSet
266 299 m 1
 218 274 l 1
 193 265 l 1
 154 234 l 1
 119 205 l 1
 86 181 l 1
 59 167 l 1
 37 185 l 1
 33 219 l 1
 81 237 l 1
 121 250 l 1
 161 283 l 1
 190 295 l 1
 276 355 l 1
 281 366 l 1
 183 432 l 1
 155 442 l 1
 80 489 l 1
 58 495 l 1
 28 508 l 1
 37 531 l 1
 53 555 l 1
 67 553 l 1
 93 532 l 1
 103 523 l 1
 103 524 l 1
 205 455 l 1
 254 426 l 1
 271 426 l 1
 287 411 l 1
 287 412 l 1
 339 385 l 1
 341 379 l 1
 340 346 l 1
 329 341 l 1
 293 317 l 1
 266 299 l 1
EndSplineSet
Validated: 1
EndChar

StartChar: question
Encoding: 63 63 34
Width: 341
GlyphClass: 1
Flags: MW
HStem: 219 21G 740 20G<157 157>
LayerCount: 2
Fore
SplineSet
190 398 m 2
 196 310 l 1
 185 299 l 1
 189 291 195 280 198 272 c 2
 207 244 l 1
 195 218 l 1
 142 231 l 1
 146 271 l 2
 147 300 150 328 151 357 c 2
 148 409 l 1
 165 427 l 2
 175 441 186 458 197 473 c 2
 231 504 l 1
 230 504 l 1
 246 531 l 1
 266 569 l 1
 195 667 l 1
 196 667 l 1
 166 695 l 1
 166 694 l 1
 147 699 l 2
 145 698 142 696 141 696 c 2
 122 681 l 1
 122 682 l 1
 102 663 l 1
 103 663 l 1
 78 625 l 1
 64 581 l 1
 49 579 l 1
 27 597 l 1
 20 613 l 1
 74 667 l 1
 143 739 l 1
 142 739 l 1
 157 760 l 1
 197 752 l 1
 229 701 l 1
 225 686 l 1
 258 660 l 1
 312 603 l 1
 309 567 l 1
 224 457 l 1
 195 413 l 2
 194 408 191 402 190 398 c 2
226 41 m 1
 224 32 l 1
 203 12 l 1
 204 12 l 1
 183 -17 l 1
 173 -13 l 1
 165 -3 l 1
 166 4 l 1
 167 3 l 1
 165 6 l 2
 164 6 159 8 158 8 c 2
 133 31 l 1
 136 42 l 1
 159 66 l 1
 158 66 l 1
 178 91 l 1
 187 89 l 1
 199 73 l 1
 207 58 l 1
 209 58 l 1
 226 41 l 1
EndSplineSet
Validated: 1
EndChar

StartChar: at
Encoding: 64 64 35
Width: 566
GlyphClass: 1
Flags: MW
HStem: 56 623<278 287>
VStem: -4 555<366 452>
LayerCount: 2
Fore
SplineSet
322 676 m 1
 403 587 l 1
 450 539 l 1
 451 540 l 1
 535 468 l 1
 551 452 l 1
 546 422 l 1
 434 328 l 1
 411 332 l 1
 408 309 l 1
 368 278 l 1
 321 225 l 1
 292 229 l 1
 235 296 l 1
 224 314 l 1
 183 345 l 1
 170 360 l 1
 172 383 l 1
 199 403 l 1
 212 417 l 1
 247 448 l 1
 288 494 l 1
 316 497 l 1
 334 475 l 1
 333 475 l 1
 389 410 l 1
 428 373 l 1
 479 418 l 1
 502 440 l 1
 473 468 l 1
 474 484 l 1
 450 488 l 1
 406 532 l 1
 390 551 l 1
 328 608 l 1
 303 630 l 1
 236 561 l 1
 111 439 l 1
 101 446 l 1
 98 432 l 1
 57 381 l 1
 49 373 l 1
 64 353 l 1
 63 349 l 1
 161 248 l 1
 165 230 l 1
 183 226 l 1
 288 115 l 1
 306 105 l 1
 339 129 l 1
 406 192 l 1
 494 282 l 1
 512 268 l 1
 527 246 l 1
 516 232 l 1
 447 176 l 1
 432 179 l 1
 431 163 l 1
 377 111 l 1
 318 58 l 1
 278 56 l 1
 269 74 l 1
 146 202 l 1
 130 230 l 1
 117 244 l 1
 22 335 l 1
 -4 366 l 1
 0 396 l 1
 44 426 l 1
 51 439 l 1
 169 552 l 1
 219 604 l 1
 261 654 l 1
 287 679 l 1
 322 676 l 1
309 268 m 1
 363 318 l 1
 398 348 l 1
 340 412 l 1
 300 449 l 1
 294 444 l 1
 218 367 l 1
 224 363 l 1
 256 325 l 1
 258 314 l 1
 266 312 l 1
 309 268 l 1
EndSplineSet
Validated: 1
EndChar

StartChar: A
Encoding: 65 65 36
Width: 415
GlyphClass: 1
Flags: MW
HStem: -8 21G<344 350 344 344> 721 20G<179 179>
LayerCount: 2
Fore
SplineSet
304 195 m 1
 292 231 l 1
 278 229 l 1
 260 226 l 1
 250 225 l 1
 223 208 l 1
 159 189 l 1
 134 181 l 1
 129 179 l 1
 115 174 l 1
 116 170 l 1
 101 80 l 1
 100 74 l 1
 100 36 l 1
 94 -7 l 1
 55 -4 l 1
 38 12 l 1
 64 121 l 1
 74 182 l 1
 87 198 l 1
 86 201 l 1
 86 221 l 1
 110 353 l 1
 114 374 l 1
 119 395 l 1
 119 407 l 1
 120 419 l 1
 149 565 l 1
 162 594 l 1
 156 600 l 1
 162 642 l 1
 169 686 l 1
 179 741 l 1
 233 738 l 1
 230 715 l 1
 235 701 l 1
 239 687 l 1
 272 533 l 1
 268 516 l 1
 270 508 l 1
 273 499 l 1
 331 244 l 1
 331 226 l 1
 358 126 l 1
 367 58 l 1
 384 8 l 1
 350 -8 l 1
 344 -8 l 1
 330 -3 l 1
 317 100 l 1
 327 109 l 1
 315 123 l 1
 310 159 l 1
 307 168 l 1
 304 195 l 1
164 448 m 1
 143 340 l 1
 131 271 l 1
 129 261 l 1
 127 251 l 1
 124 221 l 1
 137 221 l 1
 142 222 l 1
 164 223 l 1
 165 226 l 1
 166 230 l 1
 234 252 l 1
 263 261 l 1
 276 267 l 1
 288 273 l 1
 287 273 l 1
 282 281 l 1
 256 408 l 1
 248 463 l 1
 211 633 l 1
 206 653 l 1
 205 635 l 1
 171 476 l 1
 161 460 l 1
 164 448 l 1
EndSplineSet
Validated: 1
EndChar

StartChar: B
Encoding: 66 66 37
Width: 392
GlyphClass: 1
Flags: MW
HStem: -15 21G<144 144> 729 20G<136 136>
LayerCount: 2
Fore
SplineSet
210 47 m 1
 144 -15 l 1
 111 -6 l 1
 79 1 l 1
 88 128 l 1
 84 180 l 1
 84 337 l 1
 90 390 l 1
 86 506 l 1
 82 625 l 1
 85 665 l 1
 82 677 l 1
 80 689 l 1
 78 726 l 1
 136 749 l 1
 270 627 l 1
 336 573 l 1
 346 565 l 1
 343 521 l 1
 284 456 l 1
 197 377 l 1
 200 373 l 1
 233 343 l 1
 256 324 l 1
 357 235 l 1
 366 225 l 1
 359 179 l 1
 322 139 l 1
 280 104 l 1
 243 76 l 1
 226 61 l 1
 210 47 l 1
181 335 m 1
 153 356 l 1
 155 390 l 1
 237 467 l 1
 249 468 l 1
 263 494 l 1
 303 537 l 1
 303 541 l 1
 264 575 l 1
 240 599 l 1
 130 696 l 1
 128 696 l 1
 127 689 l 1
 126 623 l 1
 126 558 l 1
 122 501 l 1
 123 470 l 1
 124 440 l 1
 130 428 l 1
 125 356 l 1
 129 304 l 1
 130 171 l 1
 121 165 l 1
 131 136 l 1
 130 66 l 1
 136 34 l 1
 137 34 l 1
 223 99 l 1
 252 130 l 1
 268 139 l 1
 306 181 l 1
 310 190 l 1
 320 202 l 1
 299 224 l 1
 276 248 l 1
 249 275 l 1
 181 335 l 1
EndSplineSet
Validated: 1
EndChar

StartChar: C
Encoding: 67 67 38
Width: 330
GlyphClass: 1
Flags: MW
HStem: -9 21G<254 254> 726 20G<262 262>
LayerCount: 2
Fore
SplineSet
54 305 m 1
 31 336 l 1
 28 392 l 1
 105 500 l 1
 172 602 l 1
 186 609 l 1
 183 623 l 1
 234 711 l 1
 244 713 l 1
 250 731 l 1
 262 746 l 1
 302 720 l 1
 282 688 l 1
 251 653 l 1
 240 627 l 1
 151 509 l 1
 116 448 l 1
 97 410 l 1
 72 369 l 1
 83 348 l 1
 93 330 l 1
 115 300 l 1
 128 261 l 1
 139 259 l 1
 171 211 l 1
 230 119 l 1
 251 91 l 1
 284 51 l 1
 300 26 l 1
 270 0 l 1
 254 -9 l 1
 236 15 l 1
 229 44 l 1
 219 50 l 1
 141 165 l 1
 137 186 l 1
 95 237 l 1
 54 305 l 1
EndSplineSet
Validated: 1
EndChar

StartChar: D
Encoding: 68 68 39
Width: 388
GlyphClass: 1
Flags: MW
HStem: -9 21G<136 136> 728 20G<119 119>
LayerCount: 2
Fore
SplineSet
205 90 m 1
 136 -9 l 1
 123 -4 l 1
 102 -3 l 1
 81 -2 l 1
 85 50 l 1
 89 293 l 1
 85 334 l 1
 81 614 l 1
 84 641 l 1
 77 655 l 1
 75 710 l 1
 74 732 l 1
 104 741 l 1
 119 748 l 1
 140 720 l 1
 172 680 l 1
 181 662 l 1
 184 659 l 1
 197 644 l 1
 225 604 l 1
 228 584 l 1
 265 545 l 1
 357 420 l 1
 370 408 l 1
 370 356 l 1
 356 332 l 1
 310 268 l 1
 294 260 l 1
 295 260 l 1
 297 254 l 1
 300 249 l 1
 241 159 l 1
 205 90 l 1
127 483 m 1
 118 459 l 1
 123 417 l 1
 129 377 l 1
 121 172 l 1
 122 151 l 1
 123 119 l 1
 127 69 l 1
 129 57 l 1
 131 58 l 1
 164 107 l 1
 180 127 l 1
 204 166 l 1
 219 184 l 1
 274 277 l 1
 314 335 l 1
 332 373 l 1
 324 390 l 1
 313 406 l 1
 305 419 l 1
 278 463 l 1
 244 502 l 1
 186 583 l 1
 120 674 l 1
 121 660 l 1
 122 641 l 1
 126 570 l 1
 127 483 l 1
EndSplineSet
Validated: 1
EndChar

StartChar: E
Encoding: 69 69 40
Width: 344
GlyphClass: 1
Flags: MW
HStem: -3 21G<305 305> 715 20G<105 160 160 160 233 233>
LayerCount: 2
Fore
SplineSet
298 685 m 1
 279 685 l 1
 249 693 l 1
 233 691 l 1
 171 696 l 1
 159 696 l 1
 147 697 l 1
 125 693 l 1
 127 684 l 1
 130 675 l 1
 131 657 l 1
 129 629 l 1
 127 530 l 1
 120 518 l 1
 121 460 l 1
 125 391 l 1
 195 390 l 1
 245 396 l 1
 273 397 l 1
 281 389 l 1
 276 367 l 1
 273 347 l 1
 246 349 l 1
 151 354 l 1
 129 355 l 1
 122 218 l 1
 129 188 l 1
 123 168 l 1
 128 163 l 1
 130 56 l 1
 131 45 l 1
 163 38 l 1
 179 38 l 1
 267 45 l 1
 294 50 l 1
 316 47 l 1
 312 4 l 1
 305 -3 l 1
 247 -2 l 1
 184 4 l 1
 135 4 l 1
 127 -1 l 1
 78 0 l 1
 74 19 l 1
 78 57 l 1
 80 100 l 1
 82 145 l 1
 86 168 l 1
 85 217 l 1
 84 269 l 1
 91 284 l 1
 87 287 l 1
 80 389 l 1
 83 428 l 1
 83 510 l 1
 84 593 l 1
 83 657 l 1
 88 677 l 1
 83 680 l 1
 80 732 l 1
 105 735 l 1
 160 735 l 1
 177 732 l 1
 233 735 l 1
 300 736 l 1
 301 718 l 1
 298 685 l 1
EndSplineSet
Validated: 1
EndChar

StartChar: F
Encoding: 70 70 41
Width: 338
GlyphClass: 1
Flags: MW
HStem: -5 21G<126 126> 718 20G<309 309>
LayerCount: 2
Fore
SplineSet
84 278 m 1
 87 396 l 1
 87 426 l 1
 88 431 l 1
 84 614 l 1
 89 640 l 1
 78 643 l 1
 80 697 l 1
 77 734 l 1
 103 735 l 1
 143 732 l 1
 170 732 l 1
 226 736 l 1
 309 738 l 1
 309 714 l 1
 304 686 l 1
 287 685 l 1
 220 692 l 1
 183 694 l 1
 146 694 l 1
 132 691 l 1
 125 627 l 1
 118 565 l 1
 124 546 l 1
 128 388 l 1
 135 388 l 1
 152 387 l 1
 224 390 l 1
 283 397 l 1
 286 379 l 1
 283 350 l 1
 279 337 l 1
 268 338 l 1
 249 347 l 1
 238 344 l 1
 124 350 l 1
 124 324 l 1
 125 297 l 1
 128 253 l 1
 127 165 l 1
 135 73 l 1
 133 38 l 1
 138 24 l 1
 138 -3 l 1
 126 -5 l 1
 76 1 l 1
 80 74 l 1
 87 146 l 1
 81 173 l 1
 84 278 l 1
EndSplineSet
Validated: 1
EndChar

StartChar: G
Encoding: 71 71 42
Width: 386
GlyphClass: 1
Flags: MW
HStem: -7 21G<263 263> 727 20G<269 269>
LayerCount: 2
Fore
SplineSet
267 412 m 1
 315 415 l 1
 320 406 l 1
 309 326 l 1
 314 320 l 1
 314 47 l 1
 308 35 l 1
 311 30 l 1
 314 27 l 1
 315 -3 l 1
 263 -7 l 1
 256 11 l 1
 251 20 l 1
 239 41 l 1
 197 98 l 1
 152 172 l 1
 157 185 l 1
 158 185 l 1
 139 191 l 1
 117 229 l 1
 83 268 l 1
 31 341 l 1
 33 395 l 1
 37 396 l 1
 43 405 l 1
 75 454 l 1
 112 507 l 1
 139 545 l 1
 171 583 l 1
 181 614 l 1
 237 688 l 1
 238 695 l 1
 238 701 l 1
 269 747 l 1
 299 723 l 1
 314 714 l 1
 300 693 l 1
 270 660 l 1
 174 531 l 1
 115 455 l 1
 93 406 l 1
 71 374 l 1
 125 287 l 1
 122 278 l 1
 141 263 l 1
 188 200 l 1
 228 133 l 1
 273 70 l 1
 274 73 l 1
 275 79 l 1
 272 139 l 1
 276 164 l 1
 276 310 l 1
 273 339 l 1
 270 353 l 1
 267 412 l 1
EndSplineSet
Validated: 1
EndChar

StartChar: H
Encoding: 72 72 43
Width: 467
GlyphClass: 1
Flags: MW
HStem: -3 21G<117 117> -1 21G<132 132 339 381 339 339> 719 20G<84 84>
LayerCount: 2
Fore
SplineSet
80 150 m 1xa0
 90 300 l 1
 84 420 l 1
 89 527 l 1
 82 593 l 1
 82 597 l 1
 78 662 l 1
 81 687 l 1
 77 707 l 1
 73 727 l 1
 84 739 l 1
 132 733 l 1
 128 679 l 1
 121 630 l 1
 122 555 l 1
 121 512 l 1
 128 398 l 1
 129 370 l 1
 213 398 l 1
 228 397 l 1
 247 404 l 1
 264 416 l 1
 271 416 l 1
 308 433 l 1
 334 447 l 1
 340 493 l 1
 337 594 l 1
 335 693 l 1
 331 727 l 1
 335 736 l 1
 358 735 l 1
 387 733 l 1
 388 710 l 1
 382 649 l 1
 377 558 l 1
 373 461 l 1
 377 410 l 1
 379 389 l 1
 382 196 l 1
 384 59 l 1
 390 30 l 1
 391 1 l 1
 381 -1 l 1
 339 -1 l 1
 334 11 l 1
 341 74 l 1
 346 97 l 1
 338 110 l 1
 338 324 l 1
 333 338 l 1
 332 394 l 1
 243 370 l 1
 238 370 l 1
 136 328 l 1
 129 325 l 1
 130 318 l 1
 124 120 l 1
 123 116 l 1
 129 58 l 1
 134 10 l 1
 132 -1 l 1x60
 117 -3 l 1
 75 1 l 1
 76 27 l 1
 80 150 l 1xa0
EndSplineSet
Validated: 1
EndChar

StartChar: I
Encoding: 73 73 44
Width: 217
GlyphClass: 1
Flags: MW
HStem: -2 21G<114 114> 723 20G<98 98>
LayerCount: 2
Fore
SplineSet
95 439 m 1
 87 471 l 1
 83 710 l 1
 80 738 l 1
 98 743 l 1
 138 735 l 1
 135 684 l 1
 130 655 l 1
 127 515 l 1
 124 461 l 1
 128 412 l 1
 130 383 l 1
 131 364 l 1
 132 359 l 1
 132 62 l 1
 134 41 l 1
 138 21 l 1
 136 4 l 1
 114 -2 l 1
 95 -1 l 1
 79 0 l 1
 88 64 l 1
 88 344 l 1
 91 378 l 1
 95 439 l 1
EndSplineSet
Validated: 1
EndChar

StartChar: J
Encoding: 74 74 45
Width: 263
GlyphClass: 1
Flags: MW
HStem: -19 21G<53 53> 716 20G<180 180>
LayerCount: 2
Fore
SplineSet
140 436 m 1
 133 496 l 1
 128 683 l 1
 123 709 l 1
 123 734 l 1
 180 736 l 1
 184 725 l 1
 171 636 l 1
 175 342 l 1
 168 334 l 1
 166 317 l 1
 185 117 l 1
 172 94 l 1
 138 72 l 1
 133 62 l 1
 129 50 l 1
 53 -19 l 1
 20 12 l 1
 20 39 l 1
 52 51 l 1
 51 51 l 1
 65 60 l 1
 75 66 l 1
 106 85 l 1
 135 123 l 1
 132 143 l 1
 136 253 l 1
 136 305 l 1
 135 314 l 1
 134 376 l 1
 140 436 l 1
EndSplineSet
Validated: 1
EndChar

StartChar: K
Encoding: 75 75 46
Width: 416
GlyphClass: 1
Flags: MW
HStem: -11 21G<346 346> 722 20G<328 328>
LayerCount: 2
Fore
SplineSet
261 227 m 1
 305 149 l 1
 343 84 l 1
 344 71 l 1
 343 71 l 1
 358 61 l 1
 388 19 l 1
 346 -11 l 1
 327 -8 l 1
 300 56 l 1
 236 177 l 1
 234 192 l 1
 226 207 l 1
 200 254 l 1
 201 269 l 1
 196 269 l 1
 192 268 l 1
 157 328 l 1
 133 369 l 1
 145 398 l 1
 166 436 l 1
 177 446 l 1
 189 472 l 1
 250 576 l 1
 303 678 l 1
 328 742 l 1
 372 724 l 1
 384 711 l 1
 352 677 l 1
 324 635 l 1
 277 561 l 1
 268 551 l 1
 272 546 l 1
 189 403 l 1
 180 378 l 1
 194 357 l 1
 261 227 l 1
73 733 m 1
 120 739 l 1
 134 735 l 1
 122 488 l 1
 118 429 l 1
 128 357 l 1
 124 163 l 1
 128 110 l 1
 129 57 l 1
 131 40 l 1
 134 25 l 1
 133 -1 l 1
 105 -3 l 1
 74 -2 l 1
 76 60 l 1
 90 64 l 1
 89 64 l 1
 79 89 l 1
 83 145 l 1
 84 160 l 1
 85 164 l 1
 89 400 l 1
 86 431 l 1
 84 462 l 1
 79 596 l 1
 81 682 l 1
 77 707 l 1
 73 733 l 1
EndSplineSet
Validated: 1
EndChar

StartChar: L
Encoding: 76 76 47
Width: 325
GlyphClass: 1
Flags: MW
HStem: -4 21G<291 291> 0 21G<77 77 155 210 155 155> 717 20G<132 132>
LayerCount: 2
Fore
SplineSet
245 43 m 1x60
 270 51 l 1
 300 55 l 1
 304 46 l 1
 299 4 l 1
 291 -4 l 1xa0
 219 1 l 1
 210 0 l 1
 155 0 l 1
 143 2 l 1
 95 -2 l 1
 77 0 l 1
 77 39 l 1
 85 61 l 1
 79 92 l 1
 87 269 l 1
 84 629 l 1
 90 652 l 1
 80 660 l 1
 74 732 l 1
 101 732 l 1
 132 737 l 1
 137 733 l 1
 136 676 l 1
 132 639 l 1
 127 519 l 1
 120 400 l 1
 120 350 l 1
 121 337 l 1
 123 251 l 1
 123 246 l 1
 126 191 l 1
 117 187 l 1
 118 187 l 1
 126 173 l 1
 131 97 l 1
 132 56 l 1
 127 51 l 1
 138 41 l 1
 245 43 l 1x60
EndSplineSet
Validated: 1
EndChar

StartChar: M
Encoding: 77 77 48
Width: 481
GlyphClass: 1
Flags: MW
HStem: -3 21G<357 357> 721 20G<363 363>
LayerCount: 2
Fore
SplineSet
157 664 m 1
 214 566 l 1
 217 563 l 1
 227 541 l 1
 231 530 l 1
 236 521 l 1
 240 530 l 1
 246 540 l 1
 275 584 l 1
 308 641 l 1
 315 660 l 1
 319 662 l 1
 318 662 l 1
 340 701 l 1
 363 741 l 1
 391 740 l 1
 402 731 l 1
 395 594 l 1
 390 565 l 1
 394 550 l 1
 405 76 l 1
 407 39 l 1
 410 -1 l 1
 357 -3 l 1
 351 3 l 1
 353 29 l 1
 360 101 l 1
 360 228 l 1
 365 243 l 1
 362 250 l 1
 355 301 l 1
 362 534 l 1
 359 596 l 1
 358 654 l 1
 356 652 l 1
 347 636 l 1
 314 588 l 1
 289 547 l 1
 281 529 l 1
 277 522 l 1
 266 504 l 1
 267 504 l 1
 250 468 l 1
 243 470 l 1
 219 475 l 1
 211 504 l 1
 199 522 l 1
 156 596 l 1
 142 622 l 1
 131 636 l 1
 119 652 l 1
 118 651 l 1
 122 614 l 1
 122 588 l 1
 123 580 l 1
 120 502 l 1
 116 491 l 1
 121 486 l 1
 121 351 l 1
 114 302 l 1
 123 174 l 1
 132 17 l 1
 130 0 l 1
 74 -2 l 1
 71 13 l 1
 77 51 l 1
 78 81 l 1
 79 86 l 1
 87 94 l 1
 80 96 l 1
 79 126 l 1
 85 552 l 1
 81 603 l 1
 77 650 l 1
 82 670 l 1
 78 685 l 1
 74 701 l 1
 73 732 l 1
 105 738 l 1
 114 740 l 1
 157 664 l 1
EndSplineSet
Validated: 1
EndChar

StartChar: N
Encoding: 78 78 49
Width: 469
GlyphClass: 1
Flags: MW
HStem: -5 21G<106 106 346 346> 725 20G<131 131>
LayerCount: 2
Fore
SplineSet
383 63 m 1
 390 6 l 1
 385 -4 l 1
 346 -5 l 1
 336 -3 l 1
 339 55 l 1
 339 99 l 1
 336 157 l 1
 339 237 l 1
 348 239 l 1
 343 262 l 1
 338 286 l 1
 337 373 l 1
 313 422 l 1
 300 450 l 1
 285 477 l 1
 253 519 l 1
 211 578 l 1
 187 608 l 1
 178 619 l 1
 153 651 l 1
 137 666 l 1
 134 664 l 1
 133 658 l 1
 133 567 l 1
 124 504 l 1
 125 501 l 1
 132 485 l 1
 130 244 l 1
 134 205 l 1
 138 167 l 1
 138 53 l 1
 140 37 l 1
 138 -3 l 1
 106 -5 l 1
 81 -1 l 1
 86 57 l 1
 85 69 l 1
 85 91 l 1
 89 172 l 1
 92 241 l 1
 101 279 l 1
 97 286 l 1
 91 302 l 1
 94 520 l 1
 91 586 l 1
 89 651 l 1
 84 698 l 1
 84 732 l 1
 131 745 l 1
 219 627 l 1
 246 580 l 1
 255 574 l 1
 331 470 l 1
 334 470 l 1
 338 476 l 1
 335 552 l 1
 334 626 l 1
 332 659 l 1
 342 662 l 1
 341 662 l 1
 333 675 l 1
 332 734 l 1
 367 735 l 1
 387 731 l 1
 385 683 l 1
 373 417 l 1
 376 336 l 1
 385 101 l 1
 383 63 l 1
EndSplineSet
Validated: 1
EndChar

StartChar: O
Encoding: 79 79 50
Width: 423
GlyphClass: 1
Flags: MW
HStem: -10 21G<230 230> 721 20G<239 239>
LayerCount: 2
Fore
SplineSet
239 741 m 1
 255 695 l 1
 314 561 l 1
 324 524 l 1
 331 515 l 1
 338 515 l 1
 357 466 l 1
 397 394 l 1
 394 350 l 1
 345 247 l 1
 306 168 l 1
 249 28 l 1
 238 -1 l 1
 230 -10 l 1
 188 -4 l 1
 186 16 l 1
 144 110 l 1
 140 150 l 1
 125 150 l 1
 103 201 l 1
 83 245 l 1
 64 290 l 1
 38 348 l 1
 32 383 l 1
 41 393 l 1
 102 533 l 1
 116 547 l 1
 117 556 l 1
 117 561 l 1
 118 564 l 1
 181 708 l 1
 186 718 l 1
 192 736 l 1
 203 738 l 1
 239 741 l 1
223 64 m 1
 280 195 l 1
 296 208 l 1
 303 234 l 1
 350 369 l 1
 346 381 l 1
 340 410 l 1
 332 417 l 1
 328 427 l 1
 318 445 l 1
 253 595 l 1
 259 608 l 1
 255 608 l 1
 249 609 l 1
 218 675 l 1
 212 680 l 1
 211 678 l 1
 210 671 l 1
 195 638 l 1
 132 519 l 1
 119 510 l 1
 120 510 l 1
 117 482 l 1
 80 394 l 1
 79 390 l 1
 79 385 l 1
 78 377 l 1
 80 373 l 1
 84 364 l 1
 96 334 l 1
 97 331 l 1
 122 266 l 1
 152 203 l 1
 188 125 l 1
 214 58 l 1
 216 59 l 1
 224 64 l 1
 223 64 l 1
EndSplineSet
Validated: 1
EndChar

StartChar: P
Encoding: 80 80 51
Width: 365
GlyphClass: 1
Flags: MW
HStem: -3 21G<114 114> 726 20G<124 124>
LayerCount: 2
Fore
SplineSet
217 357 m 1
 189 319 l 1
 138 263 l 1
 126 233 l 1
 128 158 l 1
 128 139 l 1
 120 128 l 1
 119 128 l 1
 128 126 l 1
 135 -1 l 1
 114 -3 l 1
 79 0 l 1
 90 162 l 1
 85 187 l 1
 86 455 l 1
 94 472 l 1
 88 471 l 1
 88 630 l 1
 86 656 l 1
 84 677 l 1
 82 728 l 1
 113 744 l 1
 124 746 l 1
 218 657 l 1
 228 639 l 1
 274 602 l 1
 347 535 l 1
 344 487 l 1
 309 456 l 1
 290 434 l 1
 270 412 l 1
 248 391 l 1
 217 357 l 1
128 383 m 1
 129 370 l 1
 127 330 l 1
 130 316 l 1
 132 317 l 1
 179 364 l 1
 210 396 l 1
 243 433 l 1
 264 460 l 1
 271 469 l 1
 303 504 l 1
 304 510 l 1
 304 515 l 1
 277 542 l 1
 240 578 l 1
 226 591 l 1
 223 601 l 1
 210 604 l 1
 132 680 l 1
 130 665 l 1
 124 558 l 1
 125 510 l 1
 126 486 l 1
 126 463 l 1
 128 383 l 1
EndSplineSet
Validated: 1
EndChar

StartChar: Q
Encoding: 81 81 52
Width: 431
GlyphClass: 1
Flags: MW
HStem: -166 21G<273 273> 726 20G<243 243>
LayerCount: 2
Fore
SplineSet
207 741 m 1
 243 746 l 1
 319 565 l 1
 355 492 l 1
 351 485 l 1
 362 482 l 1
 404 387 l 1
 398 345 l 1
 355 266 l 1
 347 247 l 1
 320 184 l 1
 313 179 l 1
 314 179 l 1
 262 49 l 1
 250 30 l 1
 247 13 l 1
 245 -5 l 1
 260 -36 l 1
 262 -52 l 1
 268 -52 l 1
 309 -127 l 1
 315 -139 l 1
 273 -166 l 1
 258 -161 l 1
 217 -54 l 1
 194 4 l 1
 168 58 l 1
 127 148 l 1
 118 183 l 1
 119 183 l 1
 109 188 l 1
 59 298 l 1
 45 339 l 1
 43 344 l 1
 35 360 l 1
 37 396 l 1
 89 497 l 1
 109 517 l 1
 115 556 l 1
 195 743 l 1
 207 741 l 1
221 58 m 1
 304 223 l 1
 359 368 l 1
 353 382 l 1
 340 416 l 1
 323 459 l 1
 308 502 l 1
 296 515 l 1
 218 683 l 1
 211 678 l 1
 209 674 l 1
 204 668 l 1
 137 533 l 1
 118 486 l 1
 112 471 l 1
 81 383 l 1
 85 372 l 1
 89 361 l 1
 90 357 l 1
 108 309 l 1
 127 261 l 1
 124 244 l 1
 123 244 l 1
 140 237 l 1
 194 111 l 1
 215 67 l 1
 219 57 l 1
 221 58 l 1
EndSplineSet
Validated: 1
EndChar

StartChar: R
Encoding: 82 82 53
Width: 396
GlyphClass: 1
Flags: MW
HStem: -10 21G<331 331> 730 20G<123 123>
LayerCount: 2
Fore
SplineSet
161 331 m 1
 241 426 l 1
 286 480 l 1
 303 515 l 1
 306 520 l 1
 271 560 l 1
 262 567 l 1
 175 649 l 1
 166 666 l 1
 152 668 l 1
 126 688 l 1
 126 672 l 1
 127 656 l 1
 120 541 l 1
 120 515 l 1
 125 498 l 1
 127 413 l 1
 122 364 l 1
 129 276 l 1
 125 188 l 1
 129 91 l 1
 122 87 l 1
 123 87 l 1
 132 69 l 1
 133 4 l 1
 114 -2 l 1
 76 1 l 1
 81 142 l 1
 88 187 l 1
 88 201 l 1
 87 216 l 1
 86 245 l 1
 89 442 l 1
 80 656 l 1
 76 733 l 1
 123 750 l 1
 284 603 l 1
 305 579 l 1
 314 577 l 1
 348 547 l 1
 350 500 l 1
 306 445 l 1
 270 409 l 1
 249 376 l 1
 208 329 l 1
 234 280 l 1
 238 262 l 1
 266 222 l 1
 302 161 l 1
 305 139 l 1
 314 131 l 1
 328 107 l 1
 350 64 l 1
 381 28 l 1
 377 12 l 1
 331 -10 l 1
 321 9 l 1
 284 100 l 1
 270 126 l 1
 230 200 l 1
 220 224 l 1
 182 284 l 1
 165 313 l 1
 161 331 l 1
EndSplineSet
Validated: 1
EndChar

StartChar: S
Encoding: 83 83 54
Width: 339
GlyphClass: 1
Flags: MW
HStem: -18 21G<109 109> 728 20G<236 236>
LayerCount: 2
Fore
SplineSet
242 239 m 1
 253 267 l 1
 210 316 l 1
 206 318 l 1
 160 370 l 1
 99 419 l 1
 75 437 l 1
 51 456 l 1
 51 511 l 1
 110 580 l 1
 138 618 l 1
 167 659 l 1
 191 694 l 1
 203 710 l 1
 224 746 l 1
 236 748 l 1
 273 723 l 1
 261 696 l 1
 221 671 l 1
 216 648 l 1
 148 565 l 1
 121 524 l 1
 96 483 l 1
 136 438 l 1
 156 422 l 1
 175 410 l 1
 276 307 l 1
 300 288 l 1
 298 237 l 1
 258 183 l 1
 221 138 l 1
 196 102 l 1
 155 46 l 1
 142 21 l 1
 129 -3 l 1
 109 -18 l 1
 69 9 l 1
 73 25 l 1
 99 48 l 1
 129 84 l 1
 158 122 l 1
 173 132 l 1
 172 132 l 1
 189 155 l 1
 242 239 l 1
EndSplineSet
Validated: 1
EndChar

StartChar: T
Encoding: 84 84 55
Width: 350
GlyphClass: 1
Flags: MW
HStem: -3 21G<173 173> 719 20G<23 23>
LayerCount: 2
Fore
SplineSet
249 735 m 1
 330 736 l 1
 334 712 l 1
 332 682 l 1
 314 683 l 1
 305 687 l 1
 262 696 l 1
 199 696 l 1
 196 658 l 1
 194 622 l 1
 191 524 l 1
 192 480 l 1
 193 468 l 1
 193 438 l 1
 194 356 l 1
 191 309 l 1
 184 303 l 1
 185 303 l 1
 190 284 l 1
 196 266 l 1
 198 67 l 1
 211 9 l 1
 197 0 l 1
 173 -3 l 1
 144 1 l 1
 144 55 l 1
 156 130 l 1
 153 137 l 1
 150 145 l 1
 155 288 l 1
 161 509 l 1
 154 561 l 1
 159 623 l 1
 155 648 l 1
 151 674 l 1
 151 695 l 1
 97 695 l 1
 84 691 l 1
 76 690 l 1
 29 681 l 1
 16 686 l 1
 23 739 l 1
 105 735 l 1
 127 734 l 1
 139 732 l 1
 151 732 l 1
 198 733 l 1
 249 735 l 1
EndSplineSet
Validated: 1
EndChar

StartChar: U
Encoding: 85 85 56
Width: 463
GlyphClass: 1
Flags: MW
HStem: -6 21G<342 342> 715 20G<90 90>
LayerCount: 2
Fore
SplineSet
94 158 m 1
 93 302 l 1
 87 418 l 1
 88 491 l 1
 96 518 l 1
 90 556 l 1
 85 720 l 1
 90 735 l 1
 140 733 l 1
 139 667 l 1
 135 633 l 1
 135 581 l 1
 136 570 l 1
 136 553 l 1
 128 510 l 1
 129 443 l 1
 130 432 l 1
 133 352 l 1
 124 223 l 1
 132 94 l 1
 136 67 l 1
 163 45 l 1
 180 42 l 1
 194 47 l 1
 221 58 l 1
 266 74 l 1
 265 74 l 1
 270 77 l 1
 305 97 l 1
 304 97 l 1
 330 112 l 1
 336 189 l 1
 339 329 l 1
 335 395 l 1
 331 461 l 1
 333 546 l 1
 341 560 l 1
 338 561 l 1
 339 561 l 1
 332 565 l 1
 328 685 l 1
 330 733 l 1
 359 734 l 1
 381 733 l 1
 385 707 l 1
 382 661 l 1
 371 651 l 1
 375 641 l 1
 380 631 l 1
 373 564 l 1
 370 495 l 1
 370 473 l 1
 369 445 l 1
 376 423 l 1
 373 187 l 1
 379 61 l 1
 389 2 l 1
 342 -6 l 1
 337 21 l 1
 332 50 l 1
 320 62 l 1
 207 10 l 1
 181 -5 l 1
 134 -4 l 1
 89 35 l 1
 88 76 l 1
 94 158 l 1
EndSplineSet
Validated: 1
EndChar

StartChar: V
Encoding: 86 86 57
Width: 412
GlyphClass: 1
Flags: MW
HStem: -6 21G<189 189> 722 20G<335 335>
LayerCount: 2
Fore
SplineSet
139 391 m 1
 169 276 l 1
 189 161 l 1
 202 110 l 1
 206 86 l 1
 208 85 l 1
 211 84 l 1
 230 176 l 1
 249 270 l 1
 261 341 l 1
 272 374 l 1
 288 478 l 1
 302 587 l 1
 316 603 l 1
 313 607 l 1
 313 633 l 1
 328 734 l 1
 335 742 l 1
 383 734 l 1
 374 704 l 1
 357 633 l 1
 348 597 l 1
 340 563 l 1
 328 474 l 1
 315 386 l 1
 301 358 l 1
 302 347 l 1
 303 342 l 1
 303 338 l 1
 266 179 l 1
 250 65 l 1
 235 -3 l 1
 213 -5 l 1
 189 -6 l 1
 178 19 l 1
 153 170 l 1
 110 380 l 1
 97 418 l 1
 94 453 l 1
 72 536 l 1
 64 612 l 1
 30 725 l 1
 52 737 l 1
 87 737 l 1
 97 644 l 1
 112 579 l 1
 105 576 l 1
 106 576 l 1
 120 549 l 1
 139 391 l 1
EndSplineSet
Validated: 1
EndChar

StartChar: W
Encoding: 87 87 58
Width: 509
GlyphClass: 1
Flags: MW
HStem: -5 21G<144 148 144 144> 722 20G<97 97>
LayerCount: 2
Fore
SplineSet
372 266 m 1
 383 390 l 1
 387 470 l 1
 391 551 l 1
 400 562 l 1
 400 598 l 1
 401 611 l 1
 399 707 l 1
 402 741 l 1
 445 737 l 1
 455 733 l 1
 433 565 l 1
 408 246 l 1
 408 230 l 1
 407 214 l 1
 406 182 l 1
 395 47 l 1
 394 41 l 1
 394 0 l 1
 372 -2 l 1
 351 -3 l 1
 348 19 l 1
 321 112 l 1
 316 131 l 1
 277 283 l 1
 274 289 l 1
 268 315 l 1
 254 374 l 1
 249 351 l 1
 244 325 l 1
 243 316 l 1
 243 308 l 1
 241 292 l 1
 231 265 l 1
 198 132 l 1
 198 119 l 1
 164 11 l 1
 163 6 l 1
 163 -3 l 1
 148 -5 l 1
 144 -5 l 1
 113 0 l 1
 113 27 l 1
 110 61 l 1
 102 236 l 1
 95 333 l 1
 102 363 l 1
 87 376 l 1
 70 621 l 1
 54 736 l 1
 79 739 l 1
 97 742 l 1
 114 731 l 1
 111 635 l 1
 120 572 l 1
 123 483 l 1
 146 134 l 1
 150 94 l 1
 151 94 l 1
 178 192 l 1
 235 454 l 1
 251 459 l 1
 277 452 l 1
 283 425 l 1
 291 364 l 1
 329 221 l 1
 331 200 l 1
 341 165 l 1
 351 134 l 1
 361 105 l 1
 363 137 l 1
 366 173 l 1
 372 266 l 1
EndSplineSet
Validated: 1
EndChar

StartChar: X
Encoding: 88 88 59
Width: 402
GlyphClass: 1
Flags: MW
HStem: -9 21G<311 321> 725 20G<329 333 333 333>
LayerCount: 2
Fore
SplineSet
43 40 m 1
 75 103 l 1
 97 161 l 1
 125 224 l 1
 127 224 l 1
 145 276 l 1
 182 383 l 1
 163 430 l 1
 149 464 l 1
 137 497 l 1
 90 606 l 1
 95 616 l 1
 82 627 l 1
 39 727 l 1
 58 739 l 1
 95 744 l 1
 117 659 l 1
 141 603 l 1
 152 559 l 1
 155 553 l 1
 158 545 l 1
 171 513 l 1
 208 427 l 1
 233 486 l 1
 260 548 l 1
 272 590 l 1
 306 676 l 1
 313 709 l 1
 320 743 l 1
 329 745 l 1
 333 745 l 1
 373 728 l 1
 340 658 l 1
 333 652 l 1
 334 652 l 1
 334 637 l 1
 291 540 l 1
 243 428 l 1
 227 384 l 1
 246 319 l 1
 279 242 l 1
 308 154 l 1
 319 136 l 1
 355 51 l 1
 368 31 l 1
 370 7 l 1
 321 -9 l 1
 311 12 l 1
 311 25 l 1
 287 92 l 1
 288 116 l 1
 289 116 l 1
 281 121 l 1
 203 328 l 1
 146 179 l 1
 120 115 l 1
 91 8 l 1
 83 -9 l 1
 63 -4 l 1
 31 9 l 1
 43 40 l 1
EndSplineSet
Validated: 1
EndChar

StartChar: Y
Encoding: 89 89 60
Width: 391
GlyphClass: 1
Flags: MW
HStem: -3 21G<215 215> 723 20G<318 318>
LayerCount: 2
Fore
SplineSet
215 -3 m 1
 166 -1 l 1
 168 29 l 1
 178 102 l 1
 181 115 l 1
 179 125 l 1
 175 267 l 1
 177 318 l 1
 173 347 l 1
 170 368 l 1
 169 376 l 1
 144 440 l 1
 133 465 l 1
 102 543 l 1
 67 623 l 1
 64 641 l 1
 22 713 l 1
 25 729 l 1
 55 737 l 1
 76 741 l 1
 87 706 l 1
 85 693 l 1
 94 682 l 1
 104 659 l 1
 123 612 l 1
 135 572 l 1
 163 494 l 1
 176 465 l 1
 196 412 l 1
 199 407 l 1
 204 404 l 1
 206 410 l 1
 212 422 l 1
 213 426 l 1
 219 441 l 1
 230 463 l 1
 248 514 l 1
 263 563 l 1
 283 604 l 1
 305 685 l 1
 314 722 l 1
 318 743 l 1
 345 740 l 1
 360 733 l 1
 371 725 l 1
 349 668 l 1
 337 651 l 1
 325 625 l 1
 313 600 l 1
 293 540 l 1
 252 430 l 1
 217 345 l 1
 217 283 l 1
 218 244 l 1
 219 232 l 1
 219 205 l 1
 215 124 l 1
 219 103 l 1
 218 60 l 1
 221 32 l 1
 224 4 l 1
 215 -3 l 1
EndSplineSet
Validated: 1
EndChar

StartChar: Z
Encoding: 90 90 61
Width: 356
GlyphClass: 1
Flags: MW
HStem: -1 21G<310 310> 715 20G<287 300 300 300>
LayerCount: 2
Fore
SplineSet
257 733 m 1
 287 735 l 1
 300 735 l 1
 304 713 l 1
 306 707 l 2
 308 703 310 696 312 693 c 1
 298 685 l 1
 299 685 l 1
 260 595 l 1
 237 512 l 1
 219 443 l 1
 169 307 l 1
 138 202 l 2
 138 201 137 198 137 194 c 2
 137 188 l 1
 103 38 l 1
 109 39 116 42 122 43 c 2
 246 44 l 1
 309 58 l 1
 315 51 l 1
 315 31 l 1
 310 -1 l 1
 283 2 l 1
 207 2 l 1
 147 3 l 1
 96 0 l 1
 56 0 l 1
 43 37 l 1
 90 162 l 1
 90 184 l 1
 134 292 l 1
 165 405 l 1
 214 553 l 1
 222 563 l 1
 223 563 l 1
 216 566 l 1
 236 632 l 1
 243 661 l 1
 250 688 l 1
 251 688 l 1
 245 692 l 2
 241 692 233 691 227 691 c 2
 176 691 l 1
 111 687 l 1
 70 678 l 1
 54 675 l 1
 46 682 l 1
 52 734 l 1
 113 732 l 1
 121 730 l 1
 195 730 l 1
 257 733 l 1
EndSplineSet
Validated: 1
EndChar

StartChar: bracketleft
Encoding: 91 91 62
Width: 249
GlyphClass: 1
Flags: MW
HStem: -74 32<124 172> 765 36
VStem: 94 36<-42 -24>
LayerCount: 2
Fore
SplineSet
94 402 m 2
 90 526 l 1
 96 616 l 1
 90 768 l 1
 87 792 l 1
 91 801 l 1
 123 802 l 1
 184 801 l 1
 212 802 l 1
 233 802 l 1
 237 794 l 1
 235 763 l 1
 206 762 l 1
 131 769 l 1
 131 756 130 743 130 730 c 2
 129 586 l 1
 133 552 l 1
 129 405 l 1
 133 385 l 1
 130 294 l 2
 130 258 129 187 129 153 c 1
 119 133 l 1
 129 121 l 1
 133 86 l 1
 129 -21 l 2
 129 -28 130 -35 130 -42 c 1
 172 -42 l 1
 212 -38 l 1
 234 -36 l 1
 239 -43 l 1
 238 -77 l 1
 128 -74 l 2
 120 -74 107 -76 99 -76 c 2
 89 -73 l 1
 91 -46 l 1
 94 -24 l 1
 90 61 l 1
 96 150 l 1
 96 233 94 318 94 402 c 2
EndSplineSet
Validated: 1
EndChar

StartChar: backslash
Encoding: 92 92 63
Width: 326
GlyphClass: 1
Flags: MW
HStem: -45 818<48 277>
VStem: 6 310
LayerCount: 2
Fore
SplineSet
133 395 m 1
 92 511 l 1
 66 597 l 1
 72 614 l 1
 59 619 l 1
 19 728 l 2
 16 734 9 743 6 749 c 2
 7 760 l 1
 48 773 l 1
 61 745 l 1
 73 705 l 1
 105 593 l 1
 121 552 l 1
 165 410 l 1
 174 391 l 1
 200 303 l 1
 254 139 l 1
 248 121 l 1
 260 112 l 1
 297 22 l 2
 300 15 303 5 306 -1 c 2
 316 -29 l 1
 277 -45 l 1
 265 -40 l 1
 259 -23 l 1
 258 0 l 1
 236 68 l 1
 210 157 l 1
 173 263 l 1
 133 395 l 1
EndSplineSet
Validated: 1
EndChar

StartChar: bracketright
Encoding: 93 93 64
Width: 247
GlyphClass: 1
Flags: MW
HStem: -76 33 765 36
VStem: 118 36<-42 -24>
LayerCount: 2
Fore
SplineSet
159 526 m 1
 154 402 l 2
 154 318 152 233 152 150 c 1
 159 61 l 1
 154 -24 l 1
 158 -46 l 1
 160 -73 l 1
 149 -76 l 1
 120 -74 l 1
 10 -77 l 1
 9 -43 l 1
 13 -36 l 1
 36 -38 l 1
 76 -42 l 1
 118 -42 l 1
 118 -35 119 -28 119 -21 c 2
 115 86 l 1
 119 120 l 1
 119 178 118 236 118 294 c 2
 115 385 l 1
 119 405 l 1
 115 542 l 1
 119 586 l 1
 119 645 l 1
 128 657 l 1
 125 662 122 668 119 672 c 2
 118 730 l 1
 117 769 l 1
 42 762 l 1
 13 763 l 1
 11 794 l 1
 14 802 l 1
 36 802 l 1
 64 801 l 1
 125 802 l 1
 157 801 l 1
 161 792 l 1
 159 768 l 1
 152 616 l 1
 159 526 l 1
EndSplineSet
Validated: 1
EndChar

StartChar: asciicircum
Encoding: 94 94 65
Width: 455
GlyphClass: 1
Flags: HMW
HStem: -3 38<371 371> 0 35 701 36 724 14<44 49>
VStem: 45 28 383 28
LayerCount: 2
Fore
SplineSet
316.920898438 609.006835938 m 1x0c
 325.930664062 584.005859375 l 1
 356.922851562 545.026367188 l 1
 385.912109375 499.033203125 l 1
 410.916015625 467.044921875 l 1
 424.90625 440.049804688 l 1
 406.915039062 418.057617188 l 1
 374.931640625 413.051757812 l 1
 355.921875 462.041992188 l 1
 340.922851562 501.026367188 l 1
 309.926757812 552.01953125 l 1
 300.936523438 581.01171875 l 1
 239.948242188 666.000976562 l 1
 229.954101562 671.993164062 l 1
 159.959960938 574.013671875 l 1
 148.978515625 546.030273438 l 1
 101.982421875 461.041992188 l 1
 95.990234375 439.045898438 l 1
 85.9853515625 408.048828125 l 1
 59.990234375 419.048828125 l 1
 36 434.041992188 l 1
 37.9990234375 448.052734375 l 1
 54.986328125 470.038085938 l 1
 68.98046875 484.0390625 l 1
 67.990234375 484.0390625 l 1
 131.977539062 596.004882812 l 1
 163.977539062 644.99609375 l 1
 163.977539062 660.99609375 l 1
 179.962890625 677.985351562 l 1
 178.969726562 677.985351562 l 1
 205.953125 728.984375 l 1
 211.947265625 730.974609375 l 1
 245.951171875 732.984375 l 1
 247.9453125 719.981445312 l 1
 261.953125 701.98828125 l 1
 291.9453125 655.994140625 l 1
 316.920898438 609.006835938 l 1x0c
EndSplineSet
Validated: 8912897
EndChar

StartChar: underscore
Encoding: 95 95 66
Width: 500
GlyphClass: 1
Flags: MW
HStem: -54 36
VStem: 14 476<-25 -11>
LayerCount: 2
Fore
SplineSet
66 -17 m 1
 175 -18 l 1
 183 -26 l 1
 193 -18 l 1
 251 -17 l 1
 405 -20 l 1
 427 -18 l 1
 448 -15 l 1
 490 -11 l 1
 489 -48 l 1
 474 -55 l 1
 412 -53 l 1
 377 -52 l 1
 332 -55 l 1
 69 -52 l 1
 48 -56 l 1
 25 -60 l 1
 15 -57 l 1
 16 -39 l 1
 14 -25 l 1
 16 -14 l 1
 41 -16 l 1
 66 -17 l 1
EndSplineSet
Validated: 1
EndChar

StartChar: grave
Encoding: 96 96 67
Width: 156
GlyphClass: 1
Flags: MW
HStem: 775 108<62 108>
VStem: 20 116<789 862>
LayerCount: 2
Fore
SplineSet
85 800 m 1
 41 839 l 1
 20 862 l 1
 24 870 l 1
 62 883 l 1
 69 877 l 1
 111 817 l 1
 136 789 l 1
 135 782 l 1
 108 775 l 1
 102 781 l 1
 85 800 l 1
EndSplineSet
Validated: 1
EndChar

StartChar: a
Encoding: 97 97 68
Width: 330
GlyphClass: 1
Flags: HMW
HStem: -8 21G<257.567 263.567 257.567 257.567> 721 20G<92.5666 92.5666>
LayerCount: 2
Fore
SplineSet
104.099609375 335.696289062 m 1
 79.31640625 216.4296875 l 1
 68.56640625 94 l 1
 72.1728515625 67.140625 l 1
 96.380859375 45.2646484375 l 1
 111.634765625 42.2861328125 l 1
 124.185546875 47.2568359375 l 1
 148.3984375 58.1865234375 l 1
 185.404296875 75.94140625 l 1
 196.12890625 73.9951171875 l 1
 189.486328125 80.47265625 l 1
 216.154296875 92.12109375 l 1
 226.276367188 99.0263671875 l 1
 246.1875 111.896484375 l 1
 251.557617188 188.483398438 l 1
 245.965820312 322.26171875 l 1
 241.915039062 354.407226562 l 1
 225.821289062 355.840820312 l 1
 138.360351562 350.078125 l 1
 143.546875 357.848632812 l 1
 129.9296875 349.768554688 l 1
 110.072265625 346.048828125 l 1
 104.099609375 335.696289062 l 1
262.67578125 398.140625 m 1
 287.591796875 389.501953125 l 1
 284.744140625 186.486328125 l 1
 290.126953125 61.1884765625 l 1
 299.104492188 2.5068359375 l 1
 256.939453125 -5.453125 l 1
 252.461914062 21.3876953125 l 1
 247.981445312 50.232421875 l 1
 237.209960938 62.181640625 l 1
 135.848632812 10.462890625 l 1
 112.533203125 -4.458984375 l 1
 70.3720703125 -3.4638671875 l 1
 29.9990234375 35.3125 l 1
 29.1015625 76.0986328125 l 1
 35.8427734375 137.727539062 l 1
 38.9599609375 204.481445312 l 1
 56.9306640625 301.430664062 l 1
 55.5625 355.540039062 l 1
 64.9091796875 372.524414062 l 1
 90.080078125 378.852539062 l 1
 207.393554688 388.638671875 l 1
 217.3203125 382.815429688 l 1
 210.905273438 391.448242188 l 1
 262.67578125 398.140625 l 1
EndSplineSet
Validated: 524289
EndChar

StartChar: b
Encoding: 98 98 69
Width: 345
GlyphClass: 1
Flags: HMW
HStem: -15 21G<95.9914 95.9914> 729 20G<87.9914 87.9914>
LayerCount: 2
Fore
SplineSet
144.875 357.484375 m 1
 151.133789062 356.623046875 l 1
 195.739257812 319.072265625 l 1
 208.815429688 302.708007812 l 1
 309.258789062 214.190429688 l 1
 314.5 180.301757812 l 1
 309.581054688 178.305664062 l 1
 272.788085938 138.516601562 l 1
 231.016601562 103.71484375 l 1
 194.221679688 75.8818359375 l 1
 177.313476562 60.966796875 l 1
 161.399414062 47.0302734375 l 1
 95.603515625 -2.62890625 l 1
 62.947265625 -5.677734375 l 1
 34.0244140625 -2.046875 l 1
 29.9990234375 120.521484375 l 1
 36.0869140625 179.301757812 l 1
 37.7548828125 315.642578125 l 1
 42.0576171875 388.15234375 l 1
 38.0791015625 503.516601562 l 1
 39.7802734375 615.452148438 l 1
 32.873046875 663.201171875 l 1
 38.626953125 674.15625 l 1
 32.11328125 685.508789062 l 1
 32.2998046875 742.6171875 l 1
 84.6689453125 735.70703125 l 1
 79.85546875 692.475585938 l 1
 82.3662109375 682.194335938 l 1
 77.8603515625 619.880859375 l 1
 74.306640625 555.599609375 l 1
 77.1884765625 495.735351562 l 1
 74.884765625 467.709960938 l 1
 75.8740234375 437.866210938 l 1
 81.84375 425.944335938 l 1
 82.3076171875 397.100585938 l 1
 144.875 357.484375 l 1
78.85546875 356.243164062 m 1
 78.5390625 334.525390625 l 1
 82.5087890625 282.810546875 l 1
 78.912109375 171.161132812 l 1
 78.912109375 155.057617188 l 1
 81.7880859375 130.890625 l 1
 81.84375 65.92578125 l 1
 82.365234375 44.5556640625 l 1
 170.991210938 109.586914062 l 1
 180.774414062 105.548828125 l 1
 200.918945312 133.177734375 l 1
 256.875976562 180.301757812 l 1
 263.140625 191.090820312 l 1
 255.155273438 196.708007812 l 1
 249.114257812 207.9296875 l 1
 221.056640625 236.200195312 l 1
 196.31640625 249.436523438 l 1
 134.231445312 313.6484375 l 1
 78.85546875 356.243164062 l 1
EndSplineSet
Validated: 524289
EndChar

StartChar: c
Encoding: 99 99 70
Width: 304
GlyphClass: 1
Flags: HMW
HStem: -9 21G<254.098 254.098> 726 20G<262.098 262.098>
LayerCount: 2
Fore
SplineSet
52.46875 231.262695312 m 1
 87.9111328125 268.280273438 l 1
 124.213867188 296.009765625 l 1
 127.666015625 307.443359375 l 1
 195.079101562 370 l 1
 203.720703125 373.26953125 l 1
 209.780273438 389.046875 l 1
 225.326171875 402.09765625 l 1
 239.165039062 397.208007812 l 1
 265.09765625 383.064453125 l 1
 251.252929688 369.465820312 l 1
 226.844726562 344.614257812 l 1
 208.704101562 329.375 l 1
 157.704101562 279.333984375 l 1
 130.047851562 253.221679688 l 1
 120.538085938 252.127929688 l 1
 109.302734375 230.908203125 l 1
 90.2939453125 214.591796875 l 1
 85.56640625 206.877929688 l 1
 72.6162109375 196.08984375 l 1
 96.326171875 178.467773438 l 1
 112.7578125 157.8046875 l 1
 143.010742188 124.633789062 l 1
 219.923828125 60.421875 l 1
 229.432617188 46.27734375 l 1
 256.228515625 27.2490234375 l 1
 273.517578125 9.8134765625 l 1
 232.250976562 -8.6630859375 l 1
 221.873046875 -0.48046875 l 1
 216.685546875 9.2998046875 l 1
 208.044921875 10.3896484375 l 1
 163.967773438 58.267578125 l 1
 166.556640625 65.8828125 l 1
 154.466796875 69.689453125 l 1
 96.5576171875 125.178710938 l 1
 29.9990234375 183.950195312 l 1
 32.59765625 214.396484375 l 1
 52.46875 231.262695312 l 1
EndSplineSet
Validated: 524289
EndChar

StartChar: d
Encoding: 100 100 71
Width: 345
GlyphClass: 1
Flags: HMW
HStem: -9 21G<130.444 130.444> 728 20G<113.444 113.444>
LayerCount: 2
Fore
SplineSet
262.19921875 402.860351562 m 1
 262.668945312 431.71484375 l 1
 268.638671875 443.643554688 l 1
 269.625976562 473.473632812 l 1
 270.622070312 504.31640625 l 1
 266.6484375 560.999023438 l 1
 266.6484375 625.634765625 l 1
 265.649414062 691.286132812 l 1
 264.658203125 698.240234375 l 1
 256.700195312 750.958007812 l 1
 314.3828125 728.080078125 l 1
 312.400390625 691.286132812 l 1
 310.4140625 679.334960938 l 1
 307.421875 667.411132812 l 1
 310.4140625 627.623046875 l 1
 306.435546875 509.27734375 l 1
 302.451171875 393.918945312 l 1
 306.759765625 321.396484375 l 1
 308.422851562 185.052734375 l 1
 304.444335938 133.340820312 l 1
 313.396484375 7.0419921875 l 1
 281.567382812 0.080078125 l 1
 248.750976562 -8.875 l 1
 183.114257812 52.796875 l 1
 167.194335938 66.712890625 l 1
 150.2890625 81.6318359375 l 1
 113.493164062 109.489257812 l 1
 71.724609375 144.294921875 l 1
 34.9306640625 184.072265625 l 1
 29.36328125 218.21875 l 1
 35.25 219.954101562 l 1
 135.696289062 308.470703125 l 1
 158.575195312 327.366210938 l 1
 191.388671875 357.202148438 l 1
 194.73046875 362.852539062 l 1
 262.19921875 402.860351562 l 1
210.282226562 319.40625 m 1
 142.65234375 259.732421875 l 1
 115.8046875 232.884765625 l 1
 92.927734375 209.008789062 l 1
 86.3349609375 201.383789062 l 1
 81.3720703125 196.848632812 l 1
 87.6376953125 186.045898438 l 1
 125.421875 144.293945312 l 1
 141.3359375 135.333007812 l 1
 170.172851562 104.509765625 l 1
 255.708984375 39.8642578125 l 1
 256.69921875 39.8642578125 l 1
 262.66796875 71.681640625 l 1
 261.680664062 141.296875 l 1
 271.616210938 170.131835938 l 1
 262.668945312 176.112304688 l 1
 262 288.576171875 l 1
 265.975585938 340.293945312 l 1
 265.66015625 361.984375 l 1
 210.282226562 319.40625 l 1
EndSplineSet
Validated: 524289
EndChar

StartChar: e
Encoding: 101 101 72
Width: 308
GlyphClass: 1
Flags: HMW
HStem: -3 21G<300.002 300.002> 715 20G<100.002 155.002 155.002 155.002 228.002 228.002>
LayerCount: 2
Fore
SplineSet
242.247070312 363.956054688 m 1
 228.274414062 352.440429688 l 1
 218.485351562 338.293945312 l 1
 147.579101562 269.005859375 l 1
 108.243164062 240.8984375 l 1
 86.099609375 214.190429688 l 1
 138.579101562 216.341796875 l 1
 198.391601562 209.438476562 l 1
 244.831054688 216.635742188 l 1
 241.600585938 280.655273438 l 1
 248.170898438 322.94921875 l 1
 242.247070312 363.956054688 l 1
272.861328125 209.438476562 m 1
 269.001953125 173.755859375 l 1
 192.989257812 178.787109375 l 1
 125.463867188 183.110351562 l 1
 84.552734375 181.516601562 l 1
 87.798828125 176.700195312 l 1
 107.35546875 160.3984375 l 1
 118.91015625 139.161132812 l 1
 128.69140625 138.088867188 l 1
 157.149414062 111.975585938 l 1
 209.600585938 61.91015625 l 1
 228.275390625 46.697265625 l 1
 257.614257812 24.919921875 l 1
 271.84375 11.318359375 l 1
 245.166992188 -2.828125 l 1
 230.938476562 -7.7119140625 l 1
 214.930664062 5.3388671875 l 1
 208.7109375 21.1103515625 l 1
 199.826171875 24.3740234375 l 1
 130.471679688 86.9443359375 l 1
 126.909179688 98.373046875 l 1
 89.5791015625 126.112304688 l 1
 53.1171875 163.103515625 l 1
 32.6728515625 179.9765625 l 1
 29.9990234375 210.439453125 l 1
 95.095703125 272.45703125 l 1
 129.708984375 295.3359375 l 1
 128.551757812 302.66796875 l 1
 139.481445312 306.750976562 l 1
 213.162109375 383.9921875 l 1
 222.049804688 385.0859375 l 1
 227.3828125 394.875 l 1
 238.056640625 403.034179688 l 1
 269.002929688 391.586914062 l 1
 271.705078125 316.059570312 l 1
 277.490234375 259.080078125 l 1
 272.861328125 209.438476562 l 1
EndSplineSet
Validated: 524289
EndChar

StartChar: f
Encoding: 102 102 73
Width: 274
GlyphClass: 1
Flags: HMW
HStem: -5 21G<77.9992 77.9992> 718 20G<260.999 260.999>
LayerCount: 2
Fore
SplineSet
40.94140625 392.836914062 m 1
 37.064453125 428.845703125 l 1
 43.9658203125 424.830078125 l 1
 38.212890625 440.07421875 l 1
 38.212890625 571.875 l 1
 41.0947265625 599.5 l 1
 37.923828125 615.03515625 l 1
 46.275390625 632.573242188 l 1
 64.966796875 641.928710938 l 1
 86.54296875 630.387695312 l 1
 116.055664062 603.548828125 l 1
 168.565429688 564.671875 l 1
 214.111328125 524.370117188 l 1
 243.9140625 505.485351562 l 1
 235.154296875 487.841796875 l 1
 214.111328125 468.935546875 l 1
 201.458984375 485.703125 l 1
 151.911132812 525.075195312 l 1
 124.138671875 549.272460938 l 1
 95.13671875 571.930664062 l 1
 82.3427734375 578.143554688 l 1
 75.3388671875 574.733398438 l 1
 78.2177734375 559.790039062 l 1
 75.3388671875 542.79296875 l 1
 81.712890625 384.877929688 l 1
 93.173828125 385.68359375 l 1
 136.049804688 385.125 l 1
 197.046875 383.395507812 l 1
 230.14453125 391.163085938 l 1
 237.05078125 387.125 l 1
 241.649414062 349.72265625 l 1
 232.15234375 340.235351562 l 1
 218.922851562 342.817382812 l 1
 183.815429688 341.658203125 l 1
 191.873046875 349.143554688 l 1
 175.467773438 342.817382812 l 1
 77.7373046875 347.081054688 l 1
 77.7373046875 321.241210938 l 1
 78.734375 294.373046875 l 1
 81.712890625 250.619140625 l 1
 80.7265625 163.108398438 l 1
 88.67578125 71.6083984375 l 1
 86.6845703125 36.806640625 l 1
 91.6640625 22.8701171875 l 1
 91.6640625 -3.9775390625 l 1
 79.7275390625 -5.9658203125 l 1
 29.9990234375 0 l 1
 33.9697265625 72.6044921875 l 1
 40.94140625 144.19921875 l 1
 34.9697265625 171.067382812 l 1
 37.9501953125 275.491210938 l 1
 40.94140625 392.836914062 l 1
EndSplineSet
Validated: 524289
EndChar

StartChar: g
Encoding: 103 103 74
Width: 318
GlyphClass: 1
Flags: HMW
HStem: -7 21G<155.917 155.917> 727 20G<161.917 161.917>
LayerCount: 2
Fore
SplineSet
84.8154296875 215.697265625 m 1
 151.712890625 213.967773438 l 1
 196.81640625 216.818359375 l 1
 230.9140625 215.262695312 l 1
 240.213867188 216.91796875 l 1
 239.1171875 251.952148438 l 1
 245.373046875 256.26953125 l 1
 240.198242188 264.25390625 l 1
 240.213867188 308.583007812 l 1
 237.239257812 337.436523438 l 1
 235.665039062 343.022460938 l 1
 226.599609375 343.450195312 l 1
 196.600585938 319.283203125 l 1
 166.82421875 287.983398438 l 1
 121.71484375 252.818359375 l 1
 118.6953125 259.075195312 l 1
 114.594726562 248.50390625 l 1
 100.78515625 232.094726562 l 1
 85.8935546875 220.446289062 l 1
 84.8154296875 215.697265625 l 1
29.9990234375 207.709960938 m 1
 34.3154296875 217.638671875 l 1
 73.158203125 257.779296875 l 1
 123.446289062 297.48828125 l 1
 152.142578125 331.807617188 l 1
 189.697265625 362.234375 l 1
 221.20703125 398.055664062 l 1
 231.133789062 404.747070312 l 1
 239.1171875 412.733398438 l 1
 286.807617188 400.00390625 l 1
 273.0390625 324.509765625 l 1
 278.005859375 318.53125 l 1
 281.028320312 45.58203125 l 1
 275.370117188 34.7763671875 l 1
 278.05078125 28.6748046875 l 1
 281.029296875 25.70703125 l 1
 282.030273438 -4.1318359375 l 1
 288.034179688 -25.353515625 l 1
 279.98046875 -38.306640625 l 1
 257.533203125 -44.6494140625 l 1
 269.615234375 -48.384765625 l 1
 220.994140625 -87.8115234375 l 1
 192.501953125 -118.456054688 l 1
 180.560546875 -125.924804688 l 1
 166.606445312 -142.194335938 l 1
 157.399414062 -160.58984375 l 1
 125.030273438 -154.984375 l 1
 116.25390625 -104.637695312 l 1
 144.451171875 -94.5576171875 l 1
 158.025390625 -85.73828125 l 1
 179.697265625 -64.341796875 l 1
 196.526367188 -64.775390625 l 1
 216.3828125 -33.4208984375 l 1
 233.934570312 -6.091796875 l 1
 241.706054688 5.1357421875 l 1
 238.23046875 72.88671875 l 1
 239.2265625 78.8447265625 l 1
 236.239257812 138.513671875 l 1
 240.21484375 163.384765625 l 1
 240.21484375 171.739257812 l 1
 197.251953125 176.423828125 l 1
 126.463867188 171.026367188 l 1
 130.134765625 176.629882812 l 1
 108.774414062 171.672851562 l 1
 75.537109375 174.698242188 l 1
 42.302734375 170.37890625 l 1
 34.9638671875 177.068359375 l 1
 29.9990234375 207.709960938 l 1
EndSplineSet
Validated: 524289
EndChar

StartChar: h
Encoding: 104 104 75
Width: 326
GlyphClass: 1
Flags: HMW
HStem: -3 21G<9.91617 9.91617> -1 21G<24.9162 24.9162 231.916 273.916 231.916 231.916> 719 20G<-23.0838 -23.0838>
LayerCount: 2
Fore
SplineSet
279.962890625 408.231445312 m 1x20
 284.924804688 310.772460938 l 1
 279.947265625 204.369140625 l 1
 286.91796875 138.715820312 l 1
 286.91796875 134.749023438 l 1
 290.893554688 70.1015625 l 1
 287.908203125 45.2373046875 l 1
 291.891601562 25.36328125 l 1
 295.870117188 5.447265625 l 1
 284.92578125 -6.4775390625 l 1
 237.18359375 -0.51171875 l 1
 241.166015625 53.1982421875 l 1
 248.120117188 101.934570312 l 1
 247.130859375 176.516601562 l 1
 248.120117188 219.283203125 l 1
 241.166015625 332.653320312 l 1
 240.177734375 360.5078125 l 1
 207.01953125 336.44140625 l 1
 192.106445312 337.44140625 l 1
 173.209960938 330.489257812 l 1
 156.301757812 318.548828125 l 1
 149.334960938 318.548828125 l 1
 112.545898438 301.640625 l 1
 86.6796875 287.715820312 l 1
 80.7158203125 241.975585938 l 1
 83.6982421875 141.513671875 l 1
 85.6904296875 43.0517578125 l 1
 89.66796875 9.255859375 l 1
 85.6904296875 0.296875 l 1
 62.8134765625 1.2978515625 l 1
 33.974609375 3.2783203125 l 1
 32.974609375 26.1572265625 l 1
 38.9482421875 86.818359375 l 1
 43.91796875 177.307617188 l 1
 47.8994140625 273.799804688 l 1
 43.91796875 324.516601562 l 1
 41.92578125 345.40234375 l 1
 38.9482421875 537.330078125 l 1
 36.958984375 673.587890625 l 1
 30.9873046875 702.4296875 l 1
 29.9990234375 731.272460938 l 1
 39.935546875 733.26171875 l 1
 81.7099609375 733.26171875 l 1
 86.6796875 721.334960938 l 1
 79.7177734375 658.670898438 l 1
 74.7509765625 635.79296875 l 1
 82.708984375 622.874023438 l 1
 82.708984375 410.03125 l 1
 87.67578125 396.11328125 l 1
 88.6689453125 340.423828125 l 1
 160.592773438 363.95703125 l 1
 165.560546875 363.95703125 l 1
 229.328125 403.614257812 l 1
 240.178710938 405.254882812 l 1
 250.619140625 412.828125 l 1
 279.962890625 408.231445312 l 1x20
EndSplineSet
Validated: 8912897
EndChar

StartChar: i
Encoding: 105 105 76
Width: 119
GlyphClass: 1
Flags: HMW
HStem: -2 21G<-64.987 -64.987> 723 20G<-80.987 -80.987>
LayerCount: 2
Fore
SplineSet
76.7470703125 283.043945312 m 1
 73.751953125 253.360351562 l 1
 77.7333984375 226.423828125 l 1
 79.7177734375 210.491210938 l 1
 80.7158203125 200.051757812 l 1
 81.7138671875 197.30859375 l 1
 81.7138671875 34.0712890625 l 1
 83.6982421875 22.529296875 l 1
 87.681640625 11.53515625 l 1
 85.69140625 2.1884765625 l 1
 63.8056640625 -1.1025390625 l 1
 44.916015625 -0.5478515625 l 1
 29.00390625 0 l 1
 37.9453125 35.181640625 l 1
 37.9453125 189.0546875 l 1
 40.935546875 207.750976562 l 1
 44.9150390625 241.271484375 l 1
 36.9560546875 258.852539062 l 1
 32.9716796875 390.216796875 l 1
 29.9990234375 405.58984375 l 1
 47.8974609375 408.34375 l 1
 87.6796875 403.948242188 l 1
 84.6923828125 375.919921875 l 1
 79.71484375 359.978515625 l 1
 76.7470703125 283.043945312 l 1
45.775390625 462.873046875 m 1
 31.9306640625 470.171875 l 1
 35.09375 484.841796875 l 1
 33.65234375 518.776367188 l 1
 41.423828125 531.440429688 l 1
 79.408203125 528.276367188 l 1
 84.30078125 523.024414062 l 1
 82.572265625 497.499023438 l 1
 84.556640625 485.956054688 l 1
 88.5361328125 474.963867188 l 1
 86.552734375 465.615234375 l 1
 64.6630859375 462.311523438 l 1
 45.775390625 462.873046875 l 1
EndSplineSet
Validated: 524289
EndChar

StartChar: j
Encoding: 106 106 77
Width: 225
GlyphClass: 1
Flags: HMW
HStem: -19 21G<-54.0829 -54.0829> 716 20G<72.9171 72.9171>
LayerCount: 2
Fore
SplineSet
184.158203125 196.771484375 m 1
 177.193359375 188.803710938 l 1
 175.204101562 171.899414062 l 1
 194.1015625 -27.0068359375 l 1
 181.171875 -49.8779296875 l 1
 147.358398438 -71.75390625 l 1
 142.381835938 -81.708984375 l 1
 138.403320312 -93.6474609375 l 1
 62.8251953125 -162.25390625 l 1
 29.9990234375 -131.427734375 l 1
 29.9990234375 -104.587890625 l 1
 61.8271484375 -92.6435546875 l 1
 60.83203125 -92.6435546875 l 1
 74.7490234375 -83.705078125 l 1
 84.6943359375 -77.7333984375 l 1
 115.534179688 -58.833984375 l 1
 144.366210938 -21.0439453125 l 1
 141.392578125 -1.162109375 l 1
 145.365234375 108.252929688 l 1
 145.365234375 159.975585938 l 1
 144.366210938 168.908203125 l 1
 143.379882812 230.555664062 l 1
 149.346679688 290.231445312 l 1
 136.321289062 396.760742188 l 1
 158.473632812 405.39453125 l 1
 185.23046875 403.961914062 l 1
 180.194335938 322.5234375 l 1
 184.158203125 196.771484375 l 1
138.326171875 468.837890625 m 1
 131.715820312 504.831054688 l 1
 134.875976562 528.833984375 l 1
 188.391601562 531.697265625 l 1
 192.374023438 520.741210938 l 1
 194.872070312 495.602539062 l 1
 191.4140625 472.286132812 l 1
 176.745117188 461.50390625 l 1
 138.326171875 468.837890625 l 1
EndSplineSet
Validated: 524289
EndChar

StartChar: k
Encoding: 107 107 78
Width: 377
GlyphClass: 1
Flags: HMW
HStem: -11 21G<238.917 238.917> 722 20G<220.917 220.917>
LayerCount: 2
Fore
SplineSet
29.9990234375 -1.7021484375 m 1
 33.9833984375 24.1728515625 l 1
 37.96484375 49.0126953125 l 1
 35.9765625 134.55859375 l 1
 40.9453125 267.822265625 l 1
 42.9296875 298.651367188 l 1
 45.9228515625 329.489257812 l 1
 41.943359375 564.189453125 l 1
 40.9453125 568.170898438 l 1
 39.9501953125 583.0859375 l 1
 35.9765625 638.775390625 l 1
 45.9228515625 663.638671875 l 1
 46.912109375 663.638671875 l 1
 32.9921875 667.62890625 l 1
 30.998046875 729.27734375 l 1
 61.8271484375 730.263671875 l 1
 89.6748046875 728.279296875 l 1
 90.671875 702.428710938 l 1
 87.6904296875 687.502929688 l 1
 85.6953125 670.592773438 l 1
 84.7021484375 617.885742188 l 1
 80.72265625 565.18359375 l 1
 84.7021484375 372.2421875 l 1
 74.7587890625 300.64453125 l 1
 78.7392578125 241.958007812 l 1
 90.6728515625 -3.6953125 l 1
 76.7451171875 -7.6650390625 l 1
 29.9990234375 -1.7021484375 l 1
216.970703125 359.844726562 m 1
 158.541015625 285.111328125 l 1
 144.728515625 267.280273438 l 1
 157.107421875 248.291992188 l 1
 235.90625 132.185546875 l 1
 231.93359375 128.590820312 l 1
 240.883789062 121.393554688 l 1
 287.625 68.1650390625 l 1
 315.47265625 37.939453125 l 1
 347.296875 13.486328125 l 1
 327.366210938 2.3095703125 l 1
 283.608398438 -10.66015625 l 1
 258.745117188 35.3896484375 l 1
 206.037109375 108.771484375 l 1
 145.375 183.600585938 l 1
 133.430664062 202.293945312 l 1
 122.497070312 209.5 l 1
 104.05859375 250.4453125 l 1
 92.1279296875 271.30859375 l 1
 116.000976562 300.8046875 l 1
 144.3984375 332.869140625 l 1
 148.37890625 332.155273438 l 1
 153.341796875 332.155273438 l 1
 152.360351562 342.938476562 l 1
 182.170898438 374.233398438 l 1
 186.170898438 387.545898438 l 1
 188.15625 398.3359375 l 1
 245.310546875 480.356445312 l 1
 272.149414062 526.396484375 l 1
 291.055664062 528.551757812 l 1
 332.818359375 506.973632812 l 1
 302.991210938 476.743164062 l 1
 288.072265625 469.571289062 l 1
 289.063476562 469.571289062 l 1
 288.072265625 460.203125 l 1
 260.739257812 415.948242188 l 1
 216.970703125 359.844726562 l 1
EndSplineSet
Validated: 524289
EndChar

StartChar: l
Encoding: 108 108 79
Width: 129
GlyphClass: 1
Flags: HMW
HStem: -4 21G<183.917 183.917> 0 21G<-30.0829 -30.0829 47.9171 102.917 47.9171 47.9171> 717 20G<24.9171 24.9171>
LayerCount: 2
Fore
SplineSet
34.966796875 41.0517578125 m 1x20
 45.9111328125 51.0087890625 l 1
 40.931640625 55.978515625 l 1
 41.931640625 96.7626953125 l 1
 46.91015625 172.350585938 l 1
 54.8623046875 186.265625 l 1
 55.859375 186.265625 l 1
 46.91015625 190.250976562 l 1
 49.8828125 244.939453125 l 1
 49.8828125 249.91796875 l 1
 51.8759765625 335.446289062 l 1
 52.873046875 348.362304688 l 1
 52.873046875 398.109375 l 1
 45.9111328125 516.458007812 l 1
 40.931640625 635.791992188 l 1
 36.9619140625 672.587890625 l 1
 35.962890625 729.276367188 l 1
 40.931640625 733.259765625 l 1
 71.7724609375 728.278320312 l 1
 98.62109375 728.278320312 l 1
 92.6513671875 656.673828125 l 1
 82.708984375 648.711914062 l 1
 88.6826171875 625.84375 l 1
 85.69140625 267.821289062 l 1
 93.6513671875 91.7861328125 l 1
 87.673828125 60.9677734375 l 1
 95.6376953125 39.0771484375 l 1
 95.6376953125 0.294921875 l 1
 77.7255859375 -1.7021484375 l 1
 29.9990234375 2.283203125 l 1
 34.966796875 41.0517578125 l 1x20
EndSplineSet
Validated: 8912897
EndChar

StartChar: m
Encoding: 109 109 80
Width: 397
GlyphClass: 1
Flags: HMW
HStem: -3 21G<249.914 249.914> 721 20G<255.914 255.914>
LayerCount: 2
Fore
SplineSet
171.41796875 268.1796875 m 1
 174.408203125 265.198242188 l 1
 184.345703125 243.319335938 l 1
 188.327148438 232.369140625 l 1
 193.307617188 223.424804688 l 1
 197.279296875 232.369140625 l 1
 203.248046875 242.319335938 l 1
 232.088867188 286.081054688 l 1
 258.0078125 320.609375 l 1
 264.96875 339.5234375 l 1
 268.951171875 341.498046875 l 1
 267.956054688 341.498046875 l 1
 298.458984375 378.1328125 l 1
 313.564453125 410.279296875 l 1
 350.045898438 407.13671875 l 1
 360.970703125 398.197265625 l 1
 351.421875 296.034179688 l 1
 346.465820312 267.193359375 l 1
 350.4453125 252.283203125 l 1
 362.158203125 70.90625 l 1
 364.1640625 34.1015625 l 1
 367.134765625 -5.6689453125 l 1
 314.428710938 -7.6640625 l 1
 308.473632812 -1.701171875 l 1
 310.44921875 24.173828125 l 1
 317.413085938 95.7724609375 l 1
 318.05859375 129.731445312 l 1
 323.020507812 144.651367188 l 1
 320.045898438 151.6015625 l 1
 313.13671875 172.32421875 l 1
 318.6171875 236.360351562 l 1
 315.624023438 298.009765625 l 1
 317.764648438 345.66796875 l 1
 315.771484375 343.672851562 l 1
 306.80859375 327.760742188 l 1
 276.015625 287.564453125 l 1
 246.0078125 249.288085938 l 1
 238.065429688 231.385742188 l 1
 234.083984375 224.428710938 l 1
 223.141601562 206.524414062 l 1
 224.133789062 206.524414062 l 1
 207.229492188 170.71875 l 1
 200.262695312 172.706054688 l 1
 176.399414062 177.688476562 l 1
 168.447265625 206.5234375 l 1
 156.50390625 224.427734375 l 1
 113.743164062 298.009765625 l 1
 102.94140625 313.842773438 l 1
 91.9970703125 327.760742188 l 1
 80.0625 343.672851562 l 1
 79.06640625 342.671875 l 1
 81.6591796875 291.61328125 l 1
 79.9296875 290.071289062 l 1
 80.927734375 282.119140625 l 1
 77.9365234375 204.530273438 l 1
 73.966796875 193.592773438 l 1
 78.9462890625 188.614257812 l 1
 78.76953125 168.874023438 l 1
 72.728515625 151.176757812 l 1
 81.755859375 118.463867188 l 1
 90.66796875 12.216796875 l 1
 88.669921875 -4.681640625 l 1
 32.98046875 -6.6640625 l 1
 29.9990234375 8.26171875 l 1
 35.962890625 46.052734375 l 1
 36.9638671875 75.884765625 l 1
 37.9580078125 80.8388671875 l 1
 45.912109375 88.8056640625 l 1
 38.955078125 90.802734375 l 1
 37.9580078125 120.638671875 l 1
 43.13671875 254.264648438 l 1
 39.15625 304.991210938 l 1
 36.90625 327.409179688 l 1
 41.87109375 347.3046875 l 1
 37.9033203125 362.223632812 l 1
 33.921875 378.134765625 l 1
 33.1328125 399.432617188 l 1
 64.9609375 405.397460938 l 1
 85.0234375 407.517578125 l 1
 116.319335938 351.447265625 l 1
 171.41796875 268.1796875 l 1
EndSplineSet
Validated: 524289
EndChar

StartChar: n
Encoding: 110 110 81
Width: 329
GlyphClass: 1
Flags: HMW
HStem: -5 21G<-1.08285 -1.08285 238.917 238.917> 725 20G<23.9171 23.9171>
LayerCount: 2
Fore
SplineSet
283.680664062 264.166992188 m 1
 290.8828125 198.612304688 l 1
 286.486328125 80.8251953125 l 1
 292.274414062 52.3935546875 l 1
 299.237304688 2.9345703125 l 1
 294.252929688 -5.7451171875 l 1
 255.46875 -6.6123046875 l 1
 245.54296875 -4.8837890625 l 1
 248.509765625 45.4521484375 l 1
 249.318359375 58.0419921875 l 1
 255.649414062 79.34375 l 1
 248.013671875 83.3603515625 l 1
 245.921875 177.501953125 l 1
 247.431640625 237.997070312 l 1
 244.276367188 282.23046875 l 1
 236.501953125 293.885742188 l 1
 191.967773438 310.866210938 l 1
 175.129882812 328.138671875 l 1
 177.153320312 317.744140625 l 1
 126.21875 337.200195312 l 1
 91.115234375 349.563476562 l 1
 82.9912109375 349.142578125 l 1
 81.998046875 343.922851562 l 1
 81.998046875 264.961914062 l 1
 73.0595703125 210.272460938 l 1
 74.0537109375 207.668945312 l 1
 81.0185546875 193.77734375 l 1
 86.2255859375 73.91015625 l 1
 86.7060546875 42.078125 l 1
 88.6826171875 28.185546875 l 1
 86.7060546875 -6.5263671875 l 1
 54.87109375 -8.2548828125 l 1
 29.9990234375 -4.7919921875 l 1
 34.9755859375 45.5478515625 l 1
 36.3671875 58.1533203125 l 1
 42.625 73.048828125 l 1
 41.1162109375 101.965820312 l 1
 40.25 116.211914062 l 1
 40.9013671875 145.126953125 l 1
 43.2216796875 224.163085938 l 1
 40.2197265625 281.43359375 l 1
 38.244140625 337.846679688 l 1
 33.26953125 378.65625 l 1
 33.26953125 408.16015625 l 1
 80.0087890625 419.442382812 l 1
 117.59375 397.044921875 l 1
 130.541015625 384.095703125 l 1
 213.688476562 344.795898438 l 1
 221.098632812 344.31640625 l 1
 255.994140625 325.388671875 l 1
 279.879882812 319.350585938 l 1
 286.26953125 286.912109375 l 1
 283.680664062 264.166992188 l 1
EndSplineSet
Validated: 524289
EndChar

StartChar: o
Encoding: 111 111 82
Width: 398
GlyphClass: 1
Flags: HMW
HStem: -10 21G<122.917 122.917> 721 20G<131.917 131.917>
LayerCount: 2
Fore
SplineSet
171.588867188 400.483398438 m 1
 204.887695312 398.842773438 l 1
 222.299804688 399.916015625 l 1
 234.763671875 389.39453125 l 1
 239.372070312 383.87109375 l 1
 289.397460938 312.325195312 l 1
 290.328125 310.666992188 l 1
 290.328125 307.904296875 l 1
 291.254882812 302.912109375 l 1
 304.208007812 295.15234375 l 1
 360.770507812 216.611328125 l 1
 367.375 213.294921875 l 1
 358.325195312 186.754882812 l 1
 332.115234375 158.365234375 l 1
 314.551757812 133.439453125 l 1
 301.96875 110.080078125 l 1
 291.252929688 81.8447265625 l 1
 277.383789062 81.8447265625 l 1
 273.677734375 59.6982421875 l 1
 231.06640625 8.6279296875 l 1
 229.20703125 -2.4404296875 l 1
 182.293945312 -6.388671875 l 1
 174.90234375 -1.40625 l 1
 164.737304688 14.6396484375 l 1
 106.127929688 91.1796875 l 1
 70.0478515625 134.948242188 l 1
 32.7626953125 192.634765625 l 1
 29.9990234375 216.995117188 l 1
 67.0048828125 256.87890625 l 1
 84.5908203125 284.021484375 l 1
 91.05078125 284.021484375 l 1
 97.5234375 289.008789062 l 1
 104.518554688 310.440429688 l 1
 159.124023438 376.345703125 l 1
 171.588867188 400.483398438 l 1
196.840820312 35.23046875 m 1
 195.907226562 35.23046875 l 1
 203.313476562 32.453125 l 1
 205.16015625 31.892578125 l 1
 229.247070312 69.8740234375 l 1
 256.6484375 111.200195312 l 1
 278.470703125 145.07421875 l 1
 303.739257812 177.338867188 l 1
 304.672851562 179.001953125 l 1
 315.77734375 195.614257812 l 1
 319.46875 200.592773438 l 1
 321.33203125 202.821289062 l 1
 320.404296875 207.24609375 l 1
 320.404296875 210.01953125 l 1
 319.467773438 212.235351562 l 1
 283.092773438 264.717773438 l 1
 280.331054688 280.228515625 l 1
 281.241210938 280.228515625 l 1
 269.215820312 285.206054688 l 1
 219.202148438 342.891601562 l 1
 201.39453125 360.994140625 l 1
 200.469726562 364.875976562 l 1
 199.532226562 365.977539062 l 1
 193.98828125 363.208984375 l 1
 166.987304688 327.760742188 l 1
 161.435546875 327.220703125 l 1
 157.740234375 327.220703125 l 1
 163.2734375 320.013671875 l 1
 103.078125 245.249023438 l 1
 94.7578125 235.279296875 l 1
 91.0478515625 229.741210938 l 1
 86.423828125 225.866210938 l 1
 77.1689453125 209.799804688 l 1
 73.47265625 203.149414062 l 1
 116.955078125 128.381835938 l 1
 123.440429688 113.970703125 l 1
 138.23046875 106.765625 l 1
 196.840820312 35.23046875 l 1
EndSplineSet
Validated: 524289
EndChar

StartChar: p
Encoding: 112 112 83
Width: 325
GlyphClass: 1
Flags: HMW
HStem: -3 21G<6.9173 6.9173> 726 20G<16.9173 16.9173>
LayerCount: 2
Fore
SplineSet
136.876953125 32.470703125 m 1
 88.69921875 -4.3701171875 l 1
 76.7470703125 -30.9111328125 l 1
 76.8818359375 -81.4658203125 l 1
 85.69140625 -161.26171875 l 1
 64.7978515625 -163.048828125 l 1
 29.9990234375 -160.385742188 l 1
 39.9931640625 -66.9013671875 l 1
 31.1396484375 -23.6376953125 l 1
 36.7392578125 142.971679688 l 1
 43.060546875 159.723632812 l 1
 33.29296875 158.078125 l 1
 37.0830078125 299.55078125 l 1
 35.099609375 322.581054688 l 1
 33.1015625 341.155273438 l 1
 31.103515625 386.29296875 l 1
 61.9365234375 400.45703125 l 1
 72.890625 402.2265625 l 1
 166.3671875 323.456054688 l 1
 176.315429688 307.522460938 l 1
 222.069335938 274.779296875 l 1
 294.663085938 215.483398438 l 1
 291.680664062 172.997070312 l 1
 256.870117188 145.557617188 l 1
 237.984375 126.081054688 l 1
 218.086914062 106.625 l 1
 196.194335938 88.03125 l 1
 164.295898438 63.5302734375 l 1
 136.876953125 32.470703125 l 1
79.7451171875 90.3310546875 m 1
 77.7509765625 54.923828125 l 1
 80.7392578125 42.5341796875 l 1
 82.7265625 43.4287109375 l 1
 127.208007812 74.5068359375 l 1
 158.028320312 102.833984375 l 1
 191.240234375 125.205078125 l 1
 212.109375 149.091796875 l 1
 219.072265625 157.05078125 l 1
 250.897460938 188.04296875 l 1
 251.905273438 193.348632812 l 1
 251.905273438 197.784179688 l 1
 225.05078125 221.676757812 l 1
 188.236328125 253.53515625 l 1
 174.31640625 265.038085938 l 1
 171.35546875 273.885742188 l 1
 158.40625 276.5390625 l 1
 80.8505859375 343.807617188 l 1
 78.853515625 330.537109375 l 1
 72.8896484375 235.834960938 l 1
 73.8857421875 193.350585938 l 1
 74.8798828125 172.126953125 l 1
 74.8798828125 151.76171875 l 1
 78.7412109375 101.837890625 l 1
 79.7451171875 90.3310546875 l 1
EndSplineSet
Validated: 524289
EndChar

StartChar: q
Encoding: 113 113 84
Width: 348
GlyphClass: 1
Flags: HMW
HStem: -166 21G<165.915 165.915> 726 20G<135.915 135.915>
LayerCount: 2
Fore
SplineSet
195.3828125 35.76953125 m 1
 192.029296875 41.42578125 l 1
 159.21484375 71.255859375 l 1
 136.336914062 90.1533203125 l 1
 35.8974609375 178.653320312 l 1
 29.9990234375 180.399414062 l 1
 35.580078125 214.549804688 l 1
 72.3681640625 254.328125 l 1
 114.1484375 289.140625 l 1
 150.939453125 316.99609375 l 1
 167.84765625 331.909179688 l 1
 183.763671875 345.825195312 l 1
 249.395507812 407.495117188 l 1
 282.220703125 398.536132812 l 1
 314.03125 391.583984375 l 1
 305.0859375 265.283203125 l 1
 309.067382812 213.561523438 l 1
 307.395507812 77.2255859375 l 1
 303.110351562 4.703125 l 1
 305.833007812 -14.572265625 l 1
 305.399414062 -47.8037109375 l 1
 312.037109375 -112.541992188 l 1
 317.774414062 -144.19140625 l 1
 311.174804688 -153.978515625 l 1
 257.779296875 -164.916992188 l 1
 266.876953125 -102.947265625 l 1
 266.98828125 -71.1064453125 l 1
 267.344726562 -32.0986328125 l 1
 261.370117188 -20.171875 l 1
 262.85546875 -4.2353515625 l 1
 195.3828125 35.76953125 l 1
266.313476562 36.6357421875 m 1
 266.614257812 58.3271484375 l 1
 262.642578125 110.05078125 l 1
 263.31640625 222.509765625 l 1
 272.272460938 228.489257812 l 1
 262.321289062 257.32421875 l 1
 263.31640625 326.934570312 l 1
 257.353515625 358.750976562 l 1
 256.356445312 358.750976562 l 1
 170.80859375 294.119140625 l 1
 141.982421875 263.291015625 l 1
 126.069335938 254.329101562 l 1
 88.2841796875 212.569335938 l 1
 82.0126953125 201.759765625 l 1
 86.9697265625 197.228515625 l 1
 93.5810546875 189.610351562 l 1
 116.459960938 165.73828125 l 1
 143.302734375 138.888671875 l 1
 210.924804688 79.2158203125 l 1
 266.313476562 36.6357421875 l 1
EndSplineSet
Validated: 524289
EndChar

StartChar: r
Encoding: 114 114 85
Width: 335
GlyphClass: 1
Flags: HMW
HStem: -10 21G<77.0255 77.0255> 730 20G<-130.974 -130.974>
LayerCount: 2
Fore
SplineSet
276.9375 292.157226562 m 1
 267.157226562 293.885742188 l 1
 222.482421875 310.14453125 l 1
 213.853515625 320.233398438 l 1
 141.91796875 340.942382812 l 1
 127.533203125 341.221679688 l 1
 88.099609375 351.579101562 l 1
 79.7216796875 346.180664062 l 1
 79.7216796875 330.2734375 l 1
 80.7197265625 314.375 l 1
 72.859375 280.500976562 l 1
 72.859375 254.654296875 l 1
 77.8251953125 237.7421875 l 1
 79.240234375 219.955078125 l 1
 74.2626953125 171.235351562 l 1
 75.9755859375 132.846679688 l 1
 79.0927734375 104.642578125 l 1
 80.3876953125 83.6513671875 l 1
 73.421875 79.662109375 l 1
 74.4208984375 79.662109375 l 1
 83.3818359375 61.7626953125 l 1
 88.7470703125 -2.482421875 l 1
 69.8505859375 -8.4453125 l 1
 32.0673828125 -5.4755859375 l 1
 35.3173828125 58.8876953125 l 1
 42.2841796875 103.642578125 l 1
 42.2841796875 117.560546875 l 1
 41.2900390625 132.481445312 l 1
 40.2939453125 161.329101562 l 1
 41.4443359375 248.795898438 l 1
 33.9931640625 314.375976562 l 1
 29.9990234375 390.951171875 l 1
 76.7373046875 407.849609375 l 1
 132.986328125 391.017578125 l 1
 146.106445312 384.033203125 l 1
 224.286132812 357.162109375 l 1
 251.375976562 351.005859375 l 1
 260.536132812 351.4453125 l 1
 301.008789062 331.58984375 l 1
 304.483398438 323.387695312 l 1
 276.9375 292.157226562 l 1
EndSplineSet
Validated: 524289
EndChar

StartChar: s
Encoding: 115 115 86
Width: 309
GlyphClass: 1
Flags: HMW
HStem: -18 21G<1.91617 1.91617> 728 20G<128.916 128.916>
LayerCount: 2
Fore
SplineSet
225.33203125 148.546875 m 1
 188.094726562 167.427734375 l 1
 184.116210938 168.494140625 l 1
 138.359375 196.256835938 l 1
 77.6904296875 222.38671875 l 1
 53.8310546875 231.998046875 l 1
 32.3896484375 241.572265625 l 1
 29.9990234375 275.896484375 l 1
 88.6728515625 312.702148438 l 1
 116.528320312 332.990234375 l 1
 145.365234375 354.861328125 l 1
 169.23828125 373.530273438 l 1
 181.177734375 382.084960938 l 1
 202.048828125 401.291015625 l 1
 213.96875 402.358398438 l 1
 257.099609375 386.40625 l 1
 245.17578125 371.994140625 l 1
 205.392578125 358.65625 l 1
 200.40625 346.379882812 l 1
 132.77734375 302.103515625 l 1
 105.93359375 280.228515625 l 1
 81.060546875 258.350585938 l 1
 115.495117188 243.370117188 l 1
 135.389648438 234.826171875 l 1
 154.286132812 228.431640625 l 1
 254.737304688 173.471679688 l 1
 278.588867188 163.32421875 l 1
 275.641601562 129.67578125 l 1
 235.856445312 100.860351562 l 1
 199.080078125 76.8486328125 l 1
 174.212890625 57.6533203125 l 1
 133.4296875 27.7548828125 l 1
 120.509765625 14.4140625 l 1
 107.568359375 1.615234375 l 1
 87.6728515625 -6.3896484375 l 1
 42.337890625 10.869140625 l 1
 46.3203125 19.4228515625 l 1
 72.1787109375 31.685546875 l 1
 102.009765625 50.8876953125 l 1
 130.866210938 71.1650390625 l 1
 145.776367188 76.501953125 l 1
 144.784179688 76.501953125 l 1
 161.688476562 88.7783203125 l 1
 214.4140625 133.607421875 l 1
 225.33203125 148.546875 l 1
EndSplineSet
Validated: 524289
EndChar

StartChar: t
Encoding: 116 116 87
Width: 376
GlyphClass: 1
Flags: HMW
HStem: -3 21G<9.9152 9.9152> 719 20G<-140.085 -140.085>
LayerCount: 2
Fore
SplineSet
114.190429688 394.384765625 m 1
 164.862304688 392.150390625 l 1
 162.43359375 425.849609375 l 1
 158.643554688 428.919921875 l 1
 157.997070312 461.287109375 l 1
 159.725585938 477.685546875 l 1
 154.975585938 508.115234375 l 1
 148.0703125 516.31640625 l 1
 169.0078125 521.284179688 l 1
 187.13671875 520.637695312 l 1
 194.689453125 517.616210938 l 1
 200.291015625 497.76171875 l 1
 204.571289062 443.864257812 l 1
 198.360351562 447.6953125 l 1
 205.709960938 435.3984375 l 1
 211.595703125 391.624023438 l 1
 223.169921875 393.092773438 l 1
 237.762695312 394.513671875 l 1
 259.647460938 395.032226562 l 1
 338.8984375 395.306640625 l 1
 346.2421875 360.306640625 l 1
 333.3203125 357.677734375 l 1
 286.568359375 362.408203125 l 1
 278.609375 362.927734375 l 1
 265.6875 365.038085938 l 1
 211.981445312 365.038085938 l 1
 211.981445312 353.983398438 l 1
 208.012695312 340.26953125 l 1
 204.025390625 327.11328125 l 1
 209.020507812 294.442382812 l 1
 202.0546875 267.05859375 l 1
 208.012695312 150.620117188 l 1
 212.978515625 75.29296875 l 1
 210.014648438 71.064453125 l 1
 207.012695312 67.38671875 l 1
 218.93359375 27.8701171875 l 1
 218.93359375 -0.6005859375 l 1
 190.098632812 -2.6953125 l 1
 166.225585938 -1.1083984375 l 1
 152.309570312 3.630859375 l 1
 165.258789062 34.1728515625 l 1
 167.232421875 139.028320312 l 1
 173.19140625 148.502929688 l 1
 178.18359375 158.524414062 l 1
 179.176757812 158.524414062 l 1
 172.224609375 161.678710938 l 1
 169.221679688 186.440429688 l 1
 170.219726562 229.650390625 l 1
 170.219726562 245.456054688 l 1
 171.225585938 251.766601562 l 1
 172.224609375 274.95703125 l 1
 169.221679688 326.578125 l 1
 167.232421875 345.541992188 l 1
 164.259765625 365.58203125 l 1
 101.594726562 365.58203125 l 1
 58.8369140625 360.83203125 l 1
 49.8779296875 358.72265625 l 1
 31.966796875 358.197265625 l 1
 29.9990234375 373.99609375 l 1
 33.5751953125 393.739257812 l 1
 114.190429688 394.384765625 l 1
EndSplineSet
Validated: 524289
EndChar

StartChar: u
Encoding: 117 117 88
Width: 301
GlyphClass: 1
Flags: HMW
HStem: -6 21G<201.918 201.918> 715 20G<-50.0819 -50.0819>
LayerCount: 2
Fore
SplineSet
35.53515625 142.11328125 m 1
 32.2158203125 201.4609375 l 1
 32.2900390625 231.396484375 l 1
 38.6904296875 258.24609375 l 1
 33.892578125 296.034179688 l 1
 29.9990234375 404.560546875 l 1
 34.025390625 419.478515625 l 1
 74.08203125 417.483398438 l 1
 72.2998046875 384.28515625 l 1
 69.1142578125 350.478515625 l 1
 69.3310546875 333.291992188 l 1
 70.759765625 309.951171875 l 1
 70.759765625 293.049804688 l 1
 64.34765625 250.286132812 l 1
 65.9033203125 226.311523438 l 1
 66.697265625 215.374023438 l 1
 67.5771484375 191.826171875 l 1
 58.9248046875 136.040039062 l 1
 65.31640625 93.7666015625 l 1
 68.5556640625 66.919921875 l 1
 90.16015625 45.048828125 l 1
 103.814453125 42.052734375 l 1
 115.001953125 47.03125 l 1
 136.639648438 57.9716796875 l 1
 172.708984375 73.88671875 l 1
 171.921875 73.88671875 l 1
 175.926757812 76.865234375 l 1
 203.965820312 96.76171875 l 1
 203.159179688 96.76171875 l 1
 224.013671875 111.681640625 l 1
 227.090820312 128.982421875 l 1
 232.6953125 168.9453125 l 1
 231.51953125 190.962890625 l 1
 227.790039062 244.213867188 l 1
 228.659179688 286.087890625 l 1
 235.048828125 300.010742188 l 1
 232.649414062 301.004882812 l 1
 233.45703125 301.004882812 l 1
 227.837890625 304.98828125 l 1
 224.984375 377.15234375 l 1
 226.986328125 405.09375 l 1
 250.235351562 406.100585938 l 1
 267.849609375 405.09375 l 1
 271.060546875 379.219726562 l 1
 267.68359375 365.9296875 l 1
 258.87109375 355.982421875 l 1
 262.078125 346.044921875 l 1
 266.068359375 336.091796875 l 1
 260.704101562 303.987304688 l 1
 259.064453125 278.018554688 l 1
 259.064453125 256.141601562 l 1
 258.2421875 228.301757812 l 1
 263.861328125 206.416015625 l 1
 256.734375 127.005859375 l 1
 263.264648438 60.966796875 l 1
 271.305664062 2.2822265625 l 1
 233.618164062 -5.677734375 l 1
 229.623046875 21.17578125 l 1
 225.635742188 50.01171875 l 1
 216.000976562 61.9560546875 l 1
 125.44140625 10.234375 l 1
 104.622070312 -4.6845703125 l 1
 66.9306640625 -3.697265625 l 1
 30.8701171875 35.091796875 l 1
 30.05859375 75.880859375 l 1
 33.130859375 98.1474609375 l 1
 35.53515625 142.11328125 l 1
EndSplineSet
Validated: 524289
EndChar

StartChar: v
Encoding: 118 118 89
Width: 359
GlyphClass: 1
Flags: HMW
HStem: -6 21G<62.0509 62.0509> 722 20G<208.051 208.051>
LayerCount: 2
Fore
SplineSet
149.196289062 145.165039062 m 1
 165.305664062 81.0322265625 l 1
 175.774414062 52.6103515625 l 1
 178.979492188 39.2275390625 l 1
 180.598632812 38.66015625 l 1
 183.03515625 38.099609375 l 1
 198.307617188 89.40625 l 1
 213.630859375 141.822265625 l 1
 223.307617188 181.387695312 l 1
 232.166992188 199.780273438 l 1
 245.0234375 257.77734375 l 1
 256.323242188 318.546875 l 1
 267.606445312 327.469726562 l 1
 265.16796875 329.703125 l 1
 265.16796875 344.186523438 l 1
 277.25390625 400.499023438 l 1
 282.900390625 404.961914062 l 1
 328.885742188 400.791992188 l 1
 321.633789062 384.07421875 l 1
 307.924804688 344.482421875 l 1
 300.700195312 324.418945312 l 1
 294.25 305.462890625 l 1
 284.5703125 255.844726562 l 1
 274.103515625 206.7734375 l 1
 262.8203125 191.166992188 l 1
 263.627929688 185.02734375 l 1
 264.4375 182.252929688 l 1
 264.4375 180.012695312 l 1
 234.637695312 91.375 l 1
 221.760742188 27.810546875 l 1
 209.677734375 -10.10546875 l 1
 184.631835938 -11.51953125 l 1
 157.55078125 -12.5908203125 l 1
 148.684570312 1.357421875 l 1
 128.53515625 85.5302734375 l 1
 93.91796875 202.620117188 l 1
 83.44921875 223.799804688 l 1
 81.02734375 243.317382812 l 1
 63.298828125 289.592773438 l 1
 56.8662109375 331.974609375 l 1
 29.9990234375 401 l 1
 55.4775390625 408.20703125 l 1
 83.0888671875 405.337890625 l 1
 91.2001953125 350.328125 l 1
 103.297851562 314.084960938 l 1
 97.6396484375 312.412109375 l 1
 98.44921875 312.412109375 l 1
 109.728515625 297.364257812 l 1
 125.0234375 209.274414062 l 1
 149.196289062 145.165039062 l 1
EndSplineSet
Validated: 524289
EndChar

StartChar: w
Encoding: 119 119 90
Width: 441
GlyphClass: 1
Flags: HMW
HStem: -5 21G<20.9211 24.9211 20.9211 20.9211> 722 20G<-26.0789 -26.0789>
LayerCount: 2
Fore
SplineSet
113.431640625 144.99609375 m 1
 118.9921875 93.6279296875 l 1
 121.7734375 73.75390625 l 1
 123.611328125 56.06640625 l 1
 132.834960938 72.0849609375 l 1
 143.274414062 87.2890625 l 1
 151.309570312 108.551757812 l 1
 153.143554688 120.15625 l 1
 182.926757812 165.411132812 l 1
 193.094726562 198.643554688 l 1
 200.32421875 211.043945312 l 1
 224.298828125 214.909179688 l 1
 239.0859375 212.146484375 l 1
 293.98828125 108.436523438 l 1
 317.481445312 49.986328125 l 1
 318.422851562 49.986328125 l 1
 322.090820312 72.083984375 l 1
 343.327148438 264.849609375 l 1
 346.129882812 314.000976562 l 1
 354.411132812 348.801757812 l 1
 351.655273438 401.831054688 l 1
 367.361328125 407.901367188 l 1
 383.948242188 406.241210938 l 1
 411.3515625 403.384765625 l 1
 396.6015625 339.869140625 l 1
 380.89453125 204.5546875 l 1
 367.041015625 197.36328125 l 1
 373.510742188 180.795898438 l 1
 367.041015625 127.220703125 l 1
 359.645507812 30.5673828125 l 1
 356.893554688 11.7919921875 l 1
 356.893554688 -3.1337890625 l 1
 323.953125 -4.6826171875 l 1
 320.229492188 -4.6826171875 l 1
 301.700195312 -3.2353515625 l 1
 301.700195312 1.72265625 l 1
 300.805664062 4.49609375 l 1
 269.41015625 64.1513671875 l 1
 268.55078125 70.8984375 l 1
 247.854492188 109.19921875 l 1
 238.439453125 123.545898438 l 1
 234.094726562 131.452148438 l 1
 235.903320312 142.11328125 l 1
 232.09765625 140.666015625 l 1
 225.301757812 154.840820312 l 1
 221.534179688 167.961914062 l 1
 208.603515625 135.39453125 l 1
 203.077148438 121.010742188 l 1
 200.322265625 117.712890625 l 1
 172.396484375 69.9423828125 l 1
 167.760742188 59.45703125 l 1
 142.831054688 8.0947265625 l 1
 134.987304688 -3.61328125 l 1
 113.428710938 -3.021484375 l 1
 86.296875 -2.1064453125 l 1
 86.296875 20.544921875 l 1
 85.375 23.8583984375 l 1
 75.2412109375 98.4189453125 l 1
 74.3115234375 116.109375 l 1
 73.4072265625 124.92578125 l 1
 73.4072265625 133.768554688 l 1
 50.3056640625 309.953125 l 1
 29.9990234375 402.748046875 l 1
 46.0439453125 405.142578125 l 1
 85.7548828125 407.358398438 l 1
 88.5107421875 388.564453125 l 1
 86.67578125 335.546875 l 1
 87.615234375 328.375 l 1
 87.615234375 308.487304688 l 1
 95.90234375 302.403320312 l 1
 99.59765625 257.672851562 l 1
 103.3203125 213.4921875 l 1
 113.431640625 144.99609375 l 1
EndSplineSet
Validated: 524289
EndChar

StartChar: x
Encoding: 120 120 91
Width: 366
GlyphClass: 1
Flags: HMW
HStem: -9 21G<188.918 198.918> 725 20G<206.918 210.918 210.918 210.918>
LayerCount: 2
Fore
SplineSet
326.30078125 19.228515625 m 1
 336.74609375 2.322265625 l 1
 308.893554688 -4.775390625 l 1
 285.134765625 -6.63671875 l 1
 278.169921875 2.642578125 l 1
 252.942382812 61.0380859375 l 1
 230.344726562 95.9580078125 l 1
 180.729492188 177.275390625 l 1
 119.223632812 63.4453125 l 1
 112.271484375 60.708984375 l 1
 113.153320312 60.708984375 l 1
 113.991210938 47.611328125 l 1
 93.146484375 11.04296875 l 1
 93.146484375 3.951171875 l 1
 84.421875 -7.5048828125 l 1
 34.30859375 2.189453125 l 1
 36.0576171875 15.2998046875 l 1
 47.365234375 26.1962890625 l 1
 78.7177734375 72.5986328125 l 1
 88.265625 82.412109375 l 1
 113.504882812 130.422851562 l 1
 139.379882812 171.477539062 l 1
 157.000976562 206.844726562 l 1
 143.104492188 230.86328125 l 1
 101.348632812 291.9921875 l 1
 63.93359375 344.9140625 l 1
 63.93359375 353.11328125 l 1
 64.7880859375 353.11328125 l 1
 58.6953125 356.376953125 l 1
 29.9990234375 394.579101562 l 1
 73.9951171875 403.961914062 l 1
 77.4716796875 403.961914062 l 1
 85.3212890625 402.885742188 l 1
 91.3916015625 384.323242188 l 1
 97.484375 366.32421875 l 1
 127.055664062 319.399414062 l 1
 137.514648438 296.459960938 l 1
 160.991210938 262.634765625 l 1
 182.725585938 230.430664062 l 1
 207.465820312 278.327148438 l 1
 218.768554688 295.788085938 l 1
 221.383789062 300.16015625 l 1
 223.982421875 303.427734375 l 1
 233.555664062 327.432617188 l 1
 254.463867188 357.999023438 l 1
 273.591796875 404.401367188 l 1
 315.284179688 402.454101562 l 1
 331.799804688 395.892578125 l 1
 294.415039062 341.326171875 l 1
 283.114257812 335.314453125 l 1
 287.422851562 329.862304688 l 1
 246.564453125 270.375 l 1
 236.122070312 252.374023438 l 1
 223.921875 233.825195312 l 1
 207.396484375 208.178710938 l 1
 237.573242188 148.017578125 l 1
 253.224609375 119.640625 l 1
 254.96875 119.640625 l 1
 279.311523438 85.2666015625 l 1
 298.466796875 53.6181640625 l 1
 326.30078125 19.228515625 l 1
EndSplineSet
Validated: 524289
EndChar

StartChar: y
Encoding: 121 121 92
Width: 299
GlyphClass: 1
Flags: HMW
HStem: -3 21G<75.9171 75.9171> 723 20G<178.917 178.917>
LayerCount: 2
Fore
SplineSet
42.0205078125 139.543945312 m 1
 37.9755859375 197.063476562 l 1
 41.6416015625 229.001953125 l 1
 38.8388671875 255.755859375 l 1
 40.3779296875 293.471679688 l 1
 29.9990234375 384.592773438 l 1
 37.3310546875 402.506835938 l 1
 76.3935546875 397.749023438 l 1
 75.9609375 363.014648438 l 1
 71.642578125 338.411132812 l 1
 75.8271484375 330.716796875 l 1
 73.37109375 312.731445312 l 1
 77.2470703125 290.478515625 l 1
 75.3134765625 249.713867188 l 1
 70.99609375 226.408203125 l 1
 73.185546875 212.803710938 l 1
 74.0810546875 189.263671875 l 1
 70.99609375 135.556640625 l 1
 73.1572265625 90.8876953125 l 1
 73.720703125 64.8525390625 l 1
 83.2177734375 34.3369140625 l 1
 103.934570312 38.08984375 l 1
 121.909179688 49.234375 l 1
 143.14453125 55.4150390625 l 1
 166.18359375 70.1630859375 l 1
 172.48828125 69.765625 l 1
 200.791992188 82.2490234375 l 1
 199.416015625 84.8896484375 l 1
 220.276367188 99.81640625 l 1
 224.157226562 126.27734375 l 1
 224.939453125 164.986328125 l 1
 221.272460938 189.159179688 l 1
 224.850585938 241.506835938 l 1
 225.365234375 276.34375 l 1
 228.174804688 285.408203125 l 1
 227.741210938 294.69140625 l 1
 232.493164062 315.840820312 l 1
 225.586914062 311.737304688 l 1
 222.077148438 374.42578125 l 1
 214.141601562 407.557617188 l 1
 247.166992188 415.32421875 l 1
 266.362304688 409.28515625 l 1
 268.150390625 376.532226562 l 1
 267.877929688 366.111328125 l 1
 268.735351562 352.953125 l 1
 263.135742188 341.296875 l 1
 265.72265625 327.918945312 l 1
 262.494140625 301.37890625 l 1
 262.051757812 271.376953125 l 1
 257.744140625 253.46875 l 1
 264.427734375 235.990234375 l 1
 266.15625 200.59375 l 1
 253.92578125 122.764648438 l 1
 260.625 57.5927734375 l 1
 266.875976562 -35.4140625 l 1
 250.043945312 -60.4482421875 l 1
 220.239257812 -91.6767578125 l 1
 201.6328125 -108.470703125 l 1
 182.685546875 -112.180664062 l 1
 194.944335938 -114.494140625 l 1
 166.455078125 -140.169921875 l 1
 146.385742188 -163.909179688 l 1
 121.751953125 -150.525390625 l 1
 106.443359375 -131.103515625 l 1
 100.259765625 -110.8203125 l 1
 137.52734375 -97.65625 l 1
 177.884765625 -67.0048828125 l 1
 178.534179688 -59.8857421875 l 1
 200.115234375 -39.818359375 l 1
 206.590820312 -38.0966796875 l 1
 219.540039062 -25.7919921875 l 1
 219.76171875 -5.9384765625 l 1
 222.696289062 47.3037109375 l 1
 220.399414062 58.80859375 l 1
 133.377929688 11.46875 l 1
 110.700195312 -5.15625 l 1
 70.916015625 -3.7822265625 l 1
 38.8388671875 24.40625 l 1
 35.3974609375 71.029296875 l 1
 37.5498046875 95.4140625 l 1
 42.0205078125 139.543945312 l 1
EndSplineSet
Validated: 524289
EndChar

StartChar: z
Encoding: 122 122 93
Width: 307
GlyphClass: 1
Flags: HMW
HStem: -1 21G<202.916 202.916> 715 20G<179.916 192.916 192.916 192.916>
LayerCount: 2
Fore
SplineSet
56.1640625 -6.478515625 m 1
 36.3359375 -5.2275390625 l 1
 33.39453125 0.54296875 l 1
 29.9990234375 12.412109375 l 1
 31.71875 23.2001953125 l 1
 40.193359375 27.5830078125 l 1
 41.21875 31.40234375 l 1
 74.2958984375 76.275390625 l 1
 94.927734375 121.169921875 l 1
 111.088867188 158.5078125 l 1
 155.924804688 232.091796875 l 1
 183.759765625 288.8828125 l 2
 183.759765625 289.436523438 184.654296875 291.057617188 184.654296875 293.2265625 c 2
 184.654296875 296.4609375 l 1
 210.193359375 370.215820312 l 1
 206.01953125 372.489257812 l 1
 94.736328125 371.948242188 l 1
 38.525390625 365.549804688 l 1
 33.126953125 369.353515625 l 1
 33.126953125 380.17578125 l 1
 37.08984375 404.420898438 l 1
 61.31640625 402.80859375 l 1
 129.756835938 400.751953125 l 1
 183.598632812 400.212890625 l 1
 229.350585938 401.833984375 l 1
 265.223632812 401.833984375 l 1
 277.147460938 376.926757812 l 1
 234.990234375 309.293945312 l 1
 234.990234375 297.383789062 l 1
 195.516601562 238.950195312 l 1
 167.713867188 177.82421875 l 1
 123.732421875 97.765625 l 1
 116.560546875 92.33984375 l 1
 115.647460938 92.33984375 l 1
 121.931640625 90.71875 l 1
 107.040039062 59.6767578125 l 1
 100.75390625 43.982421875 l 1
 94.490234375 29.3779296875 l 1
 93.58203125 29.3779296875 l 1
 98.97265625 27.224609375 l 2
 102.572265625 27.224609375 109.743164062 27.755859375 115.133789062 27.755859375 c 2
 160.880859375 27.755859375 l 1
 219.176757812 29.921875 l 1
 255.97265625 34.78515625 l 1
 270.329101562 36.4189453125 l 1
 277.526367188 32.62109375 l 1
 267.009765625 -5.9365234375 l 1
 212.276367188 -4.84765625 l 1
 205.098632812 -3.78125 l 1
 138.704101562 -3.78125 l 1
 83.0595703125 -5.3974609375 l 1
 56.1640625 -6.478515625 l 1
EndSplineSet
Validated: 524289
EndChar

StartChar: braceleft
Encoding: 123 123 94
Width: 251
GlyphClass: 1
Flags: MW
HStem: -84 894<225 227>
VStem: 28 40 84 49
LayerCount: 2
Fore
SplineSet
126 452 m 1
 104 632 l 1
 113 645 l 1
 101 653 l 1
 89 729 l 1
 98 748 l 1
 179 786 l 1
 225 810 l 1
 237 802 l 1
 245 766 l 1
 185 749 l 1
 135 725 l 1
 134 690 l 1
 157 494 l 1
 166 459 l 1
 169 436 l 1
 69 373 l 1
 82 363 l 1
 146 325 l 1xe0
 173 304 l 1
 145 165 l 1
 133 142 l 1
 139 122 l 1
 133 36 l 1
 134 15 l 1
 243 -37 l 1
 248 -44 l 1
 227 -84 l 1
 129 -20 l 1
 90 -8 l 1
 83 12 l 1
 86 34 l 1
 93 61 l 1
 127 289 l 1
 84 321 l 1xa0
 28 351 l 1
 29 394 l 1
 73 418 l 1
 83 411 l 1
 81 422 l 1
 126 452 l 1
EndSplineSet
Validated: 1
EndChar

StartChar: bar
Encoding: 124 124 95
Width: 205
GlyphClass: 1
Flags: MW
HStem: -104 21G<89 89> 773 20G<113 113>
LayerCount: 2
Fore
SplineSet
118 439 m 1
 120 378 l 1
 123 344 l 1
 123 -36 l 1
 132 -100 l 1
 116 -101 l 1
 89 -104 l 1
 75 -98 l 1
 73 -79 l 1
 77 -59 l 1
 79 -38 l 1
 79 22 l 1
 88 40 l 1
 79 46 l 1
 81 359 l 1
 91 365 l 1
 83 383 l 1
 83 412 l 1
 87 461 l 1
 84 565 l 1
 81 705 l 1
 76 734 l 1
 73 790 l 1
 113 793 l 1
 131 788 l 1
 128 739 l 1
 119 729 l 1
 128 718 l 1
 124 471 l 1
 118 439 l 1
EndSplineSet
Validated: 1
EndChar

StartChar: braceright
Encoding: 125 125 96
Width: 252
GlyphClass: 1
Flags: MW
HStem: -84 891<30 35>
VStem: 124 46 187 40<348 369>
LayerCount: 2
Fore
SplineSet
130 290 m 1
 152 102 l 1
 143 89 l 1
 155 81 l 1
 168 5 l 1
 159 -14 l 1
 75 -59 l 1
 35 -84 l 1
 23 -76 l 1
 10 -40 l 1
 71 -22 l 1
 121 9 l 1
 121 23 122 31 122 44 c 2
 101 238 l 1
 92 283 l 1
 89 306 l 1
 187 369 l 1
 174 379 l 1
 110 418 l 1xe0
 83 438 l 1
 111 577 l 1
 123 600 l 1
 117 621 l 1
 125 696 l 2
 125 703 124 710 124 717 c 1
 15 762 l 1
 10 769 l 1
 30 807 l 1
 129 752 l 1
 167 735 l 1
 173 715 l 1
 168 695 l 1
 163 669 l 1
 129 453 l 1
 172 422 l 1xc0
 228 391 l 1
 227 348 l 1
 184 327 l 1
 173 331 l 1
 175 321 l 1
 130 290 l 1
EndSplineSet
Validated: 1
EndChar

StartChar: asciitilde
Encoding: 126 126 97
Width: 455
GlyphClass: 1
Flags: MW
HStem: -3 38<371 371> 0 35 701 36 724 14<44 49>
VStem: 45 28 383 28
LayerCount: 2
Fore
SplineSet
72 -2 m 1xac
 67 0 l 1xac
 51 -2 l 1
 40 0 l 1
 40 34 l 1
 48 58 l 1
 42 90 l 1
 47 268 l 1
 44 619 l 1
 51 644 l 1
 44 653 l 1
 42 722 l 1
 49 724 l 1x5c
 44 738 l 1
 240 735 l 1
 249 736 l 1
 345 736 l 1
 355 734 l 1
 403 738 l 1
 417 736 l 1
 419 702 l 1
 413 679 l 1
 416 647 l 1
 410 480 l 1
 413 117 l 1
 406 92 l 1
 417 83 l 1
 416 16 l 1
 415 -1 l 1
 371 -3 l 1xac
 177 1 l 1
 168 0 l 1
 112 0 l 1x6c
 100 2 l 1
 72 -2 l 1xac
80 94 m 1
 77 33 l 1
 355 35 l 1
 372 35 l 1
 376 108 l 1
 377 227 l 1
 383 348 l 1
 383 398 l 1
 382 411 l 1
 381 498 l 1
 381 503 l 1
 378 556 l 1
 390 561 l 1
 378 578 l 1
 379 636 l 1
 380 702 l 1
 86 701 l 1
 85 646 l 1
 84 639 l 1
 80 521 l 1
 74 400 l 1
 74 350 l 1
 75 337 l 1
 76 250 l 1
 76 245 l 1
 79 192 l 1
 67 176 l 1
 79 170 l 1
 79 91 l 1
 80 94 l 1
EndSplineSet
Validated: 1
EndChar

StartChar: exclamdown
Encoding: 161 161 99
Width: 212
GlyphClass: 1
Flags: MW
HStem: -43 20G 463 21G
VStem: 81 45
LayerCount: 2
Fore
SplineSet
88 283 m 1
 86 344 l 1
 89 370 l 1
 85 379 l 1
 85 399 86 419 86 439 c 2
 79 486 l 1
 82 504 l 1
 106 504 l 1
 126 491 l 1
 120 364 l 1
 123 258 l 1
 117 239 l 1
 126 203 l 1
 133 79 l 1
 129 59 l 1
 135 51 l 1
 139 1 l 1
 90 -3 l 1
 74 3 l 1
 76 28 l 1
 77 58 l 1
 92 74 l 1
 78 87 l 1
 84 234 l 1
 88 283 l 1
148 685 m 1
 135 673 l 2
 133 673 129 675 127 675 c 2
 122 660 l 1
 112 644 l 1
 101 643 l 1
 96 650 88 657 83 664 c 2
 60 684 l 1
 59 697 l 1
 85 719 l 2
 86 719 91 721 92 721 c 2
 94 724 l 1
 93 723 l 1
 92 729 l 1
 99 739 l 1
 108 740 l 1
 126 714 l 1
 148 696 l 1
 148 685 l 1
EndSplineSet
Validated: 1
EndChar

StartChar: cent
Encoding: 162 162 100
Width: 351
GlyphClass: 1
Flags: MW
HStem: -8 21G<209 226 209 209> 719 20G<199 199>
LayerCount: 2
Fore
SplineSet
289 482 m 1
 271 462 l 1
 261 462 l 1
 221 504 l 1
 202 519 l 1
 176 519 l 1
 135 472 l 1
 95 419 l 1
 82 412 l 1
 82 413 l 1
 61 365 l 1
 108 309 l 1
 108 289 l 1
 138 270 l 1
 165 236 l 1
 200 209 l 1
 239 231 l 1
 261 256 l 1
 278 255 l 1
 295 230 l 1
 288 217 l 1
 240 191 l 1
 217 162 l 1
 217 45 l 1
 226 -8 l 1
 209 -8 l 1
 182 -11 l 1
 167 -6 l 1
 165 10 l 1
 169 26 l 1
 171 43 l 1
 171 87 l 1
 181 102 l 1
 171 107 l 1
 171 155 l 1
 115 228 l 1
 12 340 l 1
 14 394 l 1
 57 434 l 1
 113 498 l 1
 164 556 l 1
 168 557 l 1
 168 575 l 1
 170 669 l 1
 165 692 l 1
 162 737 l 1
 199 739 l 1
 218 735 l 1
 215 697 l 1
 208 688 l 1
 215 684 l 1
 209 566 l 1
 217 568 l 1
 216 567 l 1
 255 527 l 1
 292 503 l 1
 289 482 l 1
EndSplineSet
Validated: 1
EndChar

StartChar: sterling
Encoding: 163 163 101
Width: 317
GlyphClass: 1
Flags: MW
HStem: 23 21G 713 20G<195 195>
LayerCount: 2
Fore
SplineSet
57 392 m 2
 94 391 l 1
 92 603 l 1
 114 642 l 1
 195 733 l 1
 239 736 l 1
 296 727 l 1
 292 690 l 1
 284 677 l 1
 253 690 l 1
 219 696 l 1
 177 655 l 1
 138 596 l 1
 135 519 l 1
 131 400 l 1
 131 392 l 1
 204 394 l 1
 241 398 l 1
 246 391 l 1
 241 357 l 1
 226 349 l 1
 140 356 l 1
 131 356 l 1
 131 350 l 1
 132 337 l 1
 131 251 l 1
 131 246 l 1
 134 191 l 1
 125 187 l 1
 126 187 l 1
 134 173 l 1
 139 97 l 1
 140 65 l 1
 135 60 l 1
 146 50 l 1
 244 38 l 1
 268 54 l 1
 290 67 l 1
 296 58 l 1
 308 33 l 1
 300 25 l 1
 249 -1 l 1
 218 0 l 1
 222 -1 l 1
 114 25 l 1
 67 34 l 1
 28 -3 l 1
 7 5 l 1
 -1 36 l 1
 58 71 l 1
 93 63 l 1
 92 92 l 1
 95 269 l 1
 94 357 l 1
 60 357 l 1
 49 355 l 2
 42 353 35 351 27 351 c 2
 14 353 l 1
 16 368 l 1
 16 376 l 2
 16 379 15 382 15 385 c 2
 15 394 l 1
 21 396 l 2
 31 396 37 398 44 396 c 0
 51 394 48 392 57 392 c 2
EndSplineSet
Validated: 1
EndChar

StartChar: currency
Encoding: 164 164 102
Width: 455
GlyphClass: 1
Flags: MW
HStem: -3 38<371 371> 0 35 701 36 724 14<44 49>
VStem: 45 28 383 28
LayerCount: 2
Fore
SplineSet
72 -2 m 1xac
 67 0 l 1xac
 51 -2 l 1
 40 0 l 1
 40 34 l 1
 48 58 l 1
 42 90 l 1
 47 268 l 1
 44 619 l 1
 51 644 l 1
 44 653 l 1
 42 722 l 1
 49 724 l 1x5c
 44 738 l 1
 240 735 l 1
 249 736 l 1
 345 736 l 1
 355 734 l 1
 403 738 l 1
 417 736 l 1
 419 702 l 1
 413 679 l 1
 416 647 l 1
 410 480 l 1
 413 117 l 1
 406 92 l 1
 417 83 l 1
 416 16 l 1
 415 -1 l 1
 371 -3 l 1xac
 177 1 l 1
 168 0 l 1
 112 0 l 1x6c
 100 2 l 1
 72 -2 l 1xac
80 94 m 1
 77 33 l 1
 355 35 l 1
 372 35 l 1
 376 108 l 1
 377 227 l 1
 383 348 l 1
 383 398 l 1
 382 411 l 1
 381 498 l 1
 381 503 l 1
 378 556 l 1
 390 561 l 1
 378 578 l 1
 379 636 l 1
 380 702 l 1
 86 701 l 1
 85 646 l 1
 84 639 l 1
 80 521 l 1
 74 400 l 1
 74 350 l 1
 75 337 l 1
 76 250 l 1
 76 245 l 1
 79 192 l 1
 67 176 l 1
 79 170 l 1
 79 91 l 1
 80 94 l 1
EndSplineSet
Validated: 1
EndChar

StartChar: yen
Encoding: 165 165 103
Width: 391
GlyphClass: 1
Flags: MW
HStem: 0 21G 728 20G
VStem: 172 44
LayerCount: 2
Fore
SplineSet
95 334 m 1
 163 334 l 1
 175 332 l 1
 173 347 l 1
 170 368 l 1
 169 376 l 1
 144 440 l 1
 133 465 l 1
 102 543 l 1
 67 623 l 1
 64 641 l 1
 22 713 l 1
 25 729 l 1
 55 737 l 1
 76 741 l 1
 87 706 l 1
 85 693 l 1
 94 682 l 1
 104 659 l 1
 123 612 l 1
 135 572 l 1
 163 494 l 1
 176 465 l 1
 196 412 l 1
 199 407 l 1
 204 404 l 1
 206 410 l 1
 212 422 l 1
 213 426 l 1
 219 441 l 1
 230 463 l 1
 248 514 l 1
 263 563 l 1
 283 604 l 1
 305 685 l 1
 314 722 l 1
 318 743 l 1
 345 740 l 1
 360 733 l 1
 371 725 l 1
 349 668 l 1
 337 651 l 1
 325 625 l 1
 313 600 l 1
 293 540 l 1
 252 430 l 1
 217 345 l 1
 217 333 l 1
 339 342 l 1
 342 295 l 1
 326 287 l 1
 233 298 l 2
 228 298 222 296 217 296 c 1
 217 283 l 1
 218 244 l 1
 219 232 l 1
 219 205 l 1
 218 200 l 1
 267 205 l 1
 295 207 l 1
 324 215 l 1
 347 215 l 1
 342 172 l 1
 326 164 l 1
 275 171 l 1
 259 174 l 1
 217 169 l 1
 215 124 l 1
 219 103 l 1
 218 60 l 1
 224 4 l 1
 215 -3 l 1
 166 -1 l 1
 168 29 l 1
 178 102 l 1
 181 115 l 1
 179 125 l 1
 178 170 l 1
 110 174 l 1
 82 168 l 1
 53 166 l 1
 43 168 l 1
 44 185 l 1
 43 195 l 1
 49 217 l 1
 76 213 l 1
 177 204 l 1
 175 267 l 1
 176 296 l 1
 105 297 l 1
 76 290 l 1
 53 289 l 1
 43 291 l 1
 46 313 l 2
 46 318 44 327 44 331 c 2
 49 339 l 1
 69 341 l 1
 95 334 l 1
EndSplineSet
Validated: 1
EndChar

StartChar: brokenbar
Encoding: 166 166 104
Width: 204
GlyphClass: 1
Flags: MW
HStem: -104 21G<89 89> 773 20G<113 113>
LayerCount: 2
Fore
SplineSet
111 337 m 1
 125 331 l 1
 121 298 l 1
 116 290 l 1
 120 283 l 1
 117 215 l 1
 123 -36 l 1
 131 -99 l 1
 116 -101 l 1
 89 -104 l 1
 75 -98 l 1
 73 -79 l 1
 77 -59 l 1
 79 -38 l 1
 79 22 l 1
 88 40 l 1
 79 46 l 1
 85 245 l 1
 81 296 l 1
 79 331 l 1
 111 337 l 1
97 421 m 1
 82 427 l 1
 86 461 l 1
 88 565 l 1
 81 697 l 1
 76 726 l 1
 73 790 l 1
 113 793 l 1
 131 788 l 1
 128 731 l 1
 121 721 l 1
 128 716 l 1
 121 563 l 1
 118 471 l 1
 121 439 l 1
 119 425 l 1
 97 421 l 1
EndSplineSet
Validated: 1
EndChar

StartChar: section
Encoding: 167 167 105
Width: 455
GlyphClass: 1
Flags: MW
HStem: -3 38<371 371> 0 35 701 36 724 14<44 49>
VStem: 45 28 383 28
LayerCount: 2
Fore
SplineSet
72 -2 m 1xac
 67 0 l 1xac
 51 -2 l 1
 40 0 l 1
 40 34 l 1
 48 58 l 1
 42 90 l 1
 47 268 l 1
 44 619 l 1
 51 644 l 1
 44 653 l 1
 42 722 l 1
 49 724 l 1x5c
 44 738 l 1
 240 735 l 1
 249 736 l 1
 345 736 l 1
 355 734 l 1
 403 738 l 1
 417 736 l 1
 419 702 l 1
 413 679 l 1
 416 647 l 1
 410 480 l 1
 413 117 l 1
 406 92 l 1
 417 83 l 1
 416 16 l 1
 415 -1 l 1
 371 -3 l 1xac
 177 1 l 1
 168 0 l 1
 112 0 l 1x6c
 100 2 l 1
 72 -2 l 1xac
80 94 m 1
 77 33 l 1
 355 35 l 1
 372 35 l 1
 376 108 l 1
 377 227 l 1
 383 348 l 1
 383 398 l 1
 382 411 l 1
 381 498 l 1
 381 503 l 1
 378 556 l 1
 390 561 l 1
 378 578 l 1
 379 636 l 1
 380 702 l 1
 86 701 l 1
 85 646 l 1
 84 639 l 1
 80 521 l 1
 74 400 l 1
 74 350 l 1
 75 337 l 1
 76 250 l 1
 76 245 l 1
 79 192 l 1
 67 176 l 1
 79 170 l 1
 79 91 l 1
 80 94 l 1
EndSplineSet
Validated: 1
EndChar

StartChar: dieresis
Encoding: 168 168 106
Width: 220
GlyphClass: 1
Flags: MW
HStem: 782 75<56 62>
VStem: 20 180<815 826>
LayerCount: 2
Fore
SplineSet
90 828 m 1
 95 819 l 1
 76 800 l 1
 62 782 l 1
 51 786 l 1
 37 800 l 1
 20 815 l 1
 22 827 l 1
 56 857 l 1
 65 856 l 1
 90 828 l 1
130 812 m 1
 126 820 l 1
 145 839 l 1
 157 857 l 1
 170 854 l 1
 185 839 l 1
 200 826 l 1
 198 813 l 1
 164 782 l 1
 155 784 l 1
 130 812 l 1
EndSplineSet
Validated: 1
EndChar

StartChar: copyright
Encoding: 169 169 107
Width: 455
GlyphClass: 1
Flags: MW
HStem: -3 38<371 371> 0 35 701 36 724 14<44 49>
VStem: 45 28 383 28
LayerCount: 2
Fore
SplineSet
72 -2 m 1xac
 67 0 l 1xac
 51 -2 l 1
 40 0 l 1
 40 34 l 1
 48 58 l 1
 42 90 l 1
 47 268 l 1
 44 619 l 1
 51 644 l 1
 44 653 l 1
 42 722 l 1
 49 724 l 1x5c
 44 738 l 1
 240 735 l 1
 249 736 l 1
 345 736 l 1
 355 734 l 1
 403 738 l 1
 417 736 l 1
 419 702 l 1
 413 679 l 1
 416 647 l 1
 410 480 l 1
 413 117 l 1
 406 92 l 1
 417 83 l 1
 416 16 l 1
 415 -1 l 1
 371 -3 l 1xac
 177 1 l 1
 168 0 l 1
 112 0 l 1x6c
 100 2 l 1
 72 -2 l 1xac
80 94 m 1
 77 33 l 1
 355 35 l 1
 372 35 l 1
 376 108 l 1
 377 227 l 1
 383 348 l 1
 383 398 l 1
 382 411 l 1
 381 498 l 1
 381 503 l 1
 378 556 l 1
 390 561 l 1
 378 578 l 1
 379 636 l 1
 380 702 l 1
 86 701 l 1
 85 646 l 1
 84 639 l 1
 80 521 l 1
 74 400 l 1
 74 350 l 1
 75 337 l 1
 76 250 l 1
 76 245 l 1
 79 192 l 1
 67 176 l 1
 79 170 l 1
 79 91 l 1
 80 94 l 1
EndSplineSet
Validated: 1
EndChar

StartChar: ordfeminine
Encoding: 170 170 108
Width: 455
GlyphClass: 1
Flags: MW
HStem: -3 38<371 371> 0 35 701 36 724 14<44 49>
VStem: 45 28 383 28
LayerCount: 2
Fore
SplineSet
72 -2 m 1xac
 67 0 l 1xac
 51 -2 l 1
 40 0 l 1
 40 34 l 1
 48 58 l 1
 42 90 l 1
 47 268 l 1
 44 619 l 1
 51 644 l 1
 44 653 l 1
 42 722 l 1
 49 724 l 1x5c
 44 738 l 1
 240 735 l 1
 249 736 l 1
 345 736 l 1
 355 734 l 1
 403 738 l 1
 417 736 l 1
 419 702 l 1
 413 679 l 1
 416 647 l 1
 410 480 l 1
 413 117 l 1
 406 92 l 1
 417 83 l 1
 416 16 l 1
 415 -1 l 1
 371 -3 l 1xac
 177 1 l 1
 168 0 l 1
 112 0 l 1x6c
 100 2 l 1
 72 -2 l 1xac
80 94 m 1
 77 33 l 1
 355 35 l 1
 372 35 l 1
 376 108 l 1
 377 227 l 1
 383 348 l 1
 383 398 l 1
 382 411 l 1
 381 498 l 1
 381 503 l 1
 378 556 l 1
 390 561 l 1
 378 578 l 1
 379 636 l 1
 380 702 l 1
 86 701 l 1
 85 646 l 1
 84 639 l 1
 80 521 l 1
 74 400 l 1
 74 350 l 1
 75 337 l 1
 76 250 l 1
 76 245 l 1
 79 192 l 1
 67 176 l 1
 79 170 l 1
 79 91 l 1
 80 94 l 1
EndSplineSet
Validated: 1
EndChar

StartChar: guillemotleft
Encoding: 171 171 109
Width: 375
GlyphClass: 1
Flags: MW
HStem: 166 358<166 167 167 311>
VStem: 19 41<348 348 348 361 348 361> 164 41<348 348 348 361 348 361>
LayerCount: 2
Fore
SplineSet
75 420 m 1
 94 439 l 1
 138 487 l 1
 136 488 l 1
 167 524 l 1
 195 505 l 1
 202 493 l 1
 164 456 l 1
 145 442 l 1
 116 409 l 1
 60 348 l 1
 119 278 l 1
 128 270 l 1
 178 223 l 1
 200 205 l 1
 188 181 l 1
 166 166 l 1
 146 189 l 1
 142 200 l 1
 142 214 l 1
 108 237 l 1
 83 271 l 1
 74 273 l 1
 24 325 l 1
 19 330 l 1
 19 361 l 1
 51 395 l 1
 77 411 l 1
 75 420 l 1
220 420 m 1
 239 439 l 1
 283 487 l 1
 281 488 l 1
 312 524 l 1
 340 505 l 1
 347 493 l 1
 309 456 l 1
 290 442 l 1
 261 409 l 1
 205 348 l 1
 264 278 l 1
 273 270 l 1
 323 223 l 1
 345 205 l 1
 333 181 l 1
 311 166 l 1
 291 189 l 1
 287 200 l 1
 287 214 l 1
 253 237 l 1
 228 271 l 1
 219 273 l 1
 169 325 l 1
 164 330 l 1
 164 361 l 1
 196 395 l 1
 222 411 l 1
 220 420 l 1
EndSplineSet
Validated: 1
EndChar

StartChar: logicalnot
Encoding: 172 172 110
Width: 370
GlyphClass: 1
Flags: MW
HStem: 361 37
VStem: 18 8 315 36
LayerCount: 2
Fore
SplineSet
78 399 m 2
 192 399 l 1
 264 395 l 2
 278 396 295 399 310 400 c 2
 346 404 l 1
 353 390 l 1
 350 306 l 2
 350 279 352 250 352 223 c 2
 353 187 l 1
 306 190 l 1
 306 226 l 1
 316 257 l 1
 316 279 314 312 314 334 c 1
 306 356 l 1
 272 363 l 1
 234 366 l 1
 208 359 l 1
 83 364 l 1
 59 357 l 1
 30 350 l 1
 20 352 l 1
 17 395 l 1
 27 406 l 1
 52 400 l 2
 59 400 72 399 78 399 c 2
EndSplineSet
Validated: 1
EndChar

StartChar: uni00AD
Encoding: 173 173 111
Width: 264
GlyphClass: 1
Flags: MW
HStem: 356 37<131 165>
VStem: 32 202<352 358> 33 200<394 397>
LayerCount: 2
Fore
SplineSet
85 394 m 1xa0
 131 393 l 1
 193 396 l 1
 228 401 l 1
 233 394 l 1
 234 358 l 1
 220 351 l 1
 165 356 l 1
 88 357 l 1
 67 354 l 1
 45 350 l 1
 32 352 l 1
 34 369 l 1
 33 397 l 1
 39 399 l 1
 62 397 l 1
 85 394 l 1xa0
EndSplineSet
Validated: 1
EndChar

StartChar: registered
Encoding: 174 174 112
Width: 455
GlyphClass: 1
Flags: MW
HStem: -3 38<371 371> 0 35 701 36 724 14<44 49>
VStem: 45 28 383 28
LayerCount: 2
Fore
SplineSet
72 -2 m 1xac
 67 0 l 1xac
 51 -2 l 1
 40 0 l 1
 40 34 l 1
 48 58 l 1
 42 90 l 1
 47 268 l 1
 44 619 l 1
 51 644 l 1
 44 653 l 1
 42 722 l 1
 49 724 l 1x5c
 44 738 l 1
 240 735 l 1
 249 736 l 1
 345 736 l 1
 355 734 l 1
 403 738 l 1
 417 736 l 1
 419 702 l 1
 413 679 l 1
 416 647 l 1
 410 480 l 1
 413 117 l 1
 406 92 l 1
 417 83 l 1
 416 16 l 1
 415 -1 l 1
 371 -3 l 1xac
 177 1 l 1
 168 0 l 1
 112 0 l 1x6c
 100 2 l 1
 72 -2 l 1xac
80 94 m 1
 77 33 l 1
 355 35 l 1
 372 35 l 1
 376 108 l 1
 377 227 l 1
 383 348 l 1
 383 398 l 1
 382 411 l 1
 381 498 l 1
 381 503 l 1
 378 556 l 1
 390 561 l 1
 378 578 l 1
 379 636 l 1
 380 702 l 1
 86 701 l 1
 85 646 l 1
 84 639 l 1
 80 521 l 1
 74 400 l 1
 74 350 l 1
 75 337 l 1
 76 250 l 1
 76 245 l 1
 79 192 l 1
 67 176 l 1
 79 170 l 1
 79 91 l 1
 80 94 l 1
EndSplineSet
Validated: 1
EndChar

StartChar: degree
Encoding: 176 176 113
Width: 256
GlyphClass: 1
Flags: MW
HStem: 545 41 729 40<127 133 127 127>
VStem: 26 35 194 39<652 667 661 667>
LayerCount: 2
Fore
SplineSet
23 665 m 1
 79 720 l 1
 89 734 l 1
 103 744 l 1
 119 769 l 1
 138 769 l 1
 176 727 l 1
 177 718 l 1
 192 706 l 1
 233 667 l 1
 234 649 l 1
 190 602 l 1
 179 602 l 1
 180 590 l 1
 138 547 l 1
 120 544 l 1
 105 561 l 1
 83 590 l 1
 27 644 l 1
 26 655 l 1
 23 665 l 1
92 690 m 1
 86 682 l 1
 62 661 l 1
 62 656 l 1
 88 627 l 1
 84 619 l 1
 101 614 l 1
 129 586 l 1
 134 587 l 1
 159 615 l 1
 194 652 l 1
 194 661 l 1
 171 688 l 1
 133 729 l 1
 127 729 l 1
 92 690 l 1
EndSplineSet
Validated: 1
EndChar

StartChar: plusminus
Encoding: 177 177 114
Width: 370
GlyphClass: 1
Flags: MW
HStem: 14 32<174 188 174 201> 345 33
VStem: 168 38 170 33
LayerCount: 2
Fore
SplineSet
135 378 m 1xe0
 169 377 l 1
 170 409 l 1
 170 454 l 1
 166 460 l 1
 162 540 l 1
 170 556 l 1
 213 555 l 1
 211 511 l 1
 202 429 l 1
 205 377 l 1
 205 376 l 1
 209 376 l 1
 271 379 l 1xd0
 309 385 l 1
 350 388 l 1
 350 367 l 1
 347 342 l 1
 331 335 l 1
 278 341 l 1
 236 345 l 1
 205 345 l 1
 208 228 l 1
 213 202 l 1
 214 177 l 1
 192 171 l 1
 162 171 l 1
 159 181 l 1
 163 210 l 1
 166 232 l 1
 168 314 l 1
 168 345 l 1
 132 346 l 1
 76 344 l 1
 29 338 l 1
 19 340 l 1
 24 378 l 1
 28 389 l 1
 50 387 l 1
 72 383 l 1
 109 378 l 1
 135 378 l 1xe0
81 50 m 1
 174 46 l 2
 202 46 231 47 259 47 c 2
 314 53 l 1
 347 55 l 1
 341 12 l 1
 325 3 l 1
 285 11 l 2
 274 11 260 13 248 13 c 2
 201 14 l 1
 94 14 l 1
 63 10 l 1
 33 7 l 1
 23 10 l 1
 25 42 l 1
 29 60 l 1
 55 56 l 1
 81 50 l 1
EndSplineSet
Validated: 1
EndChar

StartChar: twosuperior
Encoding: 178 178 115
Width: 455
GlyphClass: 1
Flags: MW
HStem: -3 38<371 371> 0 35 701 36 724 14<44 49>
VStem: 45 28 383 28
LayerCount: 2
Fore
SplineSet
72 -2 m 1xac
 67 0 l 1xac
 51 -2 l 1
 40 0 l 1
 40 34 l 1
 48 58 l 1
 42 90 l 1
 47 268 l 1
 44 619 l 1
 51 644 l 1
 44 653 l 1
 42 722 l 1
 49 724 l 1x5c
 44 738 l 1
 240 735 l 1
 249 736 l 1
 345 736 l 1
 355 734 l 1
 403 738 l 1
 417 736 l 1
 419 702 l 1
 413 679 l 1
 416 647 l 1
 410 480 l 1
 413 117 l 1
 406 92 l 1
 417 83 l 1
 416 16 l 1
 415 -1 l 1
 371 -3 l 1xac
 177 1 l 1
 168 0 l 1
 112 0 l 1x6c
 100 2 l 1
 72 -2 l 1xac
80 94 m 1
 77 33 l 1
 355 35 l 1
 372 35 l 1
 376 108 l 1
 377 227 l 1
 383 348 l 1
 383 398 l 1
 382 411 l 1
 381 498 l 1
 381 503 l 1
 378 556 l 1
 390 561 l 1
 378 578 l 1
 379 636 l 1
 380 702 l 1
 86 701 l 1
 85 646 l 1
 84 639 l 1
 80 521 l 1
 74 400 l 1
 74 350 l 1
 75 337 l 1
 76 250 l 1
 76 245 l 1
 79 192 l 1
 67 176 l 1
 79 170 l 1
 79 91 l 1
 80 94 l 1
EndSplineSet
Validated: 1
EndChar

StartChar: threesuperior
Encoding: 179 179 116
Width: 455
GlyphClass: 1
Flags: MW
HStem: -3 38<371 371> 0 35 701 36 724 14<44 49>
VStem: 45 28 383 28
LayerCount: 2
Fore
SplineSet
72 -2 m 1xac
 67 0 l 1xac
 51 -2 l 1
 40 0 l 1
 40 34 l 1
 48 58 l 1
 42 90 l 1
 47 268 l 1
 44 619 l 1
 51 644 l 1
 44 653 l 1
 42 722 l 1
 49 724 l 1x5c
 44 738 l 1
 240 735 l 1
 249 736 l 1
 345 736 l 1
 355 734 l 1
 403 738 l 1
 417 736 l 1
 419 702 l 1
 413 679 l 1
 416 647 l 1
 410 480 l 1
 413 117 l 1
 406 92 l 1
 417 83 l 1
 416 16 l 1
 415 -1 l 1
 371 -3 l 1xac
 177 1 l 1
 168 0 l 1
 112 0 l 1x6c
 100 2 l 1
 72 -2 l 1xac
80 94 m 1
 77 33 l 1
 355 35 l 1
 372 35 l 1
 376 108 l 1
 377 227 l 1
 383 348 l 1
 383 398 l 1
 382 411 l 1
 381 498 l 1
 381 503 l 1
 378 556 l 1
 390 561 l 1
 378 578 l 1
 379 636 l 1
 380 702 l 1
 86 701 l 1
 85 646 l 1
 84 639 l 1
 80 521 l 1
 74 400 l 1
 74 350 l 1
 75 337 l 1
 76 250 l 1
 76 245 l 1
 79 192 l 1
 67 176 l 1
 79 170 l 1
 79 91 l 1
 80 94 l 1
EndSplineSet
Validated: 1
EndChar

StartChar: acute
Encoding: 180 180 117
Width: 156
GlyphClass: 1
Flags: MW
HStem: 774 109<49 94>
VStem: 20 116<781 862 788 862>
LayerCount: 2
Fore
SplineSet
115 839 m 1
 72 800 l 1
 56 780 l 1
 49 774 l 1
 20 781 l 1
 20 788 l 1
 45 817 l 1
 87 877 l 1
 94 883 l 1
 132 870 l 1
 136 862 l 1
 115 839 l 1
EndSplineSet
Validated: 1
EndChar

StartChar: mu
Encoding: 181 181 118
Width: 455
GlyphClass: 1
Flags: MW
HStem: -3 38<371 371> 0 35 701 36 724 14<44 49>
VStem: 45 28 383 28
LayerCount: 2
Fore
SplineSet
72 -2 m 1xac
 67 0 l 1xac
 51 -2 l 1
 40 0 l 1
 40 34 l 1
 48 58 l 1
 42 90 l 1
 47 268 l 1
 44 619 l 1
 51 644 l 1
 44 653 l 1
 42 722 l 1
 49 724 l 1x5c
 44 738 l 1
 240 735 l 1
 249 736 l 1
 345 736 l 1
 355 734 l 1
 403 738 l 1
 417 736 l 1
 419 702 l 1
 413 679 l 1
 416 647 l 1
 410 480 l 1
 413 117 l 1
 406 92 l 1
 417 83 l 1
 416 16 l 1
 415 -1 l 1
 371 -3 l 1xac
 177 1 l 1
 168 0 l 1
 112 0 l 1x6c
 100 2 l 1
 72 -2 l 1xac
80 94 m 1
 77 33 l 1
 355 35 l 1
 372 35 l 1
 376 108 l 1
 377 227 l 1
 383 348 l 1
 383 398 l 1
 382 411 l 1
 381 498 l 1
 381 503 l 1
 378 556 l 1
 390 561 l 1
 378 578 l 1
 379 636 l 1
 380 702 l 1
 86 701 l 1
 85 646 l 1
 84 639 l 1
 80 521 l 1
 74 400 l 1
 74 350 l 1
 75 337 l 1
 76 250 l 1
 76 245 l 1
 79 192 l 1
 67 176 l 1
 79 170 l 1
 79 91 l 1
 80 94 l 1
EndSplineSet
Validated: 1
EndChar

StartChar: paragraph
Encoding: 182 182 119
Width: 455
GlyphClass: 1
Flags: MW
HStem: -3 38<371 371> 0 35 701 36 724 14<44 49>
VStem: 45 28 383 28
LayerCount: 2
Fore
SplineSet
72 -2 m 1xac
 67 0 l 1xac
 51 -2 l 1
 40 0 l 1
 40 34 l 1
 48 58 l 1
 42 90 l 1
 47 268 l 1
 44 619 l 1
 51 644 l 1
 44 653 l 1
 42 722 l 1
 49 724 l 1x5c
 44 738 l 1
 240 735 l 1
 249 736 l 1
 345 736 l 1
 355 734 l 1
 403 738 l 1
 417 736 l 1
 419 702 l 1
 413 679 l 1
 416 647 l 1
 410 480 l 1
 413 117 l 1
 406 92 l 1
 417 83 l 1
 416 16 l 1
 415 -1 l 1
 371 -3 l 1xac
 177 1 l 1
 168 0 l 1
 112 0 l 1x6c
 100 2 l 1
 72 -2 l 1xac
80 94 m 1
 77 33 l 1
 355 35 l 1
 372 35 l 1
 376 108 l 1
 377 227 l 1
 383 348 l 1
 383 398 l 1
 382 411 l 1
 381 498 l 1
 381 503 l 1
 378 556 l 1
 390 561 l 1
 378 578 l 1
 379 636 l 1
 380 702 l 1
 86 701 l 1
 85 646 l 1
 84 639 l 1
 80 521 l 1
 74 400 l 1
 74 350 l 1
 75 337 l 1
 76 250 l 1
 76 245 l 1
 79 192 l 1
 67 176 l 1
 79 170 l 1
 79 91 l 1
 80 94 l 1
EndSplineSet
Validated: 1
EndChar

StartChar: periodcentered
Encoding: 183 183 120
Width: 129
GlyphClass: 1
Flags: MW
HStem: 331 10
VStem: 20 88 20 89<374 386>
LayerCount: 2
Fore
SplineSet
109 386 m 1xc0
 109 375 l 1
 87 357 l 1
 69 331 l 1
 60 332 l 1
 53 342 l 1
 54 348 l 1
 55 347 l 1
 53 350 l 2
 52 350 47 352 46 352 c 2
 20 374 l 1
 21 387 l 1
 44 407 l 2
 49 414 57 421 62 428 c 1
 73 427 l 1
 83 411 l 1
 88 396 l 2
 90 396 94 398 96 398 c 2
 109 386 l 1xc0
EndSplineSet
Validated: 1
EndChar

StartChar: cedilla
Encoding: 184 184 121
Width: 140
GlyphClass: 1
Flags: MW
HStem: -9 21G 726 20G
LayerCount: 2
Fore
SplineSet
68 24 m 1
 96 5 l 1
 90 0 l 1
 78 -7 l 1
 50 -24 l 1
 97 -62 l 1
 120 -85 l 1
 115 -106 l 1
 86 -129 l 1
 74 -144 l 1
 55 -172 l 1
 45 -174 l 1
 32 -165 l 1
 20 -137 l 1
 48 -121 l 1
 71 -100 l 1
 79 -88 l 1
 68 -69 l 1
 43 -56 l 1
 21 -47 l 1
 22 -17 l 1
 68 24 l 1
EndSplineSet
Validated: 1
EndChar

StartChar: onesuperior
Encoding: 185 185 122
Width: 455
GlyphClass: 1
Flags: MW
HStem: -3 38<371 371> 0 35 701 36 724 14<44 49>
VStem: 45 28 383 28
LayerCount: 2
Fore
SplineSet
72 -2 m 1xac
 67 0 l 1xac
 51 -2 l 1
 40 0 l 1
 40 34 l 1
 48 58 l 1
 42 90 l 1
 47 268 l 1
 44 619 l 1
 51 644 l 1
 44 653 l 1
 42 722 l 1
 49 724 l 1x5c
 44 738 l 1
 240 735 l 1
 249 736 l 1
 345 736 l 1
 355 734 l 1
 403 738 l 1
 417 736 l 1
 419 702 l 1
 413 679 l 1
 416 647 l 1
 410 480 l 1
 413 117 l 1
 406 92 l 1
 417 83 l 1
 416 16 l 1
 415 -1 l 1
 371 -3 l 1xac
 177 1 l 1
 168 0 l 1
 112 0 l 1x6c
 100 2 l 1
 72 -2 l 1xac
80 94 m 1
 77 33 l 1
 355 35 l 1
 372 35 l 1
 376 108 l 1
 377 227 l 1
 383 348 l 1
 383 398 l 1
 382 411 l 1
 381 498 l 1
 381 503 l 1
 378 556 l 1
 390 561 l 1
 378 578 l 1
 379 636 l 1
 380 702 l 1
 86 701 l 1
 85 646 l 1
 84 639 l 1
 80 521 l 1
 74 400 l 1
 74 350 l 1
 75 337 l 1
 76 250 l 1
 76 245 l 1
 79 192 l 1
 67 176 l 1
 79 170 l 1
 79 91 l 1
 80 94 l 1
EndSplineSet
Validated: 1
EndChar

StartChar: ordmasculine
Encoding: 186 186 123
Width: 455
GlyphClass: 1
Flags: MW
HStem: -3 38<371 371> 0 35 701 36 724 14<44 49>
VStem: 45 28 383 28
LayerCount: 2
Fore
SplineSet
72 -2 m 1xac
 67 0 l 1xac
 51 -2 l 1
 40 0 l 1
 40 34 l 1
 48 58 l 1
 42 90 l 1
 47 268 l 1
 44 619 l 1
 51 644 l 1
 44 653 l 1
 42 722 l 1
 49 724 l 1x5c
 44 738 l 1
 240 735 l 1
 249 736 l 1
 345 736 l 1
 355 734 l 1
 403 738 l 1
 417 736 l 1
 419 702 l 1
 413 679 l 1
 416 647 l 1
 410 480 l 1
 413 117 l 1
 406 92 l 1
 417 83 l 1
 416 16 l 1
 415 -1 l 1
 371 -3 l 1xac
 177 1 l 1
 168 0 l 1
 112 0 l 1x6c
 100 2 l 1
 72 -2 l 1xac
80 94 m 1
 77 33 l 1
 355 35 l 1
 372 35 l 1
 376 108 l 1
 377 227 l 1
 383 348 l 1
 383 398 l 1
 382 411 l 1
 381 498 l 1
 381 503 l 1
 378 556 l 1
 390 561 l 1
 378 578 l 1
 379 636 l 1
 380 702 l 1
 86 701 l 1
 85 646 l 1
 84 639 l 1
 80 521 l 1
 74 400 l 1
 74 350 l 1
 75 337 l 1
 76 250 l 1
 76 245 l 1
 79 192 l 1
 67 176 l 1
 79 170 l 1
 79 91 l 1
 80 94 l 1
EndSplineSet
Validated: 1
EndChar

StartChar: guillemotright
Encoding: 187 187 124
Width: 375
GlyphClass: 1
Flags: MW
HStem: 166 358<55 56 55 202>
VStem: 20 329<330 493>
LayerCount: 2
Fore
SplineSet
147 420 m 1
 145 411 l 1
 171 395 l 1
 203 361 l 1
 203 330 l 1
 198 325 l 1
 148 273 l 1
 139 271 l 1
 114 237 l 1
 80 214 l 1
 80 200 l 1
 76 189 l 1
 56 166 l 1
 34 181 l 1
 22 205 l 1
 44 223 l 1
 94 270 l 1
 103 278 l 1
 162 348 l 1
 106 409 l 1
 77 442 l 1
 58 456 l 1
 20 493 l 1
 27 505 l 1
 55 524 l 1
 86 488 l 1
 84 487 l 1
 128 439 l 1
 147 420 l 1
293 420 m 1
 291 411 l 1
 317 395 l 1
 349 361 l 1
 349 330 l 1
 344 325 l 1
 294 273 l 1
 285 271 l 1
 260 237 l 1
 226 214 l 1
 226 200 l 1
 222 189 l 1
 202 166 l 1
 180 181 l 1
 168 205 l 1
 190 223 l 1
 240 270 l 1
 249 278 l 1
 308 348 l 1
 252 409 l 1
 223 442 l 1
 204 456 l 1
 166 493 l 1
 173 505 l 1
 201 524 l 1
 232 488 l 1
 230 487 l 1
 274 439 l 1
 293 420 l 1
EndSplineSet
Validated: 1
EndChar

StartChar: onequarter
Encoding: 188 188 125
Width: 455
GlyphClass: 1
Flags: MW
HStem: -3 38<371 371> 0 35 701 36 724 14<44 49>
VStem: 45 28 383 28
LayerCount: 2
Fore
SplineSet
72 -2 m 1xac
 67 0 l 1xac
 51 -2 l 1
 40 0 l 1
 40 34 l 1
 48 58 l 1
 42 90 l 1
 47 268 l 1
 44 619 l 1
 51 644 l 1
 44 653 l 1
 42 722 l 1
 49 724 l 1x5c
 44 738 l 1
 240 735 l 1
 249 736 l 1
 345 736 l 1
 355 734 l 1
 403 738 l 1
 417 736 l 1
 419 702 l 1
 413 679 l 1
 416 647 l 1
 410 480 l 1
 413 117 l 1
 406 92 l 1
 417 83 l 1
 416 16 l 1
 415 -1 l 1
 371 -3 l 1xac
 177 1 l 1
 168 0 l 1
 112 0 l 1x6c
 100 2 l 1
 72 -2 l 1xac
80 94 m 1
 77 33 l 1
 355 35 l 1
 372 35 l 1
 376 108 l 1
 377 227 l 1
 383 348 l 1
 383 398 l 1
 382 411 l 1
 381 498 l 1
 381 503 l 1
 378 556 l 1
 390 561 l 1
 378 578 l 1
 379 636 l 1
 380 702 l 1
 86 701 l 1
 85 646 l 1
 84 639 l 1
 80 521 l 1
 74 400 l 1
 74 350 l 1
 75 337 l 1
 76 250 l 1
 76 245 l 1
 79 192 l 1
 67 176 l 1
 79 170 l 1
 79 91 l 1
 80 94 l 1
EndSplineSet
Validated: 1
EndChar

StartChar: onehalf
Encoding: 189 189 126
Width: 455
GlyphClass: 1
Flags: MW
HStem: -3 38<371 371> 0 35 701 36 724 14<44 49>
VStem: 45 28 383 28
LayerCount: 2
Fore
SplineSet
72 -2 m 1xac
 67 0 l 1xac
 51 -2 l 1
 40 0 l 1
 40 34 l 1
 48 58 l 1
 42 90 l 1
 47 268 l 1
 44 619 l 1
 51 644 l 1
 44 653 l 1
 42 722 l 1
 49 724 l 1x5c
 44 738 l 1
 240 735 l 1
 249 736 l 1
 345 736 l 1
 355 734 l 1
 403 738 l 1
 417 736 l 1
 419 702 l 1
 413 679 l 1
 416 647 l 1
 410 480 l 1
 413 117 l 1
 406 92 l 1
 417 83 l 1
 416 16 l 1
 415 -1 l 1
 371 -3 l 1xac
 177 1 l 1
 168 0 l 1
 112 0 l 1x6c
 100 2 l 1
 72 -2 l 1xac
80 94 m 1
 77 33 l 1
 355 35 l 1
 372 35 l 1
 376 108 l 1
 377 227 l 1
 383 348 l 1
 383 398 l 1
 382 411 l 1
 381 498 l 1
 381 503 l 1
 378 556 l 1
 390 561 l 1
 378 578 l 1
 379 636 l 1
 380 702 l 1
 86 701 l 1
 85 646 l 1
 84 639 l 1
 80 521 l 1
 74 400 l 1
 74 350 l 1
 75 337 l 1
 76 250 l 1
 76 245 l 1
 79 192 l 1
 67 176 l 1
 79 170 l 1
 79 91 l 1
 80 94 l 1
EndSplineSet
Validated: 1
EndChar

StartChar: threequarters
Encoding: 190 190 127
Width: 455
GlyphClass: 1
Flags: MW
HStem: -3 38<371 371> 0 35 701 36 724 14<44 49>
VStem: 45 28 383 28
LayerCount: 2
Fore
SplineSet
72 -2 m 1xac
 67 0 l 1xac
 51 -2 l 1
 40 0 l 1
 40 34 l 1
 48 58 l 1
 42 90 l 1
 47 268 l 1
 44 619 l 1
 51 644 l 1
 44 653 l 1
 42 722 l 1
 49 724 l 1x5c
 44 738 l 1
 240 735 l 1
 249 736 l 1
 345 736 l 1
 355 734 l 1
 403 738 l 1
 417 736 l 1
 419 702 l 1
 413 679 l 1
 416 647 l 1
 410 480 l 1
 413 117 l 1
 406 92 l 1
 417 83 l 1
 416 16 l 1
 415 -1 l 1
 371 -3 l 1xac
 177 1 l 1
 168 0 l 1
 112 0 l 1x6c
 100 2 l 1
 72 -2 l 1xac
80 94 m 1
 77 33 l 1
 355 35 l 1
 372 35 l 1
 376 108 l 1
 377 227 l 1
 383 348 l 1
 383 398 l 1
 382 411 l 1
 381 498 l 1
 381 503 l 1
 378 556 l 1
 390 561 l 1
 378 578 l 1
 379 636 l 1
 380 702 l 1
 86 701 l 1
 85 646 l 1
 84 639 l 1
 80 521 l 1
 74 400 l 1
 74 350 l 1
 75 337 l 1
 76 250 l 1
 76 245 l 1
 79 192 l 1
 67 176 l 1
 79 170 l 1
 79 91 l 1
 80 94 l 1
EndSplineSet
Validated: 1
EndChar

StartChar: questiondown
Encoding: 191 191 128
Width: 341
GlyphClass: 1
Flags: MW
HStem: -37 20G<175 175> 482 21G
LayerCount: 2
Fore
SplineSet
142 345 m 2
 136 433 l 1
 147 444 l 1
 143 452 137 463 134 471 c 2
 125 499 l 1
 137 525 l 1
 190 512 l 1
 186 472 l 2
 185 443 182 415 181 386 c 2
 184 334 l 1
 167 316 l 2
 157 302 146 285 135 270 c 2
 101 239 l 1
 102 239 l 1
 86 212 l 1
 66 174 l 1
 137 76 l 1
 136 76 l 1
 166 48 l 1
 166 49 l 1
 185 44 l 2
 187 45 190 47 191 47 c 2
 210 62 l 1
 210 61 l 1
 230 80 l 1
 229 80 l 1
 254 118 l 1
 268 162 l 1
 283 164 l 1
 305 146 l 1
 312 130 l 1
 258 76 l 1
 189 4 l 1
 190 4 l 1
 175 -17 l 1
 135 -9 l 1
 103 42 l 1
 107 57 l 1
 74 83 l 1
 20 140 l 1
 23 176 l 1
 108 286 l 1
 137 330 l 2
 138 335 141 341 142 345 c 2
106 702 m 1
 108 711 l 1
 129 731 l 1
 128 731 l 1
 149 760 l 1
 159 756 l 1
 167 746 l 1
 166 739 l 1
 165 740 l 1
 167 737 l 2
 168 737 173 735 174 735 c 2
 199 712 l 1
 196 701 l 1
 173 677 l 1
 174 677 l 1
 154 652 l 1
 145 654 l 1
 133 670 l 1
 125 685 l 1
 123 685 l 1
 106 702 l 1
EndSplineSet
Validated: 1
EndChar

StartChar: Agrave
Encoding: 192 192 129
Width: 415
GlyphClass: 1
Flags: MW
HStem: -8 21G<344 350 344 344> 721 20G<179 179>
LayerCount: 2
Fore
SplineSet
304 195 m 1
 292 231 l 1
 278 229 l 1
 260 226 l 1
 250 225 l 1
 223 208 l 1
 159 189 l 1
 134 181 l 1
 129 179 l 1
 115 174 l 1
 116 170 l 1
 101 80 l 1
 100 74 l 1
 100 36 l 1
 94 -7 l 1
 55 -4 l 1
 38 12 l 1
 64 121 l 1
 74 182 l 1
 87 198 l 1
 86 201 l 1
 86 221 l 1
 110 353 l 1
 114 374 l 1
 119 395 l 1
 119 407 l 1
 120 419 l 1
 149 565 l 1
 162 594 l 1
 156 600 l 1
 162 642 l 1
 169 686 l 1
 179 741 l 1
 233 738 l 1
 230 715 l 1
 235 701 l 1
 239 687 l 1
 272 533 l 1
 268 516 l 1
 270 508 l 1
 273 499 l 1
 331 244 l 1
 331 226 l 1
 358 126 l 1
 367 58 l 1
 384 8 l 1
 350 -8 l 1
 344 -8 l 1
 330 -3 l 1
 317 100 l 1
 327 109 l 1
 315 123 l 1
 310 159 l 1
 307 168 l 1
 304 195 l 1
164 448 m 1
 143 340 l 1
 131 271 l 1
 129 261 l 1
 127 251 l 1
 124 221 l 1
 137 221 l 1
 142 222 l 1
 164 223 l 1
 165 226 l 1
 166 230 l 1
 234 252 l 1
 263 261 l 1
 276 267 l 1
 288 273 l 1
 287 273 l 1
 282 281 l 1
 256 408 l 1
 248 463 l 1
 211 633 l 1
 206 653 l 1
 205 635 l 1
 171 476 l 1
 161 460 l 1
 164 448 l 1
190 800 m 1
 146 839 l 1
 125 862 l 1
 129 870 l 1
 167 883 l 1
 174 877 l 1
 216 817 l 1
 241 789 l 1
 240 782 l 1
 213 775 l 1
 207 781 l 1
 190 800 l 1
EndSplineSet
Validated: 1
EndChar

StartChar: Aacute
Encoding: 193 193 130
Width: 415
GlyphClass: 1
Flags: MW
HStem: -8 21G<344 350 344 344> 721 20G<179 179>
LayerCount: 2
Fore
SplineSet
304 195 m 1
 292 231 l 1
 278 229 l 1
 260 226 l 1
 250 225 l 1
 223 208 l 1
 159 189 l 1
 134 181 l 1
 129 179 l 1
 115 174 l 1
 116 170 l 1
 101 80 l 1
 100 74 l 1
 100 36 l 1
 94 -7 l 1
 55 -4 l 1
 38 12 l 1
 64 121 l 1
 74 182 l 1
 87 198 l 1
 86 201 l 1
 86 221 l 1
 110 353 l 1
 114 374 l 1
 119 395 l 1
 119 407 l 1
 120 419 l 1
 149 565 l 1
 162 594 l 1
 156 600 l 1
 162 642 l 1
 169 686 l 1
 179 741 l 1
 233 738 l 1
 230 715 l 1
 235 701 l 1
 239 687 l 1
 272 533 l 1
 268 516 l 1
 270 508 l 1
 273 499 l 1
 331 244 l 1
 331 226 l 1
 358 126 l 1
 367 58 l 1
 384 8 l 1
 350 -8 l 1
 344 -8 l 1
 330 -3 l 1
 317 100 l 1
 327 109 l 1
 315 123 l 1
 310 159 l 1
 307 168 l 1
 304 195 l 1
164 448 m 1
 143 340 l 1
 131 271 l 1
 129 261 l 1
 127 251 l 1
 124 221 l 1
 137 221 l 1
 142 222 l 1
 164 223 l 1
 165 226 l 1
 166 230 l 1
 234 252 l 1
 263 261 l 1
 276 267 l 1
 288 273 l 1
 287 273 l 1
 282 281 l 1
 256 408 l 1
 248 463 l 1
 211 633 l 1
 206 653 l 1
 205 635 l 1
 171 476 l 1
 161 460 l 1
 164 448 l 1
263 839 m 1
 220 800 l 1
 204 780 l 1
 197 774 l 1
 168 781 l 1
 168 788 l 1
 193 817 l 1
 235 877 l 1
 242 883 l 1
 280 870 l 1
 284 862 l 1
 263 839 l 1
EndSplineSet
Validated: 1
EndChar

StartChar: Acircumflex
Encoding: 194 194 131
Width: 415
GlyphClass: 1
Flags: MW
HStem: -8 21G<344 350 344 344> 721 20G<179 179>
LayerCount: 2
Fore
SplineSet
304 195 m 1
 292 231 l 1
 278 229 l 1
 260 226 l 1
 250 225 l 1
 223 208 l 1
 159 189 l 1
 134 181 l 1
 129 179 l 1
 115 174 l 1
 116 170 l 1
 101 80 l 1
 100 74 l 1
 100 36 l 1
 94 -7 l 1
 55 -4 l 1
 38 12 l 1
 64 121 l 1
 74 182 l 1
 87 198 l 1
 86 201 l 1
 86 221 l 1
 110 353 l 1
 114 374 l 1
 119 395 l 1
 119 407 l 1
 120 419 l 1
 149 565 l 1
 162 594 l 1
 156 600 l 1
 162 642 l 1
 169 686 l 1
 179 741 l 1
 233 738 l 1
 230 715 l 1
 235 701 l 1
 239 687 l 1
 272 533 l 1
 268 516 l 1
 270 508 l 1
 273 499 l 1
 331 244 l 1
 331 226 l 1
 358 126 l 1
 367 58 l 1
 384 8 l 1
 350 -8 l 1
 344 -8 l 1
 330 -3 l 1
 317 100 l 1
 327 109 l 1
 315 123 l 1
 310 159 l 1
 307 168 l 1
 304 195 l 1
164 448 m 1
 143 340 l 1
 131 271 l 1
 129 261 l 1
 127 251 l 1
 124 221 l 1
 137 221 l 1
 142 222 l 1
 164 223 l 1
 165 226 l 1
 166 230 l 1
 234 252 l 1
 263 261 l 1
 276 267 l 1
 288 273 l 1
 287 273 l 1
 282 281 l 1
 256 408 l 1
 248 463 l 1
 211 633 l 1
 206 653 l 1
 205 635 l 1
 171 476 l 1
 161 460 l 1
 164 448 l 1
291 779 m 1
 263 769 l 1
 246 792 l 1
 213 831 l 1
 200 838 l 1
 187 828 l 1
 163 797 l 1
 152 774 l 1
 122 778 l 1
 115 793 l 1
 183 857 l 1
 204 877 l 1
 224 875 l 1
 248 849 l 1
 274 821 l 1
 299 802 l 1
 301 792 l 1
 291 779 l 1
EndSplineSet
Validated: 1
EndChar

StartChar: Atilde
Encoding: 195 195 132
Width: 415
GlyphClass: 1
Flags: MW
HStem: -8 21G<344 350 344 344> 721 20G<179 179>
LayerCount: 2
Fore
SplineSet
304 195 m 1
 292 231 l 1
 278 229 l 1
 260 226 l 1
 250 225 l 1
 223 208 l 1
 159 189 l 1
 134 181 l 1
 129 179 l 1
 115 174 l 1
 116 170 l 1
 101 80 l 1
 100 74 l 1
 100 36 l 1
 94 -7 l 1
 55 -4 l 1
 38 12 l 1
 64 121 l 1
 74 182 l 1
 87 198 l 1
 86 201 l 1
 86 221 l 1
 110 353 l 1
 114 374 l 1
 119 395 l 1
 119 407 l 1
 120 419 l 1
 149 565 l 1
 162 594 l 1
 156 600 l 1
 162 642 l 1
 169 686 l 1
 179 741 l 1
 233 738 l 1
 230 715 l 1
 235 701 l 1
 239 687 l 1
 272 533 l 1
 268 516 l 1
 270 508 l 1
 273 499 l 1
 331 244 l 1
 331 226 l 1
 358 126 l 1
 367 58 l 1
 384 8 l 1
 350 -8 l 1
 344 -8 l 1
 330 -3 l 1
 317 100 l 1
 327 109 l 1
 315 123 l 1
 310 159 l 1
 307 168 l 1
 304 195 l 1
164 448 m 1
 143 340 l 1
 131 271 l 1
 129 261 l 1
 127 251 l 1
 124 221 l 1
 137 221 l 1
 142 222 l 1
 164 223 l 1
 165 226 l 1
 166 230 l 1
 234 252 l 1
 263 261 l 1
 276 267 l 1
 288 273 l 1
 287 273 l 1
 282 281 l 1
 256 408 l 1
 248 463 l 1
 211 633 l 1
 206 653 l 1
 205 635 l 1
 171 476 l 1
 161 460 l 1
 164 448 l 1
272 784 m 1
 247 780 l 1
 173 830 l 1
 154 833 l 1
 137 812 l 1
 132 791 l 1
 104 791 l 1
 97 804 l 1
 143 855 l 1
 162 873 l 1
 189 872 l 1
 253 827 l 1
 269 829 l 1
 289 854 l 1
 292 868 l 1
 319 867 l 1
 327 857 l 1
 272 784 l 1
EndSplineSet
Validated: 1
EndChar

StartChar: Adieresis
Encoding: 196 196 133
Width: 415
GlyphClass: 1
Flags: MW
HStem: -8 21G<344 350 344 344> 721 20G<179 179>
LayerCount: 2
Fore
SplineSet
304 195 m 1
 292 231 l 1
 278 229 l 1
 260 226 l 1
 250 225 l 1
 223 208 l 1
 159 189 l 1
 134 181 l 1
 129 179 l 1
 115 174 l 1
 116 170 l 1
 101 80 l 1
 100 74 l 1
 100 36 l 1
 94 -7 l 1
 55 -4 l 1
 38 12 l 1
 64 121 l 1
 74 182 l 1
 87 198 l 1
 86 201 l 1
 86 221 l 1
 110 353 l 1
 114 374 l 1
 119 395 l 1
 119 407 l 1
 120 419 l 1
 149 565 l 1
 162 594 l 1
 156 600 l 1
 162 642 l 1
 169 686 l 1
 179 741 l 1
 233 738 l 1
 230 715 l 1
 235 701 l 1
 239 687 l 1
 272 533 l 1
 268 516 l 1
 270 508 l 1
 273 499 l 1
 331 244 l 1
 331 226 l 1
 358 126 l 1
 367 58 l 1
 384 8 l 1
 350 -8 l 1
 344 -8 l 1
 330 -3 l 1
 317 100 l 1
 327 109 l 1
 315 123 l 1
 310 159 l 1
 307 168 l 1
 304 195 l 1
164 448 m 1
 143 340 l 1
 131 271 l 1
 129 261 l 1
 127 251 l 1
 124 221 l 1
 137 221 l 1
 142 222 l 1
 164 223 l 1
 165 226 l 1
 166 230 l 1
 234 252 l 1
 263 261 l 1
 276 267 l 1
 288 273 l 1
 287 273 l 1
 282 281 l 1
 256 408 l 1
 248 463 l 1
 211 633 l 1
 206 653 l 1
 205 635 l 1
 171 476 l 1
 161 460 l 1
 164 448 l 1
186 828 m 1
 191 819 l 1
 172 800 l 1
 158 782 l 1
 147 786 l 1
 133 800 l 1
 116 815 l 1
 118 827 l 1
 152 857 l 1
 161 856 l 1
 186 828 l 1
226 812 m 1
 222 820 l 1
 241 839 l 1
 253 857 l 1
 266 854 l 1
 281 839 l 1
 296 826 l 1
 294 813 l 1
 260 782 l 1
 251 784 l 1
 226 812 l 1
EndSplineSet
Validated: 1
EndChar

StartChar: Aring
Encoding: 197 197 134
Width: 415
GlyphClass: 1
Flags: MW
HStem: -8 21G<344 350 344 344> 725 20G<245 254 245 245> 860 20G<182 212>
LayerCount: 2
Fore
SplineSet
117 795 m 1
 160 834 l 1
 169 846 l 1
 182 860 l 1
 196 880 l 1
 212 880 l 1
 244 845 l 1
 245 838 l 1
 258 828 l 1
 292 795 l 1
 293 778 l 1
 254 745 l 1
 245 745 l 1
 246 737 l 1
 230 715 l 1
 235 701 l 1
 239 687 l 1
 272 533 l 1
 268 516 l 1
 270 508 l 1
 273 499 l 1
 331 244 l 1
 331 226 l 1
 358 126 l 1
 367 58 l 1
 384 8 l 1
 350 -8 l 1
 344 -8 l 1
 330 -3 l 1
 317 100 l 1
 327 109 l 1
 315 123 l 1
 310 159 l 1
 307 168 l 1
 304 195 l 1
 292 231 l 1
 278 229 l 1
 260 226 l 1
 250 225 l 1
 223 208 l 1
 159 189 l 1
 134 181 l 1
 129 179 l 1
 115 174 l 1
 116 170 l 1
 100 74 l 1
 100 36 l 1
 94 -7 l 1
 55 -4 l 1
 38 12 l 1
 64 121 l 1
 74 182 l 1
 87 198 l 1
 86 201 l 1
 86 221 l 1
 110 353 l 1
 114 374 l 1
 119 395 l 1
 119 407 l 1
 120 419 l 1
 149 565 l 1
 162 594 l 1
 156 600 l 1
 162 642 l 1
 169 686 l 1
 176 716 l 1
 165 729 l 1
 119 775 l 1
 117 795 l 1
164 448 m 1
 143 340 l 1
 131 271 l 1
 127 251 l 1
 124 221 l 1
 137 221 l 1
 142 222 l 1
 164 223 l 1
 165 226 l 1
 166 230 l 1
 234 252 l 1
 263 261 l 1
 276 267 l 1
 288 273 l 1
 287 273 l 1
 282 281 l 1
 256 408 l 1
 248 463 l 1
 211 633 l 1
 206 653 l 1
 205 635 l 1
 171 476 l 1
 161 460 l 1
 164 448 l 1
176 816 m 1
 173 809 l 1
 150 789 l 1
 152 783 l 1
 172 765 l 1
 169 760 l 1
 182 755 l 1
 204 730 l 1
 225 750 l 1
 256 784 l 1
 256 788 l 1
 235 811 l 1
 207 841 l 1
 201 841 l 1
 176 816 l 1
EndSplineSet
Validated: 1
EndChar

StartChar: AE
Encoding: 198 198 135
Width: 546
GlyphClass: 1
Flags: MW
HStem: -2 21G 714 20G
VStem: 287 44
LayerCount: 2
Fore
SplineSet
502 684 m 1
 483 684 l 1
 453 693 l 1
 437 691 l 1
 375 697 l 1
 363 697 l 1
 351 698 l 1
 329 694 l 1
 331 685 l 1
 334 676 l 1
 335 657 l 1
 333 629 l 1
 331 530 l 1
 324 518 l 1
 325 460 l 1
 329 391 l 1
 399 390 l 1
 449 396 l 1
 477 397 l 1
 485 389 l 1
 480 367 l 1
 477 347 l 1
 450 349 l 1
 355 354 l 1
 333 355 l 1
 326 218 l 1
 333 188 l 1
 327 168 l 1
 332 163 l 1
 334 56 l 1
 335 45 l 1
 367 38 l 1
 383 38 l 1
 471 45 l 1
 498 50 l 1
 520 47 l 1
 516 4 l 1
 509 -3 l 1
 451 -2 l 1
 388 4 l 1
 339 4 l 1
 331 -1 l 1
 282 0 l 1
 278 19 l 1
 282 57 l 1
 284 100 l 1
 286 145 l 1
 290 168 l 1
 289 205 l 1
 287 204 l 1
 166 183 l 1
 138 179 l 1
 133 178 l 1
 118 174 l 1
 119 170 l 1
 90 83 l 1
 82 64 l 1
 78 27 l 1
 66 -8 l 1
 28 0 l 1
 11 11 l 1
 59 128 l 1
 77 188 l 1
 91 202 l 1
 91 205 l 1
 93 225 l 1
 134 353 l 1
 141 373 l 1
 149 393 l 1
 150 405 l 1
 153 417 l 1
 204 559 l 1
 222 586 l 1
 217 592 l 1
 228 633 l 1
 240 676 l 1
 260 733 l 1
 284 732 l 1
 309 735 l 1
 364 735 l 1
 381 732 l 1
 437 735 l 1
 504 736 l 1
 505 718 l 1
 502 684 l 1
176 219 m 1
 178 223 l 1
 288 244 l 1
 288 269 l 1
 295 284 l 1
 291 287 l 1
 284 389 l 1
 287 428 l 1
 287 510 l 1
 288 593 l 1
 287 658 l 1
 214 466 l 1
 203 452 l 1
 204 440 l 1
 165 335 l 1
 146 269 l 1
 140 249 l 1
 133 220 l 1
 146 218 l 1
 151 219 l 1
 175 216 l 1
 176 219 l 1
EndSplineSet
Validated: 1
EndChar

StartChar: Ccedilla
Encoding: 199 199 136
Width: 336
GlyphClass: 1
Flags: MW
HStem: -9 21G 726 20G<265 265>
LayerCount: 2
Fore
SplineSet
57 305 m 1
 34 336 l 1
 31 392 l 1
 108 500 l 1
 175 602 l 1
 189 609 l 1
 186 623 l 1
 237 711 l 1
 247 713 l 1
 253 731 l 1
 265 746 l 1
 305 720 l 1
 285 688 l 1
 254 653 l 1
 243 627 l 1
 154 509 l 1
 119 448 l 1
 100 410 l 1
 75 369 l 1
 86 348 l 1
 96 330 l 1
 118 300 l 1
 131 261 l 1
 142 259 l 1
 174 211 l 1
 233 119 l 1
 254 91 l 1
 287 51 l 1
 303 26 l 1
 273 0 l 1
 261 -6 l 1
 261 -7 l 1
 233 -24 l 1
 280 -62 l 1
 303 -85 l 1
 298 -106 l 1
 269 -129 l 1
 257 -144 l 1
 238 -172 l 1
 228 -174 l 1
 215 -165 l 1
 203 -137 l 1
 231 -121 l 1
 254 -100 l 1
 262 -88 l 1
 251 -69 l 1
 226 -56 l 1
 204 -47 l 1
 205 -17 l 1
 239 15 l 1
 232 44 l 1
 222 50 l 1
 144 165 l 1
 140 186 l 1
 98 237 l 1
 57 305 l 1
EndSplineSet
Validated: 1
EndChar

StartChar: Egrave
Encoding: 200 200 137
Width: 344
GlyphClass: 1
Flags: MW
HStem: -3 21G<305 305> 715 20G<105 160 160 160 233 233>
LayerCount: 2
Fore
SplineSet
298 685 m 1
 279 685 l 1
 249 693 l 1
 233 691 l 1
 171 696 l 1
 159 696 l 1
 147 697 l 1
 125 693 l 1
 127 684 l 1
 130 675 l 1
 131 657 l 1
 129 629 l 1
 127 530 l 1
 120 518 l 1
 121 460 l 1
 125 391 l 1
 195 390 l 1
 245 396 l 1
 273 397 l 1
 281 389 l 1
 276 367 l 1
 273 347 l 1
 246 349 l 1
 151 354 l 1
 129 355 l 1
 122 218 l 1
 129 188 l 1
 123 168 l 1
 128 163 l 1
 130 56 l 1
 131 45 l 1
 163 38 l 1
 179 38 l 1
 267 45 l 1
 294 50 l 1
 316 47 l 1
 312 4 l 1
 305 -3 l 1
 247 -2 l 1
 184 4 l 1
 135 4 l 1
 127 -1 l 1
 78 0 l 1
 74 19 l 1
 78 57 l 1
 80 100 l 1
 82 145 l 1
 86 168 l 1
 85 217 l 1
 84 269 l 1
 91 284 l 1
 87 287 l 1
 80 389 l 1
 83 428 l 1
 83 510 l 1
 84 593 l 1
 83 657 l 1
 88 677 l 1
 83 680 l 1
 80 732 l 1
 105 735 l 1
 160 735 l 1
 177 732 l 1
 233 735 l 1
 300 736 l 1
 301 718 l 1
 298 685 l 1
184 800 m 1
 140 839 l 1
 119 862 l 1
 123 870 l 1
 161 883 l 1
 168 877 l 1
 210 817 l 1
 235 789 l 1
 234 782 l 1
 207 775 l 1
 201 781 l 1
 184 800 l 1
EndSplineSet
Validated: 1
EndChar

StartChar: Eacute
Encoding: 201 201 138
Width: 344
GlyphClass: 1
Flags: MW
HStem: -3 21G<305 305> 715 20G<105 160 160 160 233 233>
LayerCount: 2
Fore
SplineSet
298 685 m 1
 279 685 l 1
 249 693 l 1
 233 691 l 1
 171 696 l 1
 159 696 l 1
 147 697 l 1
 125 693 l 1
 127 684 l 1
 130 675 l 1
 131 657 l 1
 129 629 l 1
 127 530 l 1
 120 518 l 1
 121 460 l 1
 125 391 l 1
 195 390 l 1
 245 396 l 1
 273 397 l 1
 281 389 l 1
 276 367 l 1
 273 347 l 1
 246 349 l 1
 151 354 l 1
 129 355 l 1
 122 218 l 1
 129 188 l 1
 123 168 l 1
 128 163 l 1
 130 56 l 1
 131 45 l 1
 163 38 l 1
 179 38 l 1
 267 45 l 1
 294 50 l 1
 316 47 l 1
 312 4 l 1
 305 -3 l 1
 247 -2 l 1
 184 4 l 1
 135 4 l 1
 127 -1 l 1
 78 0 l 1
 74 19 l 1
 78 57 l 1
 80 100 l 1
 82 145 l 1
 86 168 l 1
 85 217 l 1
 84 269 l 1
 91 284 l 1
 87 287 l 1
 80 389 l 1
 83 428 l 1
 83 510 l 1
 84 593 l 1
 83 657 l 1
 88 677 l 1
 83 680 l 1
 80 732 l 1
 105 735 l 1
 160 735 l 1
 177 732 l 1
 233 735 l 1
 300 736 l 1
 301 718 l 1
 298 685 l 1
257 839 m 1
 214 800 l 1
 198 780 l 1
 191 774 l 1
 162 781 l 1
 162 788 l 1
 187 817 l 1
 229 877 l 1
 236 883 l 1
 274 870 l 1
 278 862 l 1
 257 839 l 1
EndSplineSet
Validated: 1
EndChar

StartChar: Ecircumflex
Encoding: 202 202 139
Width: 344
GlyphClass: 1
Flags: MW
HStem: -3 21G<305 305> 715 20G<105 160 160 160 233 233>
LayerCount: 2
Fore
SplineSet
298 685 m 1
 279 685 l 1
 249 693 l 1
 233 691 l 1
 171 696 l 1
 159 696 l 1
 147 697 l 1
 125 693 l 1
 127 684 l 1
 130 675 l 1
 131 657 l 1
 129 629 l 1
 127 530 l 1
 120 518 l 1
 121 460 l 1
 125 391 l 1
 195 390 l 1
 245 396 l 1
 273 397 l 1
 281 389 l 1
 276 367 l 1
 273 347 l 1
 246 349 l 1
 151 354 l 1
 129 355 l 1
 122 218 l 1
 129 188 l 1
 123 168 l 1
 128 163 l 1
 130 56 l 1
 131 45 l 1
 163 38 l 1
 179 38 l 1
 267 45 l 1
 294 50 l 1
 316 47 l 1
 312 4 l 1
 305 -3 l 1
 247 -2 l 1
 184 4 l 1
 135 4 l 1
 127 -1 l 1
 78 0 l 1
 74 19 l 1
 78 57 l 1
 80 100 l 1
 82 145 l 1
 86 168 l 1
 85 217 l 1
 84 269 l 1
 91 284 l 1
 87 287 l 1
 80 389 l 1
 83 428 l 1
 83 510 l 1
 84 593 l 1
 83 657 l 1
 88 677 l 1
 83 680 l 1
 80 732 l 1
 105 735 l 1
 160 735 l 1
 177 732 l 1
 233 735 l 1
 300 736 l 1
 301 718 l 1
 298 685 l 1
285 779 m 1
 257 769 l 1
 240 792 l 1
 207 831 l 1
 194 838 l 1
 181 828 l 1
 157 797 l 1
 146 774 l 1
 116 778 l 1
 109 793 l 1
 177 857 l 1
 198 877 l 1
 218 875 l 1
 242 849 l 1
 268 821 l 1
 293 802 l 1
 295 792 l 1
 285 779 l 1
EndSplineSet
Validated: 1
EndChar

StartChar: Edieresis
Encoding: 203 203 140
Width: 344
GlyphClass: 1
Flags: MW
HStem: -3 21G<305 305> 715 20G<105 160 160 160 233 233>
LayerCount: 2
Fore
SplineSet
298 685 m 1
 279 685 l 1
 249 693 l 1
 233 691 l 1
 171 696 l 1
 159 696 l 1
 147 697 l 1
 125 693 l 1
 127 684 l 1
 130 675 l 1
 131 657 l 1
 129 629 l 1
 127 530 l 1
 120 518 l 1
 121 460 l 1
 125 391 l 1
 195 390 l 1
 245 396 l 1
 273 397 l 1
 281 389 l 1
 276 367 l 1
 273 347 l 1
 246 349 l 1
 151 354 l 1
 129 355 l 1
 122 218 l 1
 129 188 l 1
 123 168 l 1
 128 163 l 1
 130 56 l 1
 131 45 l 1
 163 38 l 1
 179 38 l 1
 267 45 l 1
 294 50 l 1
 316 47 l 1
 312 4 l 1
 305 -3 l 1
 247 -2 l 1
 184 4 l 1
 135 4 l 1
 127 -1 l 1
 78 0 l 1
 74 19 l 1
 78 57 l 1
 80 100 l 1
 82 145 l 1
 86 168 l 1
 85 217 l 1
 84 269 l 1
 91 284 l 1
 87 287 l 1
 80 389 l 1
 83 428 l 1
 83 510 l 1
 84 593 l 1
 83 657 l 1
 88 677 l 1
 83 680 l 1
 80 732 l 1
 105 735 l 1
 160 735 l 1
 177 732 l 1
 233 735 l 1
 300 736 l 1
 301 718 l 1
 298 685 l 1
180 828 m 1
 185 819 l 1
 166 800 l 1
 152 782 l 1
 141 786 l 1
 127 800 l 1
 110 815 l 1
 112 827 l 1
 146 857 l 1
 155 856 l 1
 180 828 l 1
220 812 m 1
 216 820 l 1
 235 839 l 1
 247 857 l 1
 260 854 l 1
 275 839 l 1
 290 826 l 1
 288 813 l 1
 254 782 l 1
 245 784 l 1
 220 812 l 1
EndSplineSet
Validated: 1
EndChar

StartChar: Igrave
Encoding: 204 204 141
Width: 217
GlyphClass: 1
Flags: MW
HStem: -2 21G<114 114> 723 20G<98 98>
LayerCount: 2
Fore
SplineSet
95 439 m 1
 87 471 l 1
 83 710 l 1
 80 738 l 1
 98 743 l 1
 138 735 l 1
 135 684 l 1
 130 655 l 1
 127 515 l 1
 124 461 l 1
 128 412 l 1
 130 383 l 1
 131 364 l 1
 132 359 l 1
 132 62 l 1
 134 41 l 1
 138 21 l 1
 136 4 l 1
 114 -2 l 1
 95 -1 l 1
 79 0 l 1
 88 64 l 1
 88 344 l 1
 91 378 l 1
 95 439 l 1
94 805 m 1
 50 844 l 1
 29 867 l 1
 33 875 l 1
 71 888 l 1
 78 882 l 1
 120 822 l 1
 145 794 l 1
 144 787 l 1
 117 780 l 1
 111 786 l 1
 94 805 l 1
EndSplineSet
Validated: 1
EndChar

StartChar: Iacute
Encoding: 205 205 142
Width: 217
GlyphClass: 1
Flags: MW
HStem: -2 21G<114 114> 723 20G<98 98>
LayerCount: 2
Fore
SplineSet
95 439 m 1
 87 471 l 1
 83 710 l 1
 80 738 l 1
 98 743 l 1
 138 735 l 1
 135 684 l 1
 130 655 l 1
 127 515 l 1
 124 461 l 1
 128 412 l 1
 130 383 l 1
 131 364 l 1
 132 359 l 1
 132 62 l 1
 134 41 l 1
 138 21 l 1
 136 4 l 1
 114 -2 l 1
 95 -1 l 1
 79 0 l 1
 88 64 l 1
 88 344 l 1
 91 378 l 1
 95 439 l 1
167 844 m 1
 124 805 l 1
 108 785 l 1
 101 779 l 1
 72 786 l 1
 72 793 l 1
 97 822 l 1
 139 882 l 1
 146 888 l 1
 184 875 l 1
 188 867 l 1
 167 844 l 1
EndSplineSet
Validated: 1
EndChar

StartChar: Icircumflex
Encoding: 206 206 143
Width: 217
GlyphClass: 1
Flags: MW
HStem: -2 21G<114 114> 723 20G<98 98>
LayerCount: 2
Fore
SplineSet
95 439 m 1
 87 471 l 1
 83 710 l 1
 80 738 l 1
 98 743 l 1
 138 735 l 1
 135 684 l 1
 130 655 l 1
 127 515 l 1
 124 461 l 1
 128 412 l 1
 130 383 l 1
 131 364 l 1
 132 359 l 1
 132 62 l 1
 134 41 l 1
 138 21 l 1
 136 4 l 1
 114 -2 l 1
 95 -1 l 1
 79 0 l 1
 88 64 l 1
 88 344 l 1
 91 378 l 1
 95 439 l 1
195 779 m 1
 167 769 l 1
 150 792 l 1
 117 831 l 1
 104 838 l 1
 91 828 l 1
 67 797 l 1
 56 774 l 1
 26 778 l 1
 19 793 l 1
 87 857 l 1
 108 877 l 1
 128 875 l 1
 152 849 l 1
 178 821 l 1
 203 802 l 1
 205 792 l 1
 195 779 l 1
EndSplineSet
Validated: 1
EndChar

StartChar: Idieresis
Encoding: 207 207 144
Width: 217
GlyphClass: 1
Flags: MW
HStem: -2 21G<114 114> 723 20G<98 98>
LayerCount: 2
Fore
SplineSet
95 439 m 1
 87 471 l 1
 83 710 l 1
 80 738 l 1
 98 743 l 1
 138 735 l 1
 135 684 l 1
 130 655 l 1
 127 515 l 1
 124 461 l 1
 128 412 l 1
 130 383 l 1
 131 364 l 1
 132 359 l 1
 132 62 l 1
 134 41 l 1
 138 21 l 1
 136 4 l 1
 114 -2 l 1
 95 -1 l 1
 79 0 l 1
 88 64 l 1
 88 344 l 1
 91 378 l 1
 95 439 l 1
90 828 m 1
 95 819 l 1
 76 800 l 1
 62 782 l 1
 51 786 l 1
 37 800 l 1
 20 815 l 1
 22 827 l 1
 56 857 l 1
 65 856 l 1
 90 828 l 1
130 812 m 1
 126 820 l 1
 145 839 l 1
 157 857 l 1
 170 854 l 1
 185 839 l 1
 200 826 l 1
 198 813 l 1
 164 782 l 1
 155 784 l 1
 130 812 l 1
EndSplineSet
Validated: 1
EndChar

StartChar: Eth
Encoding: 208 208 145
Width: 388
GlyphClass: 1
Flags: MW
HStem: -9 21G<136 136> 728 20G<119 119>
LayerCount: 2
Fore
SplineSet
205 90 m 1
 136 -9 l 1
 123 -4 l 1
 81 -2 l 1
 85 50 l 1
 89 293 l 1
 85 334 l 1
 84 352 l 1
 47 351 l 2
 33 350 38 349 24 348 c 2
 13 350 l 1
 15 366 l 1
 17 376 l 1
 17 390 l 1
 19 392 l 1
 44 390 l 1
 84 387 l 1
 81 614 l 1
 84 641 l 1
 77 655 l 1
 75 710 l 1
 74 732 l 1
 104 741 l 1
 119 748 l 1
 140 720 l 1
 172 680 l 1
 181 662 l 1
 184 659 l 1
 197 644 l 1
 225 604 l 1
 228 584 l 1
 265 545 l 1
 357 420 l 1
 370 408 l 1
 370 356 l 1
 356 332 l 1
 310 268 l 1
 294 260 l 1
 295 260 l 1
 297 254 l 1
 300 249 l 1
 241 159 l 1
 205 90 l 1
127 483 m 1
 118 459 l 1
 123 417 l 1
 127 387 l 1
 173 389 l 1
 202 393 l 1
 203 391 l 1
 202 355 l 1
 189 350 l 1
 135 353 l 1
 128 353 l 1
 121 172 l 1
 122 151 l 1
 123 119 l 1
 127 69 l 1
 129 57 l 1
 131 58 l 1
 164 107 l 1
 180 127 l 1
 204 166 l 1
 219 184 l 1
 274 277 l 1
 314 335 l 1
 332 373 l 1
 324 390 l 1
 313 406 l 1
 305 419 l 1
 278 463 l 1
 244 502 l 1
 186 582 l 1
 120 672 l 1
 121 658 l 1
 122 639 l 1
 126 570 l 1
 127 483 l 1
EndSplineSet
Validated: 1
EndChar

StartChar: Ntilde
Encoding: 209 209 146
Width: 469
GlyphClass: 1
Flags: MW
HStem: -5 21G<106 106 346 346> 725 20G<131 131>
LayerCount: 2
Fore
SplineSet
383 63 m 1
 390 6 l 1
 385 -4 l 1
 346 -5 l 1
 336 -3 l 1
 339 55 l 1
 339 99 l 1
 336 157 l 1
 339 237 l 1
 348 239 l 1
 343 262 l 1
 338 286 l 1
 337 373 l 1
 313 422 l 1
 300 450 l 1
 285 477 l 1
 253 519 l 1
 211 578 l 1
 187 608 l 1
 178 619 l 1
 153 651 l 1
 137 666 l 1
 134 664 l 1
 133 658 l 1
 133 567 l 1
 124 504 l 1
 125 501 l 1
 132 485 l 1
 130 244 l 1
 134 205 l 1
 138 167 l 1
 138 53 l 1
 140 37 l 1
 138 -3 l 1
 106 -5 l 1
 81 -1 l 1
 86 57 l 1
 85 69 l 1
 85 91 l 1
 89 172 l 1
 92 241 l 1
 101 279 l 1
 97 286 l 1
 91 302 l 1
 94 520 l 1
 91 586 l 1
 89 651 l 1
 84 698 l 1
 84 732 l 1
 131 745 l 1
 219 627 l 1
 246 580 l 1
 255 574 l 1
 331 470 l 1
 334 470 l 1
 338 476 l 1
 335 552 l 1
 334 626 l 1
 332 659 l 1
 342 662 l 1
 341 662 l 1
 333 675 l 1
 332 734 l 1
 367 735 l 1
 387 731 l 1
 385 683 l 1
 373 417 l 1
 376 336 l 1
 385 101 l 1
 383 63 l 1
304 784 m 1
 279 780 l 1
 205 830 l 1
 186 833 l 1
 169 812 l 1
 164 791 l 1
 136 791 l 1
 129 804 l 1
 175 855 l 1
 194 873 l 1
 221 872 l 1
 285 827 l 1
 301 829 l 1
 321 854 l 1
 324 868 l 1
 351 867 l 1
 359 857 l 1
 304 784 l 1
EndSplineSet
Validated: 1
EndChar

StartChar: Ograve
Encoding: 210 210 147
Width: 423
GlyphClass: 1
Flags: MW
HStem: -10 21G<230 230> 721 20G<239 239>
LayerCount: 2
Fore
SplineSet
239 741 m 1
 255 695 l 1
 314 561 l 1
 324 524 l 1
 331 515 l 1
 338 515 l 1
 357 466 l 1
 397 394 l 1
 394 350 l 1
 345 247 l 1
 306 168 l 1
 249 28 l 1
 238 -1 l 1
 230 -10 l 1
 188 -4 l 1
 186 16 l 1
 144 110 l 1
 140 150 l 1
 125 150 l 1
 103 201 l 1
 83 245 l 1
 64 290 l 1
 38 348 l 1
 32 383 l 1
 41 393 l 1
 102 533 l 1
 116 547 l 1
 117 556 l 1
 117 561 l 1
 118 564 l 1
 181 708 l 1
 186 718 l 1
 192 736 l 1
 203 738 l 1
 239 741 l 1
223 64 m 1
 280 195 l 1
 296 208 l 1
 303 234 l 1
 350 369 l 1
 346 381 l 1
 340 410 l 1
 332 417 l 1
 328 427 l 1
 318 445 l 1
 253 595 l 1
 259 608 l 1
 255 608 l 1
 249 609 l 1
 218 675 l 1
 212 680 l 1
 211 678 l 1
 210 671 l 1
 195 638 l 1
 132 519 l 1
 119 510 l 1
 120 510 l 1
 117 482 l 1
 80 394 l 1
 79 390 l 1
 79 385 l 1
 78 377 l 1
 80 373 l 1
 84 364 l 1
 96 334 l 1
 97 331 l 1
 122 266 l 1
 152 203 l 1
 188 125 l 1
 214 58 l 1
 216 59 l 1
 224 64 l 1
 223 64 l 1
202 800 m 1
 158 839 l 1
 137 862 l 1
 141 870 l 1
 179 883 l 1
 186 877 l 1
 228 817 l 1
 253 789 l 1
 252 782 l 1
 225 775 l 1
 219 781 l 1
 202 800 l 1
EndSplineSet
Validated: 1
EndChar

StartChar: Oacute
Encoding: 211 211 148
Width: 423
GlyphClass: 1
Flags: MW
HStem: -10 21G<230 230> 721 20G<239 239>
LayerCount: 2
Fore
SplineSet
239 741 m 1
 255 695 l 1
 314 561 l 1
 324 524 l 1
 331 515 l 1
 338 515 l 1
 357 466 l 1
 397 394 l 1
 394 350 l 1
 345 247 l 1
 306 168 l 1
 249 28 l 1
 238 -1 l 1
 230 -10 l 1
 188 -4 l 1
 186 16 l 1
 144 110 l 1
 140 150 l 1
 125 150 l 1
 103 201 l 1
 83 245 l 1
 64 290 l 1
 38 348 l 1
 32 383 l 1
 41 393 l 1
 102 533 l 1
 116 547 l 1
 117 556 l 1
 117 561 l 1
 118 564 l 1
 181 708 l 1
 186 718 l 1
 192 736 l 1
 203 738 l 1
 239 741 l 1
223 64 m 1
 280 195 l 1
 296 208 l 1
 303 234 l 1
 350 369 l 1
 346 381 l 1
 340 410 l 1
 332 417 l 1
 328 427 l 1
 318 445 l 1
 253 595 l 1
 259 608 l 1
 255 608 l 1
 249 609 l 1
 218 675 l 1
 212 680 l 1
 211 678 l 1
 210 671 l 1
 195 638 l 1
 132 519 l 1
 119 510 l 1
 120 510 l 1
 117 482 l 1
 80 394 l 1
 79 390 l 1
 79 385 l 1
 78 377 l 1
 80 373 l 1
 84 364 l 1
 96 334 l 1
 97 331 l 1
 122 266 l 1
 152 203 l 1
 188 125 l 1
 214 58 l 1
 216 59 l 1
 224 64 l 1
 223 64 l 1
275 839 m 1
 232 800 l 1
 216 780 l 1
 209 774 l 1
 180 781 l 1
 180 788 l 1
 205 817 l 1
 247 877 l 1
 254 883 l 1
 292 870 l 1
 296 862 l 1
 275 839 l 1
EndSplineSet
Validated: 1
EndChar

StartChar: Ocircumflex
Encoding: 212 212 149
Width: 423
GlyphClass: 1
Flags: MW
HStem: -10 21G<230 230> 721 20G<239 239>
LayerCount: 2
Fore
SplineSet
239 741 m 1
 255 695 l 1
 314 561 l 1
 324 524 l 1
 331 515 l 1
 338 515 l 1
 357 466 l 1
 397 394 l 1
 394 350 l 1
 345 247 l 1
 306 168 l 1
 249 28 l 1
 238 -1 l 1
 230 -10 l 1
 188 -4 l 1
 186 16 l 1
 144 110 l 1
 140 150 l 1
 125 150 l 1
 103 201 l 1
 83 245 l 1
 64 290 l 1
 38 348 l 1
 32 383 l 1
 41 393 l 1
 102 533 l 1
 116 547 l 1
 117 556 l 1
 117 561 l 1
 118 564 l 1
 181 708 l 1
 186 718 l 1
 192 736 l 1
 203 738 l 1
 239 741 l 1
223 64 m 1
 280 195 l 1
 296 208 l 1
 303 234 l 1
 350 369 l 1
 346 381 l 1
 340 410 l 1
 332 417 l 1
 328 427 l 1
 318 445 l 1
 253 595 l 1
 259 608 l 1
 255 608 l 1
 249 609 l 1
 218 675 l 1
 212 680 l 1
 211 678 l 1
 210 671 l 1
 195 638 l 1
 132 519 l 1
 119 510 l 1
 120 510 l 1
 117 482 l 1
 80 394 l 1
 79 390 l 1
 79 385 l 1
 78 377 l 1
 80 373 l 1
 84 364 l 1
 96 334 l 1
 97 331 l 1
 122 266 l 1
 152 203 l 1
 188 125 l 1
 214 58 l 1
 216 59 l 1
 224 64 l 1
 223 64 l 1
303 779 m 1
 275 769 l 1
 258 792 l 1
 225 831 l 1
 212 838 l 1
 199 828 l 1
 175 797 l 1
 164 774 l 1
 134 778 l 1
 127 793 l 1
 195 857 l 1
 216 877 l 1
 236 875 l 1
 260 849 l 1
 286 821 l 1
 311 802 l 1
 313 792 l 1
 303 779 l 1
EndSplineSet
Validated: 1
EndChar

StartChar: Otilde
Encoding: 213 213 150
Width: 423
GlyphClass: 1
Flags: MW
HStem: -10 21G<230 230> 721 20G<239 239>
LayerCount: 2
Fore
SplineSet
239 741 m 1
 255 695 l 1
 314 561 l 1
 324 524 l 1
 331 515 l 1
 338 515 l 1
 357 466 l 1
 397 394 l 1
 394 350 l 1
 345 247 l 1
 306 168 l 1
 249 28 l 1
 238 -1 l 1
 230 -10 l 1
 188 -4 l 1
 186 16 l 1
 144 110 l 1
 140 150 l 1
 125 150 l 1
 103 201 l 1
 83 245 l 1
 64 290 l 1
 38 348 l 1
 32 383 l 1
 41 393 l 1
 102 533 l 1
 116 547 l 1
 117 556 l 1
 117 561 l 1
 118 564 l 1
 181 708 l 1
 186 718 l 1
 192 736 l 1
 203 738 l 1
 239 741 l 1
223 64 m 1
 280 195 l 1
 296 208 l 1
 303 234 l 1
 350 369 l 1
 346 381 l 1
 340 410 l 1
 332 417 l 1
 328 427 l 1
 318 445 l 1
 253 595 l 1
 259 608 l 1
 255 608 l 1
 249 609 l 1
 218 675 l 1
 212 680 l 1
 211 678 l 1
 210 671 l 1
 195 638 l 1
 132 519 l 1
 119 510 l 1
 120 510 l 1
 117 482 l 1
 80 394 l 1
 79 390 l 1
 79 385 l 1
 78 377 l 1
 80 373 l 1
 84 364 l 1
 96 334 l 1
 97 331 l 1
 122 266 l 1
 152 203 l 1
 188 125 l 1
 214 58 l 1
 216 59 l 1
 224 64 l 1
 223 64 l 1
284 784 m 1
 259 780 l 1
 185 830 l 1
 166 833 l 1
 149 812 l 1
 144 791 l 1
 116 791 l 1
 109 804 l 1
 155 855 l 1
 174 873 l 1
 201 872 l 1
 265 827 l 1
 281 829 l 1
 301 854 l 1
 304 868 l 1
 331 867 l 1
 339 857 l 1
 284 784 l 1
EndSplineSet
Validated: 1
EndChar

StartChar: Odieresis
Encoding: 214 214 151
Width: 423
GlyphClass: 1
Flags: MW
HStem: -10 21G<230 230> 721 20G<239 239>
LayerCount: 2
Fore
SplineSet
239 741 m 1
 255 695 l 1
 314 561 l 1
 324 524 l 1
 331 515 l 1
 338 515 l 1
 357 466 l 1
 397 394 l 1
 394 350 l 1
 345 247 l 1
 306 168 l 1
 249 28 l 1
 238 -1 l 1
 230 -10 l 1
 188 -4 l 1
 186 16 l 1
 144 110 l 1
 140 150 l 1
 125 150 l 1
 103 201 l 1
 83 245 l 1
 64 290 l 1
 38 348 l 1
 32 383 l 1
 41 393 l 1
 102 533 l 1
 116 547 l 1
 117 556 l 1
 117 561 l 1
 118 564 l 1
 181 708 l 1
 186 718 l 1
 192 736 l 1
 203 738 l 1
 239 741 l 1
223 64 m 1
 280 195 l 1
 296 208 l 1
 303 234 l 1
 350 369 l 1
 346 381 l 1
 340 410 l 1
 332 417 l 1
 328 427 l 1
 318 445 l 1
 253 595 l 1
 259 608 l 1
 255 608 l 1
 249 609 l 1
 218 675 l 1
 212 680 l 1
 211 678 l 1
 210 671 l 1
 195 638 l 1
 132 519 l 1
 119 510 l 1
 120 510 l 1
 117 482 l 1
 80 394 l 1
 79 390 l 1
 79 385 l 1
 78 377 l 1
 80 373 l 1
 84 364 l 1
 96 334 l 1
 97 331 l 1
 122 266 l 1
 152 203 l 1
 188 125 l 1
 214 58 l 1
 216 59 l 1
 224 64 l 1
 223 64 l 1
198 828 m 1
 203 819 l 1
 184 800 l 1
 170 782 l 1
 159 786 l 1
 145 800 l 1
 128 815 l 1
 130 827 l 1
 164 857 l 1
 173 856 l 1
 198 828 l 1
238 812 m 1
 234 820 l 1
 253 839 l 1
 265 857 l 1
 278 854 l 1
 293 839 l 1
 308 826 l 1
 306 813 l 1
 272 782 l 1
 263 784 l 1
 238 812 l 1
EndSplineSet
Validated: 1
EndChar

StartChar: multiply
Encoding: 215 215 152
Width: 370
GlyphClass: 1
Flags: MW
HStem: 193 341<60 61>
VStem: 25 320<235 236>
LayerCount: 2
Fore
SplineSet
119 319 m 1
 160 366 l 1
 121 415 l 1
 122 415 l 1
 95 438 l 1
 60 471 l 1
 60 470 l 1
 31 489 l 1
 33 510 l 1
 61 534 l 1
 97 497 l 1
 127 459 l 2
 145 437 165 414 184 392 c 1
 255 471 l 1
 282 502 l 1
 281 502 l 1
 290 529 l 1
 306 533 l 1
 335 505 l 1
 333 488 l 1
 283 448 l 1
 283 449 l 1
 246 407 l 1
 204 370 l 1
 203 369 l 1
 298 272 l 1
 298 273 l 1
 323 255 l 1
 345 236 l 1
 340 227 l 1
 322 207 l 1
 309 196 l 1
 300 202 l 1
 286 231 l 1
 287 231 l 1
 273 247 l 1
 181 343 l 1
 93 241 l 1
 82 218 l 1
 72 203 l 1
 60 193 l 1
 41 208 l 1
 29 217 l 1
 25 235 l 1
 46 252 l 1
 62 266 l 1
 62 265 l 1
 90 289 l 1
 119 319 l 1
EndSplineSet
Validated: 1
EndChar

StartChar: Oslash
Encoding: 216 216 153
Width: 448
GlyphClass: 1
Flags: MW
HStem: -10 21G<242 242> 721 20G<251 251>
LayerCount: 2
Fore
SplineSet
251 741 m 1
 267 695 l 1
 316 583 l 1
 325 593 l 1
 323 607 l 1
 342 646 l 1
 357 672 l 1
 388 648 l 1
 388 639 l 1
 375 617 l 1
 331 541 l 1
 336 524 l 1
 343 515 l 1
 350 515 l 1
 369 466 l 1
 409 394 l 1
 406 350 l 1
 357 247 l 1
 318 168 l 1
 261 28 l 1
 250 -1 l 1
 242 -10 l 1
 200 -4 l 1
 198 16 l 1
 156 110 l 1
 152 150 l 1
 137 150 l 1
 130 166 l 1
 108 124 l 1
 108 112 l 1
 92 71 l 1
 83 68 l 1
 51 95 l 1
 65 113 l 1
 86 159 l 1
 106 183 l 1
 108 202 l 1
 111 208 l 1
 95 245 l 1
 76 290 l 1
 50 348 l 1
 44 383 l 1
 53 393 l 1
 114 533 l 1
 128 547 l 1
 129 556 l 1
 129 561 l 1
 130 564 l 1
 193 708 l 1
 198 718 l 1
 204 736 l 1
 215 738 l 1
 251 741 l 1
273 439 m 1
 234 378 l 1
 156 219 l 1
 164 203 l 1
 200 125 l 1
 226 58 l 1
 228 59 l 1
 236 64 l 1
 235 64 l 1
 292 195 l 1
 308 208 l 1
 315 234 l 1
 362 369 l 1
 358 381 l 1
 348 410 l 1
 343 417 l 1
 339 427 l 1
 330 445 l 1
 307 498 l 1
 273 439 l 1
259 485 m 1
 285 529 l 1
 289 539 l 1
 265 595 l 1
 271 608 l 1
 267 608 l 1
 261 609 l 1
 230 675 l 1
 224 680 l 1
 223 678 l 1
 222 671 l 1
 207 638 l 1
 144 519 l 1
 131 510 l 1
 132 510 l 1
 129 482 l 1
 92 394 l 1
 91 390 l 1
 91 385 l 1
 90 377 l 1
 92 373 l 1
 96 364 l 1
 108 334 l 1
 109 331 l 1
 134 266 l 1
 138 258 l 1
 203 380 l 1
 218 397 l 1
 259 485 l 1
EndSplineSet
Validated: 1
EndChar

StartChar: Ugrave
Encoding: 217 217 154
Width: 463
GlyphClass: 1
Flags: MW
HStem: -6 21G<342 342> 715 20G<90 90>
LayerCount: 2
Fore
SplineSet
94 158 m 1
 93 302 l 1
 87 418 l 1
 88 491 l 1
 96 518 l 1
 90 556 l 1
 85 720 l 1
 90 735 l 1
 140 733 l 1
 139 667 l 1
 135 633 l 1
 135 581 l 1
 136 570 l 1
 136 553 l 1
 128 510 l 1
 129 443 l 1
 130 432 l 1
 133 352 l 1
 124 223 l 1
 132 94 l 1
 136 67 l 1
 163 45 l 1
 180 42 l 1
 194 47 l 1
 221 58 l 1
 266 74 l 1
 265 74 l 1
 270 77 l 1
 305 97 l 1
 304 97 l 1
 330 112 l 1
 336 189 l 1
 339 329 l 1
 335 395 l 1
 331 461 l 1
 333 546 l 1
 341 560 l 1
 338 561 l 1
 339 561 l 1
 332 565 l 1
 328 685 l 1
 330 733 l 1
 359 734 l 1
 381 733 l 1
 385 707 l 1
 382 661 l 1
 371 651 l 1
 375 641 l 1
 380 631 l 1
 373 564 l 1
 370 495 l 1
 370 473 l 1
 369 445 l 1
 376 423 l 1
 373 187 l 1
 379 61 l 1
 389 2 l 1
 342 -6 l 1
 337 21 l 1
 332 50 l 1
 320 62 l 1
 207 10 l 1
 181 -5 l 1
 134 -4 l 1
 89 35 l 1
 88 76 l 1
 94 158 l 1
221 800 m 1
 177 839 l 1
 156 862 l 1
 160 870 l 1
 198 883 l 1
 205 877 l 1
 247 817 l 1
 272 789 l 1
 271 782 l 1
 244 775 l 1
 238 781 l 1
 221 800 l 1
EndSplineSet
Validated: 1
EndChar

StartChar: Uacute
Encoding: 218 218 155
Width: 463
GlyphClass: 1
Flags: MW
HStem: -6 21G<342 342> 715 20G<90 90>
LayerCount: 2
Fore
SplineSet
94 158 m 1
 93 302 l 1
 87 418 l 1
 88 491 l 1
 96 518 l 1
 90 556 l 1
 85 720 l 1
 90 735 l 1
 140 733 l 1
 139 667 l 1
 135 633 l 1
 135 581 l 1
 136 570 l 1
 136 553 l 1
 128 510 l 1
 129 443 l 1
 130 432 l 1
 133 352 l 1
 124 223 l 1
 132 94 l 1
 136 67 l 1
 163 45 l 1
 180 42 l 1
 194 47 l 1
 221 58 l 1
 266 74 l 1
 265 74 l 1
 270 77 l 1
 305 97 l 1
 304 97 l 1
 330 112 l 1
 336 189 l 1
 339 329 l 1
 335 395 l 1
 331 461 l 1
 333 546 l 1
 341 560 l 1
 338 561 l 1
 339 561 l 1
 332 565 l 1
 328 685 l 1
 330 733 l 1
 359 734 l 1
 381 733 l 1
 385 707 l 1
 382 661 l 1
 371 651 l 1
 375 641 l 1
 380 631 l 1
 373 564 l 1
 370 495 l 1
 370 473 l 1
 369 445 l 1
 376 423 l 1
 373 187 l 1
 379 61 l 1
 389 2 l 1
 342 -6 l 1
 337 21 l 1
 332 50 l 1
 320 62 l 1
 207 10 l 1
 181 -5 l 1
 134 -4 l 1
 89 35 l 1
 88 76 l 1
 94 158 l 1
294 839 m 1
 251 800 l 1
 235 780 l 1
 228 774 l 1
 199 781 l 1
 199 788 l 1
 224 817 l 1
 266 877 l 1
 273 883 l 1
 311 870 l 1
 315 862 l 1
 294 839 l 1
EndSplineSet
Validated: 1
EndChar

StartChar: Ucircumflex
Encoding: 219 219 156
Width: 463
GlyphClass: 1
Flags: MW
HStem: -6 21G<342 342> 715 20G<90 90>
LayerCount: 2
Fore
SplineSet
94 158 m 1
 93 302 l 1
 87 418 l 1
 88 491 l 1
 96 518 l 1
 90 556 l 1
 85 720 l 1
 90 735 l 1
 140 733 l 1
 139 667 l 1
 135 633 l 1
 135 581 l 1
 136 570 l 1
 136 553 l 1
 128 510 l 1
 129 443 l 1
 130 432 l 1
 133 352 l 1
 124 223 l 1
 132 94 l 1
 136 67 l 1
 163 45 l 1
 180 42 l 1
 194 47 l 1
 221 58 l 1
 266 74 l 1
 265 74 l 1
 270 77 l 1
 305 97 l 1
 304 97 l 1
 330 112 l 1
 336 189 l 1
 339 329 l 1
 335 395 l 1
 331 461 l 1
 333 546 l 1
 341 560 l 1
 338 561 l 1
 339 561 l 1
 332 565 l 1
 328 685 l 1
 330 733 l 1
 359 734 l 1
 381 733 l 1
 385 707 l 1
 382 661 l 1
 371 651 l 1
 375 641 l 1
 380 631 l 1
 373 564 l 1
 370 495 l 1
 370 473 l 1
 369 445 l 1
 376 423 l 1
 373 187 l 1
 379 61 l 1
 389 2 l 1
 342 -6 l 1
 337 21 l 1
 332 50 l 1
 320 62 l 1
 207 10 l 1
 181 -5 l 1
 134 -4 l 1
 89 35 l 1
 88 76 l 1
 94 158 l 1
322 779 m 1
 294 769 l 1
 277 792 l 1
 244 831 l 1
 231 838 l 1
 218 828 l 1
 194 797 l 1
 183 774 l 1
 153 778 l 1
 146 793 l 1
 214 857 l 1
 235 877 l 1
 255 875 l 1
 279 849 l 1
 305 821 l 1
 330 802 l 1
 332 792 l 1
 322 779 l 1
EndSplineSet
Validated: 1
EndChar

StartChar: Udieresis
Encoding: 220 220 157
Width: 463
GlyphClass: 1
Flags: MW
HStem: -6 21G<342 342> 715 20G<90 90>
LayerCount: 2
Fore
SplineSet
94 158 m 1
 93 302 l 1
 87 418 l 1
 88 491 l 1
 96 518 l 1
 90 556 l 1
 85 720 l 1
 90 735 l 1
 140 733 l 1
 139 667 l 1
 135 633 l 1
 135 581 l 1
 136 570 l 1
 136 553 l 1
 128 510 l 1
 129 443 l 1
 130 432 l 1
 133 352 l 1
 124 223 l 1
 132 94 l 1
 136 67 l 1
 163 45 l 1
 180 42 l 1
 194 47 l 1
 221 58 l 1
 266 74 l 1
 265 74 l 1
 270 77 l 1
 305 97 l 1
 304 97 l 1
 330 112 l 1
 336 189 l 1
 339 329 l 1
 335 395 l 1
 331 461 l 1
 333 546 l 1
 341 560 l 1
 338 561 l 1
 339 561 l 1
 332 565 l 1
 328 685 l 1
 330 733 l 1
 359 734 l 1
 381 733 l 1
 385 707 l 1
 382 661 l 1
 371 651 l 1
 375 641 l 1
 380 631 l 1
 373 564 l 1
 370 495 l 1
 370 473 l 1
 369 445 l 1
 376 423 l 1
 373 187 l 1
 379 61 l 1
 389 2 l 1
 342 -6 l 1
 337 21 l 1
 332 50 l 1
 320 62 l 1
 207 10 l 1
 181 -5 l 1
 134 -4 l 1
 89 35 l 1
 88 76 l 1
 94 158 l 1
217 828 m 1
 222 819 l 1
 203 800 l 1
 189 782 l 1
 178 786 l 1
 164 800 l 1
 147 815 l 1
 149 827 l 1
 183 857 l 1
 192 856 l 1
 217 828 l 1
257 812 m 1
 253 820 l 1
 272 839 l 1
 284 857 l 1
 297 854 l 1
 312 839 l 1
 327 826 l 1
 325 813 l 1
 291 782 l 1
 282 784 l 1
 257 812 l 1
EndSplineSet
Validated: 1
EndChar

StartChar: Yacute
Encoding: 221 221 158
Width: 391
GlyphClass: 1
Flags: MW
HStem: -3 21G<215 215> 723 20G<318 318>
LayerCount: 2
Fore
SplineSet
215 -3 m 1
 166 -1 l 1
 168 29 l 1
 178 102 l 1
 181 115 l 1
 179 125 l 1
 175 267 l 1
 177 318 l 1
 173 347 l 1
 170 368 l 1
 169 376 l 1
 144 440 l 1
 133 465 l 1
 102 543 l 1
 67 623 l 1
 64 641 l 1
 22 713 l 1
 25 729 l 1
 55 737 l 1
 76 741 l 1
 87 706 l 1
 85 693 l 1
 94 682 l 1
 104 659 l 1
 123 612 l 1
 135 572 l 1
 163 494 l 1
 176 465 l 1
 196 412 l 1
 199 407 l 1
 204 404 l 1
 206 410 l 1
 212 422 l 1
 213 426 l 1
 219 441 l 1
 230 463 l 1
 248 514 l 1
 263 563 l 1
 283 604 l 1
 305 685 l 1
 314 722 l 1
 318 743 l 1
 345 740 l 1
 360 733 l 1
 371 725 l 1
 349 668 l 1
 337 651 l 1
 325 625 l 1
 313 600 l 1
 293 540 l 1
 252 430 l 1
 217 345 l 1
 217 283 l 1
 218 244 l 1
 219 232 l 1
 219 205 l 1
 215 124 l 1
 219 103 l 1
 218 60 l 1
 221 32 l 1
 224 4 l 1
 215 -3 l 1
253 839 m 1
 210 800 l 1
 194 780 l 1
 187 774 l 1
 158 781 l 1
 158 788 l 1
 183 817 l 1
 225 877 l 1
 232 883 l 1
 270 870 l 1
 274 862 l 1
 253 839 l 1
EndSplineSet
Validated: 1
EndChar

StartChar: Thorn
Encoding: 222 222 159
Width: 373
GlyphClass: 1
Flags: MW
HStem: -5 21G<114 114> 738 20G
VStem: 85 46
LayerCount: 2
Fore
SplineSet
259 270 m 1
 191 198 l 1
 134 139 l 1
 127 109 l 1
 129 81 132 72 134 44 c 2
 137 -3 l 1
 114 -5 l 1
 78 -2 l 1
 91 87 l 1
 91 180 l 1
 92 303 l 1
 104 324 l 1
 94 327 l 1
 90 495 l 1
 85 707 l 1
 81 731 l 1
 101 736 l 1
 138 730 l 1
 134 681 l 1
 129 651 l 1
 129 583 l 1
 171 545 l 1
 223 497 l 1
 231 485 l 1
 252 471 267 457 288 444 c 2
 350 392 l 1
 349 345 l 1
 335 335 l 1
 296 298 l 1
 259 270 l 1
130 246 m 1
 131 239 l 1
 130 206 l 2
 133 204 139 202 139 202 c 1
 153 212 168 223 182 232 c 2
 258 311 l 1
 299 357 l 1
 304 368 l 1
 272 396 l 1
 251 419 l 1
 135 517 l 1
 132 504 l 1
 126 399 l 1
 130 246 l 1
EndSplineSet
Validated: 1
EndChar

StartChar: germandbls
Encoding: 223 223 160
Width: 434
GlyphClass: 1
Flags: MW
HStem: -21 21G<258 258> 720 20G<203 245 245 245>
LayerCount: 2
Fore
SplineSet
258 -21 m 1
 208 11 l 1
 219 24 l 1
 229 38 l 1
 290 92 l 1
 289 92 l 1
 355 180 l 1
 365 201 l 1
 343 226 l 1
 231 333 l 1
 231 332 l 1
 201 353 l 1
 202 386 l 1
 260 451 l 1
 272 457 l 1
 272 466 273 475 273 484 c 1
 331 552 l 1
 331 551 l 1
 334 564 l 1
 286 619 l 1
 263 645 l 1
 220 699 l 1
 207 680 188 657 176 639 c 2
 125 573 l 2
 125 570 123 567 123 564 c 0
 124 551 127 541 128 528 c 2
 123 421 l 2
 124 382 127 343 128 305 c 2
 131 176 l 1
 122 168 l 1
 136 130 l 1
 135 62 l 1
 138 -1 l 1
 131 -7 l 1
 96 -6 l 1
 75 2 l 1
 88 129 l 2
 87 146 84 165 83 182 c 2
 85 402 l 1
 83 435 l 1
 85 489 l 1
 79 589 l 1
 107 623 l 1
 179 710 l 1
 203 740 l 1
 245 740 l 1
 283 692 l 1
 308 658 l 1
 381 586 l 1
 384 552 l 1
 302 455 l 1
 245 383 l 1
 248 373 l 1
 269 354 l 1
 282 340 l 1
 301 318 l 1
 373 263 l 1
 372 263 l 1
 416 225 l 1
 415 192 l 1
 379 145 l 1
 312 61 l 1
 258 -21 l 1
EndSplineSet
Validated: 1
EndChar

StartChar: agrave
Encoding: 224 224 161
Width: 415
GlyphClass: 1
Flags: MW
HStem: -8 21G<344 350 344 344> 721 20G<179 179>
LayerCount: 2
Fore
SplineSet
304 195 m 1
 292 231 l 1
 278 229 l 1
 260 226 l 1
 250 225 l 1
 223 208 l 1
 159 189 l 1
 134 181 l 1
 129 179 l 1
 115 174 l 1
 116 170 l 1
 101 80 l 1
 100 74 l 1
 100 36 l 1
 94 -7 l 1
 55 -4 l 1
 38 12 l 1
 64 121 l 1
 74 182 l 1
 87 198 l 1
 86 201 l 1
 86 221 l 1
 110 353 l 1
 114 374 l 1
 119 395 l 1
 119 407 l 1
 120 419 l 1
 149 565 l 1
 162 594 l 1
 156 600 l 1
 162 642 l 1
 169 686 l 1
 179 741 l 1
 233 738 l 1
 230 715 l 1
 235 701 l 1
 239 687 l 1
 272 533 l 1
 268 516 l 1
 270 508 l 1
 273 499 l 1
 331 244 l 1
 331 226 l 1
 358 126 l 1
 367 58 l 1
 384 8 l 1
 350 -8 l 1
 344 -8 l 1
 330 -3 l 1
 317 100 l 1
 327 109 l 1
 315 123 l 1
 310 159 l 1
 307 168 l 1
 304 195 l 1
164 448 m 1
 143 340 l 1
 131 271 l 1
 129 261 l 1
 127 251 l 1
 124 221 l 1
 137 221 l 1
 142 222 l 1
 164 223 l 1
 165 226 l 1
 166 230 l 1
 234 252 l 1
 263 261 l 1
 276 267 l 1
 288 273 l 1
 287 273 l 1
 282 281 l 1
 256 408 l 1
 248 463 l 1
 211 633 l 1
 206 653 l 1
 205 635 l 1
 171 476 l 1
 161 460 l 1
 164 448 l 1
190 800 m 1
 146 839 l 1
 125 862 l 1
 129 870 l 1
 167 883 l 1
 174 877 l 1
 216 817 l 1
 241 789 l 1
 240 782 l 1
 213 775 l 1
 207 781 l 1
 190 800 l 1
EndSplineSet
Validated: 1
EndChar

StartChar: aacute
Encoding: 225 225 162
Width: 415
GlyphClass: 1
Flags: MW
HStem: -8 21G<344 350 344 344> 721 20G<179 179>
LayerCount: 2
Fore
SplineSet
304 195 m 1
 292 231 l 1
 278 229 l 1
 260 226 l 1
 250 225 l 1
 223 208 l 1
 159 189 l 1
 134 181 l 1
 129 179 l 1
 115 174 l 1
 116 170 l 1
 101 80 l 1
 100 74 l 1
 100 36 l 1
 94 -7 l 1
 55 -4 l 1
 38 12 l 1
 64 121 l 1
 74 182 l 1
 87 198 l 1
 86 201 l 1
 86 221 l 1
 110 353 l 1
 114 374 l 1
 119 395 l 1
 119 407 l 1
 120 419 l 1
 149 565 l 1
 162 594 l 1
 156 600 l 1
 162 642 l 1
 169 686 l 1
 179 741 l 1
 233 738 l 1
 230 715 l 1
 235 701 l 1
 239 687 l 1
 272 533 l 1
 268 516 l 1
 270 508 l 1
 273 499 l 1
 331 244 l 1
 331 226 l 1
 358 126 l 1
 367 58 l 1
 384 8 l 1
 350 -8 l 1
 344 -8 l 1
 330 -3 l 1
 317 100 l 1
 327 109 l 1
 315 123 l 1
 310 159 l 1
 307 168 l 1
 304 195 l 1
164 448 m 1
 143 340 l 1
 131 271 l 1
 129 261 l 1
 127 251 l 1
 124 221 l 1
 137 221 l 1
 142 222 l 1
 164 223 l 1
 165 226 l 1
 166 230 l 1
 234 252 l 1
 263 261 l 1
 276 267 l 1
 288 273 l 1
 287 273 l 1
 282 281 l 1
 256 408 l 1
 248 463 l 1
 211 633 l 1
 206 653 l 1
 205 635 l 1
 171 476 l 1
 161 460 l 1
 164 448 l 1
263 839 m 1
 220 800 l 1
 204 780 l 1
 197 774 l 1
 168 781 l 1
 168 788 l 1
 193 817 l 1
 235 877 l 1
 242 883 l 1
 280 870 l 1
 284 862 l 1
 263 839 l 1
EndSplineSet
Validated: 1
EndChar

StartChar: acircumflex
Encoding: 226 226 163
Width: 415
GlyphClass: 1
Flags: MW
HStem: -8 21G<344 350 344 344> 721 20G<179 179>
LayerCount: 2
Fore
SplineSet
304 195 m 1
 292 231 l 1
 278 229 l 1
 260 226 l 1
 250 225 l 1
 223 208 l 1
 159 189 l 1
 134 181 l 1
 129 179 l 1
 115 174 l 1
 116 170 l 1
 101 80 l 1
 100 74 l 1
 100 36 l 1
 94 -7 l 1
 55 -4 l 1
 38 12 l 1
 64 121 l 1
 74 182 l 1
 87 198 l 1
 86 201 l 1
 86 221 l 1
 110 353 l 1
 114 374 l 1
 119 395 l 1
 119 407 l 1
 120 419 l 1
 149 565 l 1
 162 594 l 1
 156 600 l 1
 162 642 l 1
 169 686 l 1
 179 741 l 1
 233 738 l 1
 230 715 l 1
 235 701 l 1
 239 687 l 1
 272 533 l 1
 268 516 l 1
 270 508 l 1
 273 499 l 1
 331 244 l 1
 331 226 l 1
 358 126 l 1
 367 58 l 1
 384 8 l 1
 350 -8 l 1
 344 -8 l 1
 330 -3 l 1
 317 100 l 1
 327 109 l 1
 315 123 l 1
 310 159 l 1
 307 168 l 1
 304 195 l 1
164 448 m 1
 143 340 l 1
 131 271 l 1
 129 261 l 1
 127 251 l 1
 124 221 l 1
 137 221 l 1
 142 222 l 1
 164 223 l 1
 165 226 l 1
 166 230 l 1
 234 252 l 1
 263 261 l 1
 276 267 l 1
 288 273 l 1
 287 273 l 1
 282 281 l 1
 256 408 l 1
 248 463 l 1
 211 633 l 1
 206 653 l 1
 205 635 l 1
 171 476 l 1
 161 460 l 1
 164 448 l 1
291 779 m 1
 263 769 l 1
 246 792 l 1
 213 831 l 1
 200 838 l 1
 187 828 l 1
 163 797 l 1
 152 774 l 1
 122 778 l 1
 115 793 l 1
 183 857 l 1
 204 877 l 1
 224 875 l 1
 248 849 l 1
 274 821 l 1
 299 802 l 1
 301 792 l 1
 291 779 l 1
EndSplineSet
Validated: 1
EndChar

StartChar: atilde
Encoding: 227 227 164
Width: 415
GlyphClass: 1
Flags: MW
HStem: -8 21G<344 350 344 344> 721 20G<179 179>
LayerCount: 2
Fore
SplineSet
304 195 m 1
 292 231 l 1
 278 229 l 1
 260 226 l 1
 250 225 l 1
 223 208 l 1
 159 189 l 1
 134 181 l 1
 129 179 l 1
 115 174 l 1
 116 170 l 1
 101 80 l 1
 100 74 l 1
 100 36 l 1
 94 -7 l 1
 55 -4 l 1
 38 12 l 1
 64 121 l 1
 74 182 l 1
 87 198 l 1
 86 201 l 1
 86 221 l 1
 110 353 l 1
 114 374 l 1
 119 395 l 1
 119 407 l 1
 120 419 l 1
 149 565 l 1
 162 594 l 1
 156 600 l 1
 162 642 l 1
 169 686 l 1
 179 741 l 1
 233 738 l 1
 230 715 l 1
 235 701 l 1
 239 687 l 1
 272 533 l 1
 268 516 l 1
 270 508 l 1
 273 499 l 1
 331 244 l 1
 331 226 l 1
 358 126 l 1
 367 58 l 1
 384 8 l 1
 350 -8 l 1
 344 -8 l 1
 330 -3 l 1
 317 100 l 1
 327 109 l 1
 315 123 l 1
 310 159 l 1
 307 168 l 1
 304 195 l 1
164 448 m 1
 143 340 l 1
 131 271 l 1
 129 261 l 1
 127 251 l 1
 124 221 l 1
 137 221 l 1
 142 222 l 1
 164 223 l 1
 165 226 l 1
 166 230 l 1
 234 252 l 1
 263 261 l 1
 276 267 l 1
 288 273 l 1
 287 273 l 1
 282 281 l 1
 256 408 l 1
 248 463 l 1
 211 633 l 1
 206 653 l 1
 205 635 l 1
 171 476 l 1
 161 460 l 1
 164 448 l 1
272 784 m 1
 247 780 l 1
 173 830 l 1
 154 833 l 1
 137 812 l 1
 132 791 l 1
 104 791 l 1
 97 804 l 1
 143 855 l 1
 162 873 l 1
 189 872 l 1
 253 827 l 1
 269 829 l 1
 289 854 l 1
 292 868 l 1
 319 867 l 1
 327 857 l 1
 272 784 l 1
EndSplineSet
Validated: 1
EndChar

StartChar: adieresis
Encoding: 228 228 165
Width: 415
GlyphClass: 1
Flags: MW
HStem: -8 21G<344 350 344 344> 721 20G<179 179>
LayerCount: 2
Fore
SplineSet
304 195 m 1
 292 231 l 1
 278 229 l 1
 260 226 l 1
 250 225 l 1
 223 208 l 1
 159 189 l 1
 134 181 l 1
 129 179 l 1
 115 174 l 1
 116 170 l 1
 101 80 l 1
 100 74 l 1
 100 36 l 1
 94 -7 l 1
 55 -4 l 1
 38 12 l 1
 64 121 l 1
 74 182 l 1
 87 198 l 1
 86 201 l 1
 86 221 l 1
 110 353 l 1
 114 374 l 1
 119 395 l 1
 119 407 l 1
 120 419 l 1
 149 565 l 1
 162 594 l 1
 156 600 l 1
 162 642 l 1
 169 686 l 1
 179 741 l 1
 233 738 l 1
 230 715 l 1
 235 701 l 1
 239 687 l 1
 272 533 l 1
 268 516 l 1
 270 508 l 1
 273 499 l 1
 331 244 l 1
 331 226 l 1
 358 126 l 1
 367 58 l 1
 384 8 l 1
 350 -8 l 1
 344 -8 l 1
 330 -3 l 1
 317 100 l 1
 327 109 l 1
 315 123 l 1
 310 159 l 1
 307 168 l 1
 304 195 l 1
164 448 m 1
 143 340 l 1
 131 271 l 1
 129 261 l 1
 127 251 l 1
 124 221 l 1
 137 221 l 1
 142 222 l 1
 164 223 l 1
 165 226 l 1
 166 230 l 1
 234 252 l 1
 263 261 l 1
 276 267 l 1
 288 273 l 1
 287 273 l 1
 282 281 l 1
 256 408 l 1
 248 463 l 1
 211 633 l 1
 206 653 l 1
 205 635 l 1
 171 476 l 1
 161 460 l 1
 164 448 l 1
186 828 m 1
 191 819 l 1
 172 800 l 1
 158 782 l 1
 147 786 l 1
 133 800 l 1
 116 815 l 1
 118 827 l 1
 152 857 l 1
 161 856 l 1
 186 828 l 1
226 812 m 1
 222 820 l 1
 241 839 l 1
 253 857 l 1
 266 854 l 1
 281 839 l 1
 296 826 l 1
 294 813 l 1
 260 782 l 1
 251 784 l 1
 226 812 l 1
EndSplineSet
Validated: 1
EndChar

StartChar: aring
Encoding: 229 229 166
Width: 415
GlyphClass: 1
Flags: MW
HStem: -8 21G<344 350 344 344> 725 20G<245 254 245 245> 860 20G<182 212>
LayerCount: 2
Fore
SplineSet
117 795 m 1
 160 834 l 1
 169 846 l 1
 182 860 l 1
 196 880 l 1
 212 880 l 1
 244 845 l 1
 245 838 l 1
 258 828 l 1
 292 795 l 1
 293 778 l 1
 254 745 l 1
 245 745 l 1
 246 737 l 1
 230 715 l 1
 235 701 l 1
 239 687 l 1
 272 533 l 1
 268 516 l 1
 270 508 l 1
 273 499 l 1
 331 244 l 1
 331 226 l 1
 358 126 l 1
 367 58 l 1
 384 8 l 1
 350 -8 l 1
 344 -8 l 1
 330 -3 l 1
 317 100 l 1
 327 109 l 1
 315 123 l 1
 310 159 l 1
 307 168 l 1
 304 195 l 1
 292 231 l 1
 278 229 l 1
 260 226 l 1
 250 225 l 1
 223 208 l 1
 159 189 l 1
 134 181 l 1
 129 179 l 1
 115 174 l 1
 116 170 l 1
 100 74 l 1
 100 36 l 1
 94 -7 l 1
 55 -4 l 1
 38 12 l 1
 64 121 l 1
 74 182 l 1
 87 198 l 1
 86 201 l 1
 86 221 l 1
 110 353 l 1
 114 374 l 1
 119 395 l 1
 119 407 l 1
 120 419 l 1
 149 565 l 1
 162 594 l 1
 156 600 l 1
 162 642 l 1
 169 686 l 1
 176 716 l 1
 165 729 l 1
 119 775 l 1
 117 795 l 1
164 448 m 1
 143 340 l 1
 131 271 l 1
 127 251 l 1
 124 221 l 1
 137 221 l 1
 142 222 l 1
 164 223 l 1
 165 226 l 1
 166 230 l 1
 234 252 l 1
 263 261 l 1
 276 267 l 1
 288 273 l 1
 287 273 l 1
 282 281 l 1
 256 408 l 1
 248 463 l 1
 211 633 l 1
 206 653 l 1
 205 635 l 1
 171 476 l 1
 161 460 l 1
 164 448 l 1
176 816 m 1
 173 809 l 1
 150 789 l 1
 152 783 l 1
 172 765 l 1
 169 760 l 1
 182 755 l 1
 204 730 l 1
 225 750 l 1
 256 784 l 1
 256 788 l 1
 235 811 l 1
 207 841 l 1
 201 841 l 1
 176 816 l 1
EndSplineSet
Validated: 1
EndChar

StartChar: ae
Encoding: 230 230 167
Width: 546
GlyphClass: 1
Flags: MW
HStem: -2 21G 714 20G
VStem: 287 44
LayerCount: 2
Fore
SplineSet
502 684 m 1
 483 684 l 1
 453 693 l 1
 437 691 l 1
 375 697 l 1
 363 697 l 1
 351 698 l 1
 329 694 l 1
 331 685 l 1
 334 676 l 1
 335 657 l 1
 333 629 l 1
 331 530 l 1
 324 518 l 1
 325 460 l 1
 329 391 l 1
 399 390 l 1
 449 396 l 1
 477 397 l 1
 485 389 l 1
 480 367 l 1
 477 347 l 1
 450 349 l 1
 355 354 l 1
 333 355 l 1
 326 218 l 1
 333 188 l 1
 327 168 l 1
 332 163 l 1
 334 56 l 1
 335 45 l 1
 367 38 l 1
 383 38 l 1
 471 45 l 1
 498 50 l 1
 520 47 l 1
 516 4 l 1
 509 -3 l 1
 451 -2 l 1
 388 4 l 1
 339 4 l 1
 331 -1 l 1
 282 0 l 1
 278 19 l 1
 282 57 l 1
 284 100 l 1
 286 145 l 1
 290 168 l 1
 289 205 l 1
 287 204 l 1
 166 183 l 1
 138 179 l 1
 133 178 l 1
 118 174 l 1
 119 170 l 1
 90 83 l 1
 82 64 l 1
 78 27 l 1
 66 -8 l 1
 28 0 l 1
 11 11 l 1
 59 128 l 1
 77 188 l 1
 91 202 l 1
 91 205 l 1
 93 225 l 1
 134 353 l 1
 141 373 l 1
 149 393 l 1
 150 405 l 1
 153 417 l 1
 204 559 l 1
 222 586 l 1
 217 592 l 1
 228 633 l 1
 240 676 l 1
 260 733 l 1
 284 732 l 1
 309 735 l 1
 364 735 l 1
 381 732 l 1
 437 735 l 1
 504 736 l 1
 505 718 l 1
 502 684 l 1
176 219 m 1
 178 223 l 1
 288 244 l 1
 288 269 l 1
 295 284 l 1
 291 287 l 1
 284 389 l 1
 287 428 l 1
 287 510 l 1
 288 593 l 1
 287 658 l 1
 214 466 l 1
 203 452 l 1
 204 440 l 1
 165 335 l 1
 146 269 l 1
 140 249 l 1
 133 220 l 1
 146 218 l 1
 151 219 l 1
 175 216 l 1
 176 219 l 1
EndSplineSet
Validated: 1
EndChar

StartChar: ccedilla
Encoding: 231 231 168
Width: 336
GlyphClass: 1
Flags: MW
HStem: -9 21G 726 20G<265 265>
LayerCount: 2
Fore
SplineSet
57 305 m 1
 34 336 l 1
 31 392 l 1
 108 500 l 1
 175 602 l 1
 189 609 l 1
 186 623 l 1
 237 711 l 1
 247 713 l 1
 253 731 l 1
 265 746 l 1
 305 720 l 1
 285 688 l 1
 254 653 l 1
 243 627 l 1
 154 509 l 1
 119 448 l 1
 100 410 l 1
 75 369 l 1
 86 348 l 1
 96 330 l 1
 118 300 l 1
 131 261 l 1
 142 259 l 1
 174 211 l 1
 233 119 l 1
 254 91 l 1
 287 51 l 1
 303 26 l 1
 273 0 l 1
 261 -6 l 1
 261 -7 l 1
 233 -24 l 1
 280 -62 l 1
 303 -85 l 1
 298 -106 l 1
 269 -129 l 1
 257 -144 l 1
 238 -172 l 1
 228 -174 l 1
 215 -165 l 1
 203 -137 l 1
 231 -121 l 1
 254 -100 l 1
 262 -88 l 1
 251 -69 l 1
 226 -56 l 1
 204 -47 l 1
 205 -17 l 1
 239 15 l 1
 232 44 l 1
 222 50 l 1
 144 165 l 1
 140 186 l 1
 98 237 l 1
 57 305 l 1
EndSplineSet
Validated: 1
EndChar

StartChar: egrave
Encoding: 232 232 169
Width: 344
GlyphClass: 1
Flags: MW
HStem: -3 21G<305 305> 715 20G<105 160 160 160 233 233>
LayerCount: 2
Fore
SplineSet
298 685 m 1
 279 685 l 1
 249 693 l 1
 233 691 l 1
 171 696 l 1
 159 696 l 1
 147 697 l 1
 125 693 l 1
 127 684 l 1
 130 675 l 1
 131 657 l 1
 129 629 l 1
 127 530 l 1
 120 518 l 1
 121 460 l 1
 125 391 l 1
 195 390 l 1
 245 396 l 1
 273 397 l 1
 281 389 l 1
 276 367 l 1
 273 347 l 1
 246 349 l 1
 151 354 l 1
 129 355 l 1
 122 218 l 1
 129 188 l 1
 123 168 l 1
 128 163 l 1
 130 56 l 1
 131 45 l 1
 163 38 l 1
 179 38 l 1
 267 45 l 1
 294 50 l 1
 316 47 l 1
 312 4 l 1
 305 -3 l 1
 247 -2 l 1
 184 4 l 1
 135 4 l 1
 127 -1 l 1
 78 0 l 1
 74 19 l 1
 78 57 l 1
 80 100 l 1
 82 145 l 1
 86 168 l 1
 85 217 l 1
 84 269 l 1
 91 284 l 1
 87 287 l 1
 80 389 l 1
 83 428 l 1
 83 510 l 1
 84 593 l 1
 83 657 l 1
 88 677 l 1
 83 680 l 1
 80 732 l 1
 105 735 l 1
 160 735 l 1
 177 732 l 1
 233 735 l 1
 300 736 l 1
 301 718 l 1
 298 685 l 1
184 800 m 1
 140 839 l 1
 119 862 l 1
 123 870 l 1
 161 883 l 1
 168 877 l 1
 210 817 l 1
 235 789 l 1
 234 782 l 1
 207 775 l 1
 201 781 l 1
 184 800 l 1
EndSplineSet
Validated: 1
EndChar

StartChar: eacute
Encoding: 233 233 170
Width: 344
GlyphClass: 1
Flags: MW
HStem: -3 21G<305 305> 715 20G<105 160 160 160 233 233>
LayerCount: 2
Fore
SplineSet
298 685 m 1
 279 685 l 1
 249 693 l 1
 233 691 l 1
 171 696 l 1
 159 696 l 1
 147 697 l 1
 125 693 l 1
 127 684 l 1
 130 675 l 1
 131 657 l 1
 129 629 l 1
 127 530 l 1
 120 518 l 1
 121 460 l 1
 125 391 l 1
 195 390 l 1
 245 396 l 1
 273 397 l 1
 281 389 l 1
 276 367 l 1
 273 347 l 1
 246 349 l 1
 151 354 l 1
 129 355 l 1
 122 218 l 1
 129 188 l 1
 123 168 l 1
 128 163 l 1
 130 56 l 1
 131 45 l 1
 163 38 l 1
 179 38 l 1
 267 45 l 1
 294 50 l 1
 316 47 l 1
 312 4 l 1
 305 -3 l 1
 247 -2 l 1
 184 4 l 1
 135 4 l 1
 127 -1 l 1
 78 0 l 1
 74 19 l 1
 78 57 l 1
 80 100 l 1
 82 145 l 1
 86 168 l 1
 85 217 l 1
 84 269 l 1
 91 284 l 1
 87 287 l 1
 80 389 l 1
 83 428 l 1
 83 510 l 1
 84 593 l 1
 83 657 l 1
 88 677 l 1
 83 680 l 1
 80 732 l 1
 105 735 l 1
 160 735 l 1
 177 732 l 1
 233 735 l 1
 300 736 l 1
 301 718 l 1
 298 685 l 1
257 839 m 1
 214 800 l 1
 198 780 l 1
 191 774 l 1
 162 781 l 1
 162 788 l 1
 187 817 l 1
 229 877 l 1
 236 883 l 1
 274 870 l 1
 278 862 l 1
 257 839 l 1
EndSplineSet
Validated: 1
EndChar

StartChar: ecircumflex
Encoding: 234 234 171
Width: 344
GlyphClass: 1
Flags: MW
HStem: -3 21G<305 305> 715 20G<105 160 160 160 233 233>
LayerCount: 2
Fore
SplineSet
298 685 m 1
 279 685 l 1
 249 693 l 1
 233 691 l 1
 171 696 l 1
 159 696 l 1
 147 697 l 1
 125 693 l 1
 127 684 l 1
 130 675 l 1
 131 657 l 1
 129 629 l 1
 127 530 l 1
 120 518 l 1
 121 460 l 1
 125 391 l 1
 195 390 l 1
 245 396 l 1
 273 397 l 1
 281 389 l 1
 276 367 l 1
 273 347 l 1
 246 349 l 1
 151 354 l 1
 129 355 l 1
 122 218 l 1
 129 188 l 1
 123 168 l 1
 128 163 l 1
 130 56 l 1
 131 45 l 1
 163 38 l 1
 179 38 l 1
 267 45 l 1
 294 50 l 1
 316 47 l 1
 312 4 l 1
 305 -3 l 1
 247 -2 l 1
 184 4 l 1
 135 4 l 1
 127 -1 l 1
 78 0 l 1
 74 19 l 1
 78 57 l 1
 80 100 l 1
 82 145 l 1
 86 168 l 1
 85 217 l 1
 84 269 l 1
 91 284 l 1
 87 287 l 1
 80 389 l 1
 83 428 l 1
 83 510 l 1
 84 593 l 1
 83 657 l 1
 88 677 l 1
 83 680 l 1
 80 732 l 1
 105 735 l 1
 160 735 l 1
 177 732 l 1
 233 735 l 1
 300 736 l 1
 301 718 l 1
 298 685 l 1
285 779 m 1
 257 769 l 1
 240 792 l 1
 207 831 l 1
 194 838 l 1
 181 828 l 1
 157 797 l 1
 146 774 l 1
 116 778 l 1
 109 793 l 1
 177 857 l 1
 198 877 l 1
 218 875 l 1
 242 849 l 1
 268 821 l 1
 293 802 l 1
 295 792 l 1
 285 779 l 1
EndSplineSet
Validated: 1
EndChar

StartChar: edieresis
Encoding: 235 235 172
Width: 344
GlyphClass: 1
Flags: MW
HStem: -3 21G<305 305> 715 20G<105 160 160 160 233 233>
LayerCount: 2
Fore
SplineSet
298 685 m 1
 279 685 l 1
 249 693 l 1
 233 691 l 1
 171 696 l 1
 159 696 l 1
 147 697 l 1
 125 693 l 1
 127 684 l 1
 130 675 l 1
 131 657 l 1
 129 629 l 1
 127 530 l 1
 120 518 l 1
 121 460 l 1
 125 391 l 1
 195 390 l 1
 245 396 l 1
 273 397 l 1
 281 389 l 1
 276 367 l 1
 273 347 l 1
 246 349 l 1
 151 354 l 1
 129 355 l 1
 122 218 l 1
 129 188 l 1
 123 168 l 1
 128 163 l 1
 130 56 l 1
 131 45 l 1
 163 38 l 1
 179 38 l 1
 267 45 l 1
 294 50 l 1
 316 47 l 1
 312 4 l 1
 305 -3 l 1
 247 -2 l 1
 184 4 l 1
 135 4 l 1
 127 -1 l 1
 78 0 l 1
 74 19 l 1
 78 57 l 1
 80 100 l 1
 82 145 l 1
 86 168 l 1
 85 217 l 1
 84 269 l 1
 91 284 l 1
 87 287 l 1
 80 389 l 1
 83 428 l 1
 83 510 l 1
 84 593 l 1
 83 657 l 1
 88 677 l 1
 83 680 l 1
 80 732 l 1
 105 735 l 1
 160 735 l 1
 177 732 l 1
 233 735 l 1
 300 736 l 1
 301 718 l 1
 298 685 l 1
180 828 m 1
 185 819 l 1
 166 800 l 1
 152 782 l 1
 141 786 l 1
 127 800 l 1
 110 815 l 1
 112 827 l 1
 146 857 l 1
 155 856 l 1
 180 828 l 1
220 812 m 1
 216 820 l 1
 235 839 l 1
 247 857 l 1
 260 854 l 1
 275 839 l 1
 290 826 l 1
 288 813 l 1
 254 782 l 1
 245 784 l 1
 220 812 l 1
EndSplineSet
Validated: 1
EndChar

StartChar: igrave
Encoding: 236 236 173
Width: 217
GlyphClass: 1
Flags: MW
HStem: -2 21G<114 114> 723 20G<98 98>
LayerCount: 2
Fore
SplineSet
95 439 m 1
 87 471 l 1
 83 710 l 1
 80 738 l 1
 98 743 l 1
 138 735 l 1
 135 684 l 1
 130 655 l 1
 127 515 l 1
 124 461 l 1
 128 412 l 1
 130 383 l 1
 131 364 l 1
 132 359 l 1
 132 62 l 1
 134 41 l 1
 138 21 l 1
 136 4 l 1
 114 -2 l 1
 95 -1 l 1
 79 0 l 1
 88 64 l 1
 88 344 l 1
 91 378 l 1
 95 439 l 1
94 805 m 1
 50 844 l 1
 29 867 l 1
 33 875 l 1
 71 888 l 1
 78 882 l 1
 120 822 l 1
 145 794 l 1
 144 787 l 1
 117 780 l 1
 111 786 l 1
 94 805 l 1
EndSplineSet
Validated: 1
EndChar

StartChar: iacute
Encoding: 237 237 174
Width: 217
GlyphClass: 1
Flags: MW
HStem: -2 21G<114 114> 723 20G<98 98>
LayerCount: 2
Fore
SplineSet
95 439 m 1
 87 471 l 1
 83 710 l 1
 80 738 l 1
 98 743 l 1
 138 735 l 1
 135 684 l 1
 130 655 l 1
 127 515 l 1
 124 461 l 1
 128 412 l 1
 130 383 l 1
 131 364 l 1
 132 359 l 1
 132 62 l 1
 134 41 l 1
 138 21 l 1
 136 4 l 1
 114 -2 l 1
 95 -1 l 1
 79 0 l 1
 88 64 l 1
 88 344 l 1
 91 378 l 1
 95 439 l 1
167 844 m 1
 124 805 l 1
 108 785 l 1
 101 779 l 1
 72 786 l 1
 72 793 l 1
 97 822 l 1
 139 882 l 1
 146 888 l 1
 184 875 l 1
 188 867 l 1
 167 844 l 1
EndSplineSet
Validated: 1
EndChar

StartChar: icircumflex
Encoding: 238 238 175
Width: 217
GlyphClass: 1
Flags: MW
HStem: -2 21G<114 114> 723 20G<98 98>
LayerCount: 2
Fore
SplineSet
95 439 m 1
 87 471 l 1
 83 710 l 1
 80 738 l 1
 98 743 l 1
 138 735 l 1
 135 684 l 1
 130 655 l 1
 127 515 l 1
 124 461 l 1
 128 412 l 1
 130 383 l 1
 131 364 l 1
 132 359 l 1
 132 62 l 1
 134 41 l 1
 138 21 l 1
 136 4 l 1
 114 -2 l 1
 95 -1 l 1
 79 0 l 1
 88 64 l 1
 88 344 l 1
 91 378 l 1
 95 439 l 1
192 779 m 1
 164 769 l 1
 147 792 l 1
 114 831 l 1
 101 838 l 1
 88 828 l 1
 64 797 l 1
 53 774 l 1
 23 778 l 1
 16 793 l 1
 84 857 l 1
 105 877 l 1
 125 875 l 1
 149 849 l 1
 175 821 l 1
 200 802 l 1
 202 792 l 1
 192 779 l 1
EndSplineSet
Validated: 1
EndChar

StartChar: idieresis
Encoding: 239 239 176
Width: 217
GlyphClass: 1
Flags: MW
HStem: -2 21G<114 114> 723 20G<98 98>
LayerCount: 2
Fore
SplineSet
95 439 m 1
 87 471 l 1
 83 710 l 1
 80 738 l 1
 98 743 l 1
 138 735 l 1
 135 684 l 1
 130 655 l 1
 127 515 l 1
 124 461 l 1
 128 412 l 1
 130 383 l 1
 131 364 l 1
 132 359 l 1
 132 62 l 1
 134 41 l 1
 138 21 l 1
 136 4 l 1
 114 -2 l 1
 95 -1 l 1
 79 0 l 1
 88 64 l 1
 88 344 l 1
 91 378 l 1
 95 439 l 1
89 828 m 1
 94 819 l 1
 75 800 l 1
 61 782 l 1
 50 786 l 1
 36 800 l 1
 19 815 l 1
 21 827 l 1
 55 857 l 1
 64 856 l 1
 89 828 l 1
129 812 m 1
 125 820 l 1
 144 839 l 1
 156 857 l 1
 169 854 l 1
 184 839 l 1
 199 826 l 1
 197 813 l 1
 163 782 l 1
 154 784 l 1
 129 812 l 1
EndSplineSet
Validated: 1
EndChar

StartChar: eth
Encoding: 240 240 177
Width: 388
GlyphClass: 1
Flags: MW
HStem: -9 21G<136 136> 728 20G<119 119>
LayerCount: 2
Fore
SplineSet
205 90 m 1
 136 -9 l 1
 123 -4 l 1
 81 -2 l 1
 85 50 l 1
 89 293 l 1
 85 334 l 1
 84 352 l 1
 47 351 l 2
 33 350 38 349 24 348 c 2
 13 350 l 1
 15 366 l 1
 17 376 l 1
 17 390 l 1
 19 392 l 1
 44 390 l 1
 84 387 l 1
 81 614 l 1
 84 641 l 1
 77 655 l 1
 75 710 l 1
 74 732 l 1
 104 741 l 1
 119 748 l 1
 140 720 l 1
 172 680 l 1
 181 662 l 1
 184 659 l 1
 197 644 l 1
 225 604 l 1
 228 584 l 1
 265 545 l 1
 357 420 l 1
 370 408 l 1
 370 356 l 1
 356 332 l 1
 310 268 l 1
 294 260 l 1
 295 260 l 1
 297 254 l 1
 300 249 l 1
 241 159 l 1
 205 90 l 1
127 483 m 1
 118 459 l 1
 123 417 l 1
 127 387 l 1
 173 389 l 1
 202 393 l 1
 203 391 l 1
 202 355 l 1
 189 350 l 1
 135 353 l 1
 128 353 l 1
 121 172 l 1
 122 151 l 1
 123 119 l 1
 127 69 l 1
 129 57 l 1
 131 58 l 1
 164 107 l 1
 180 127 l 1
 204 166 l 1
 219 184 l 1
 274 277 l 1
 314 335 l 1
 332 373 l 1
 324 390 l 1
 313 406 l 1
 305 419 l 1
 278 463 l 1
 244 502 l 1
 186 582 l 1
 120 672 l 1
 121 658 l 1
 122 639 l 1
 126 570 l 1
 127 483 l 1
EndSplineSet
Validated: 1
EndChar

StartChar: ntilde
Encoding: 241 241 178
Width: 469
GlyphClass: 1
Flags: MW
HStem: -5 21G<106 106 346 346> 725 20G<131 131>
LayerCount: 2
Fore
SplineSet
383 63 m 1
 390 6 l 1
 385 -4 l 1
 346 -5 l 1
 336 -3 l 1
 339 55 l 1
 339 99 l 1
 336 157 l 1
 339 237 l 1
 348 239 l 1
 343 262 l 1
 338 286 l 1
 337 373 l 1
 313 422 l 1
 300 450 l 1
 285 477 l 1
 253 519 l 1
 211 578 l 1
 187 608 l 1
 178 619 l 1
 153 651 l 1
 137 666 l 1
 134 664 l 1
 133 658 l 1
 133 567 l 1
 124 504 l 1
 125 501 l 1
 132 485 l 1
 130 244 l 1
 134 205 l 1
 138 167 l 1
 138 53 l 1
 140 37 l 1
 138 -3 l 1
 106 -5 l 1
 81 -1 l 1
 86 57 l 1
 85 69 l 1
 85 91 l 1
 89 172 l 1
 92 241 l 1
 101 279 l 1
 97 286 l 1
 91 302 l 1
 94 520 l 1
 91 586 l 1
 89 651 l 1
 84 698 l 1
 84 732 l 1
 131 745 l 1
 219 627 l 1
 246 580 l 1
 255 574 l 1
 331 470 l 1
 334 470 l 1
 338 476 l 1
 335 552 l 1
 334 626 l 1
 332 659 l 1
 342 662 l 1
 341 662 l 1
 333 675 l 1
 332 734 l 1
 367 735 l 1
 387 731 l 1
 385 683 l 1
 373 417 l 1
 376 336 l 1
 385 101 l 1
 383 63 l 1
304 784 m 1
 279 780 l 1
 205 830 l 1
 186 833 l 1
 169 812 l 1
 164 791 l 1
 136 791 l 1
 129 804 l 1
 175 855 l 1
 194 873 l 1
 221 872 l 1
 285 827 l 1
 301 829 l 1
 321 854 l 1
 324 868 l 1
 351 867 l 1
 359 857 l 1
 304 784 l 1
EndSplineSet
Validated: 1
EndChar

StartChar: ograve
Encoding: 242 242 179
Width: 423
GlyphClass: 1
Flags: MW
HStem: -10 21G<230 230> 721 20G<239 239>
LayerCount: 2
Fore
SplineSet
239 741 m 1
 255 695 l 1
 314 561 l 1
 324 524 l 1
 331 515 l 1
 338 515 l 1
 357 466 l 1
 397 394 l 1
 394 350 l 1
 345 247 l 1
 306 168 l 1
 249 28 l 1
 238 -1 l 1
 230 -10 l 1
 188 -4 l 1
 186 16 l 1
 144 110 l 1
 140 150 l 1
 125 150 l 1
 103 201 l 1
 83 245 l 1
 64 290 l 1
 38 348 l 1
 32 383 l 1
 41 393 l 1
 102 533 l 1
 116 547 l 1
 117 556 l 1
 117 561 l 1
 118 564 l 1
 181 708 l 1
 186 718 l 1
 192 736 l 1
 203 738 l 1
 239 741 l 1
223 64 m 1
 280 195 l 1
 296 208 l 1
 303 234 l 1
 350 369 l 1
 346 381 l 1
 336 410 l 1
 331 417 l 1
 327 427 l 1
 318 445 l 1
 253 595 l 1
 259 608 l 1
 255 608 l 1
 249 609 l 1
 218 675 l 1
 212 680 l 1
 211 678 l 1
 210 671 l 1
 195 638 l 1
 132 519 l 1
 119 510 l 1
 120 510 l 1
 117 482 l 1
 80 394 l 1
 79 390 l 1
 79 385 l 1
 78 377 l 1
 80 373 l 1
 84 364 l 1
 96 334 l 1
 97 331 l 1
 122 266 l 1
 152 203 l 1
 188 125 l 1
 214 58 l 1
 216 59 l 1
 224 64 l 1
 223 64 l 1
202 800 m 1
 158 839 l 1
 137 862 l 1
 141 870 l 1
 179 883 l 1
 186 877 l 1
 228 817 l 1
 253 789 l 1
 252 782 l 1
 225 775 l 1
 219 781 l 1
 202 800 l 1
EndSplineSet
Validated: 1
EndChar

StartChar: oacute
Encoding: 243 243 180
Width: 423
GlyphClass: 1
Flags: MW
HStem: -10 21G<230 230> 721 20G<239 239>
LayerCount: 2
Fore
SplineSet
239 741 m 1
 255 695 l 1
 314 561 l 1
 324 524 l 1
 331 515 l 1
 338 515 l 1
 357 466 l 1
 397 394 l 1
 394 350 l 1
 345 247 l 1
 306 168 l 1
 249 28 l 1
 238 -1 l 1
 230 -10 l 1
 188 -4 l 1
 186 16 l 1
 144 110 l 1
 140 150 l 1
 125 150 l 1
 103 201 l 1
 83 245 l 1
 64 290 l 1
 38 348 l 1
 32 383 l 1
 41 393 l 1
 102 533 l 1
 116 547 l 1
 117 556 l 1
 117 561 l 1
 118 564 l 1
 181 708 l 1
 186 718 l 1
 192 736 l 1
 203 738 l 1
 239 741 l 1
223 64 m 1
 280 195 l 1
 296 208 l 1
 303 234 l 1
 350 369 l 1
 346 381 l 1
 336 410 l 1
 331 417 l 1
 327 427 l 1
 318 445 l 1
 253 595 l 1
 259 608 l 1
 255 608 l 1
 249 609 l 1
 218 675 l 1
 212 680 l 1
 211 678 l 1
 210 671 l 1
 195 638 l 1
 132 519 l 1
 119 510 l 1
 120 510 l 1
 117 482 l 1
 80 394 l 1
 79 390 l 1
 79 385 l 1
 78 377 l 1
 80 373 l 1
 84 364 l 1
 96 334 l 1
 97 331 l 1
 122 266 l 1
 152 203 l 1
 188 125 l 1
 214 58 l 1
 216 59 l 1
 224 64 l 1
 223 64 l 1
275 839 m 1
 232 800 l 1
 216 780 l 1
 209 774 l 1
 180 781 l 1
 180 788 l 1
 205 817 l 1
 247 877 l 1
 254 883 l 1
 292 870 l 1
 296 862 l 1
 275 839 l 1
EndSplineSet
Validated: 1
EndChar

